<svg width="20" height="20" viewBox="0 0 20 20" fill="none" xmlns="http://www.w3.org/2000/svg">
<path d="M17.5 7.5H18.75V16.875C18.75 17.3723 18.5525 17.8492 18.2008 18.2008C17.8492 18.5525 17.3723 18.75 16.875 18.75H3.125C2.62772 18.75 2.15081 18.5525 1.79917 18.2008C1.44754 17.8492 1.25 17.3723 1.25 16.875V7.5H17.5ZM16.875 2.5H15.625V4.375C15.625 4.54076 15.5592 4.69973 15.4419 4.81694C15.3247 4.93415 15.1658 5 15 5C14.8342 5 14.6753 4.93415 14.5581 4.81694C14.4408 4.69973 14.375 4.54076 14.375 4.375V2.5H5.625V4.375C5.625 4.54076 5.55915 4.69973 5.44194 4.81694C5.32473 4.93415 5.16576 5 5 5C4.83424 5 4.67527 4.93415 4.55806 4.81694C4.44085 4.69973 4.375 4.54076 4.375 4.375V2.5H3.125C2.62772 2.5 2.15081 2.69754 1.79917 3.04917C1.44754 3.40081 1.25 3.87772 1.25 4.375V6.25H18.75V4.375C18.75 3.87772 18.5525 3.40081 18.2008 3.04917C17.8492 2.69754 17.3723 2.5 16.875 2.5ZM5.625 1.875C5.625 1.70924 5.55915 1.55027 5.44194 1.43306C5.32473 1.31585 5.16576 1.25 5 1.25C4.83424 1.25 4.67527 1.31585 4.55806 1.43306C4.44085 1.55027 4.375 1.70924 4.375 1.875V2.5H5.625V1.875ZM15.625 1.875C15.625 1.70924 15.5592 1.55027 15.4419 1.43306C15.3247 1.31585 15.1658 1.25 15 1.25C14.8342 1.25 14.6753 1.31585 14.5581 1.43306C14.4408 1.55027 14.375 1.70924 14.375 1.875V2.5H15.625V1.875Z" fill="#121212"/>
</svg>
