<svg width="35" height="35" viewBox="0 0 35 35" fill="none" xmlns="http://www.w3.org/2000/svg">
<g clip-path="url(#clip0_2_11580)">
<path d="M1.08887 23.5871C3.56149 30.2511 9.976 35.0002 17.5004 35.0002C25.0248 35.0002 31.4393 30.2511 33.9119 23.5871L17.5004 22.0654L1.08887 23.5871Z" fill="#FFDA44"/>
<path d="M17.5004 0C9.976 0 3.56149 4.74906 1.08887 11.4131L17.5004 12.9348L33.9119 11.413C31.4393 4.74906 25.0248 0 17.5004 0Z" fill="black"/>
<path d="M1.08849 11.4131C0.385068 13.3089 0 15.3594 0 17.5C0 19.6406 0.385068 21.6911 1.08849 23.5869H33.9116C34.615 21.6911 35 19.6406 35 17.5C35 15.3594 34.615 13.3089 33.9115 11.4131H1.08849Z" fill="#D80027"/>
</g>
<defs>
<clipPath id="clip0_2_11580">
<rect width="35" height="35" fill="white"/>
</clipPath>
</defs>
</svg>
