<svg width="115" height="65" viewBox="0 0 115 65" fill="none" xmlns="http://www.w3.org/2000/svg">
<g clip-path="url(#clip0_2_10622)">
<rect width="115" height="65" rx="5" fill="#F0DDA9"/>
<g opacity="0.3" clip-path="url(#clip1_2_10622)">
<path d="M71.1485 53.7115C65.5553 69.0788 73.4791 86.0714 88.8446 91.661C104.21 97.2507 121.205 89.3305 126.794 73.9649C132.387 58.5976 124.464 41.605 109.098 36.0154C93.7308 30.4221 76.7381 38.3459 71.1485 53.7115ZM114.009 58.8672L99.7046 65.5375C99.6795 65.5492 99.6646 65.5736 99.6395 65.5853C99.1629 65.8076 98.6175 65.8314 98.1233 65.6515C97.6292 65.4717 97.2267 65.1029 97.0045 64.6263L88.6181 46.6417C88.3959 46.1651 88.3721 45.6197 88.5519 45.1256C88.7318 44.6314 89.1006 44.2289 89.5772 44.0067C90.0538 43.7845 90.5991 43.7606 91.0933 43.9405C91.5874 44.1204 91.9899 44.4892 92.2122 44.9658L99.7538 61.139L112.333 55.2732C112.81 55.051 113.355 55.0271 113.849 55.207C114.343 55.3869 114.746 55.7557 114.968 56.2323C115.19 56.7089 115.214 57.2542 115.034 57.7484C114.854 58.2425 114.486 58.645 114.009 58.8672Z" fill="white"/>
</g>
</g>
<defs>
<clipPath id="clip0_2_10622">
<rect width="115" height="65" rx="5" fill="white"/>
</clipPath>
<clipPath id="clip1_2_10622">
<rect width="65" height="65" fill="white" transform="translate(54 47.4697) rotate(-25)"/>
</clipPath>
</defs>
</svg>
