<svg width="150" height="150" viewBox="0 0 150 150" fill="none" xmlns="http://www.w3.org/2000/svg">
<path d="M17.895 61.918C17.697 63.6475 17.5965 65.4085 17.5965 67.1905C17.5965 74.713 19.4055 81.814 22.611 88.0795H13.0815C9.46946 88.0795 6.20096 86.6155 3.83396 84.247C1.46546 81.8815 0.00146484 78.613 0.00146484 75.001C0.00146484 67.774 5.85896 61.918 13.083 61.918H17.898H17.895Z" fill="url(#paint0_linear_2_11114)"/>
<path d="M146.167 118.073C148.536 120.439 150 123.71 150 127.321C150 134.545 144.142 140.402 136.918 140.402H13.0815C9.46946 140.402 6.20096 138.938 3.83396 136.571C1.46546 134.203 0.00146484 130.933 0.00146484 127.321C0.00146484 120.097 5.85896 114.241 13.083 114.241H55.9245C57.858 114.241 59.6925 113.821 61.3425 113.068C62.0655 113.102 62.7945 113.119 63.5265 113.119C70.902 113.119 77.871 111.38 84.045 108.292C88.89 112.658 95.3055 115.315 102.339 115.315C107.436 115.315 112.207 113.918 116.292 111.49L122.433 114.701C123.64 115.333 125.073 114.398 124.98 113.039L124.749 109.607C124.983 109.885 125.227 110.152 125.485 110.408C127.852 112.775 131.124 114.239 134.736 114.239H136.921C140.533 114.239 143.802 115.703 146.169 118.07L146.167 118.073Z" fill="url(#paint1_linear_2_11114)"/>
<path d="M146.168 65.7522C148.536 68.1177 150 71.3907 150 75.0027C150 82.2267 144.143 88.0827 136.919 88.0827H134.733C132.933 88.0827 131.215 88.4472 129.654 89.1072C129.669 88.7337 129.678 88.3572 129.678 87.9807C129.678 75.2157 120.932 64.4952 109.103 61.4862C106.292 38.8137 86.958 21.2667 63.525 21.2667C50.0475 21.2667 37.9275 27.0717 29.5245 36.3177C28.3305 35.9577 27.0615 35.7642 25.7475 35.7642H13.08C9.468 35.7642 6.1995 34.3002 3.8325 31.9332C1.464 29.5587 0 26.2902 0 22.6782C0 15.4542 5.8575 9.59668 13.0815 9.59668H136.92C140.532 9.59668 143.801 11.0607 146.168 13.4277C148.535 15.7947 150 19.0662 150 22.6782C150 29.9022 144.143 35.7597 136.919 35.7597H122.892C115.668 35.7597 109.809 41.6157 109.809 48.8397C109.809 52.4517 111.273 55.7232 113.642 58.0887C116.008 60.4557 119.28 61.9197 122.892 61.9197H136.919C140.531 61.9197 143.799 63.3837 146.166 65.7522H146.168Z" fill="url(#paint2_linear_2_11114)"/>
<path d="M144.864 101.249C144.864 106.369 140.713 110.518 135.594 110.518C130.474 110.518 126.325 106.369 126.325 101.249C126.325 101.2 126.325 101.15 126.327 101.101C127.377 99.1855 128.206 97.132 128.773 94.9735C130.465 93.1345 132.894 91.9795 135.594 91.9795C140.713 91.9795 144.864 96.13 144.864 101.249Z" fill="url(#paint3_linear_2_11114)"/>
<path d="M25.4896 109.298C25.4596 109.735 25.5241 110.147 25.6621 110.518H22.2016C17.0821 110.518 12.9331 106.369 12.9331 101.249C12.9331 96.13 17.0821 91.9795 22.2016 91.9795H24.8536C25.3771 92.797 25.9261 93.5965 26.5006 94.3765L25.4896 109.298Z" fill="url(#paint4_linear_2_11114)"/>
<path d="M48.2415 110.518H32.781L40.086 106.697C42.654 108.224 45.3825 109.508 48.2415 110.518Z" fill="url(#paint5_linear_2_11114)"/>
<path d="M124.98 113.041C125.073 114.4 123.64 115.335 122.433 114.703L116.292 111.492C112.207 113.92 107.437 115.317 102.339 115.317C95.3039 115.317 88.8899 112.66 84.0449 108.294C99.1109 100.758 109.455 85.182 109.455 67.191C109.455 65.2575 109.336 63.3525 109.102 61.4805C120.931 64.4895 129.678 75.2115 129.678 87.975C129.678 94.0305 127.71 99.627 124.378 104.157L124.98 113.038V113.041Z" fill="url(#paint6_linear_2_11114)"/>
<path d="M109.455 67.1927C109.455 85.1837 99.1109 100.76 84.0449 108.296C77.8694 111.384 70.9019 113.123 63.5264 113.123C54.9644 113.123 46.9484 110.78 40.0874 106.698L29.7704 112.094C27.7424 113.154 25.3364 111.584 25.4909 109.299L26.5019 94.3772C20.9054 86.7662 17.5964 77.3672 17.5964 67.1927C17.5964 41.8262 38.1599 21.2627 63.5264 21.2627C86.9594 21.2627 106.293 38.8097 109.104 61.4822C109.338 63.3527 109.456 65.2592 109.456 67.1927H109.455Z" fill="url(#paint7_linear_2_11114)"/>
<g opacity="0.5">
<path d="M25.536 63.8421C25.2885 63.8421 25.0875 63.6426 25.086 63.3951C25.0845 63.1386 25.0725 57.0471 28.0275 49.8081C29.7645 45.5526 32.172 41.7981 35.184 38.6481C38.949 34.7106 43.668 31.7181 49.2135 29.7501C49.4475 29.6661 49.7055 29.7891 49.788 30.0231C49.8705 30.2571 49.749 30.5151 49.515 30.5976C37.281 34.9386 31.5375 43.6071 28.875 50.1156C25.9785 57.1926 25.986 63.3276 25.9875 63.3876C25.989 63.6366 25.7895 63.8391 25.5405 63.8406H25.5375L25.536 63.8421ZM66.5205 107.341C65.1885 107.341 63.942 107.273 62.811 107.171C57.108 106.652 53.163 105.167 52.998 105.106C52.7655 105.017 52.65 104.758 52.737 104.525C52.824 104.293 53.085 104.176 53.3175 104.264C53.3565 104.279 57.333 105.773 62.919 106.277C68.0535 106.742 75.6405 106.442 82.632 102.377C82.8465 102.253 83.1225 102.325 83.247 102.541C83.3715 102.755 83.2995 103.031 83.0835 103.156C77.4225 106.447 71.3985 107.342 66.519 107.342L66.5205 107.341Z" fill="#CCD2D6"/>
</g>
<path d="M53.157 62.7891C55.2521 62.7891 56.9505 61.0907 56.9505 58.9956C56.9505 56.9006 55.2521 55.2021 53.157 55.2021C51.0619 55.2021 49.3635 56.9006 49.3635 58.9956C49.3635 61.0907 51.0619 62.7891 53.157 62.7891Z" fill="url(#paint8_linear_2_11114)"/>
<path d="M73.8946 62.7891C75.9897 62.7891 77.6881 61.0907 77.6881 58.9956C77.6881 56.9006 75.9897 55.2021 73.8946 55.2021C71.7995 55.2021 70.1011 56.9006 70.1011 58.9956C70.1011 61.0907 71.7995 62.7891 73.8946 62.7891Z" fill="url(#paint9_linear_2_11114)"/>
<path d="M77.0595 79.0939C76.47 79.3174 75.807 79.1074 75.459 78.5824C74.346 76.9009 71.154 73.5259 63.5265 73.5259C55.899 73.5259 52.728 76.8934 51.6 78.5749C51.2475 79.0999 50.5875 79.3159 49.9965 79.0924H49.9935C49.182 78.7849 48.8625 77.8069 49.347 77.0824C50.8425 74.8384 54.7515 70.8184 63.5265 70.8184C72.3015 70.8184 76.2075 74.8384 77.706 77.0824C78.186 77.8069 77.868 78.7849 77.0595 79.0924V79.0939Z" fill="url(#paint10_linear_2_11114)"/>
<path opacity="0.5" d="M113.289 56.4175L114.428 57.556C114.807 57.9355 115.422 57.9355 115.8 57.556L118.799 54.559L121.796 57.556C122.175 57.9355 122.79 57.9355 123.168 57.556L124.307 56.4175C124.686 56.038 124.686 55.423 124.307 55.0435L121.31 52.048L124.307 49.0495C124.686 48.67 124.686 48.0565 124.307 47.677L123.168 46.5385C122.789 46.159 122.174 46.159 121.796 46.5385L118.799 49.537L115.8 46.5385C115.422 46.159 114.807 46.159 114.428 46.5385L113.289 47.677C112.91 48.0565 112.91 48.6715 113.289 49.0495L116.286 52.048L113.289 55.0435C112.91 55.423 112.91 56.038 113.289 56.4175Z" fill="url(#paint11_linear_2_11114)"/>
<path opacity="0.5" d="M43.9876 121.269L45.7666 119.49C45.9916 119.265 45.9916 118.9 45.7666 118.675L45.0901 117.999C44.8651 117.774 44.5006 117.774 44.2756 117.999L42.4966 119.778L40.7176 117.999C40.4926 117.774 40.1281 117.774 39.9031 117.999L39.2266 118.675C39.0016 118.9 39.0016 119.265 39.2266 119.49L41.0056 121.269L39.2266 123.048C39.0016 123.273 39.0016 123.637 39.2266 123.864L39.9031 124.539C40.1281 124.764 40.4926 124.764 40.7176 124.539L42.4966 122.76L44.2756 124.539C44.5006 124.764 44.8651 124.764 45.0901 124.539L45.7666 123.864C45.9916 123.639 45.9916 123.273 45.7666 123.048L43.9876 121.269Z" fill="url(#paint12_linear_2_11114)"/>
<path opacity="0.5" d="M87.0271 124.708L90.5851 121.149C91.0351 120.699 91.0366 119.97 90.5851 119.518L89.2336 118.167C88.7836 117.717 88.0531 117.717 87.6031 118.167L84.0451 121.726L80.4856 118.167C80.0371 117.717 79.3066 117.717 78.8566 118.167L77.5051 119.518C77.0536 119.97 77.0551 120.699 77.5051 121.149L81.0631 124.708L77.5051 128.266C77.0536 128.716 77.0536 129.447 77.5051 129.897L78.8566 131.248C79.3066 131.698 80.0371 131.698 80.4856 131.248L84.0451 127.69L87.6031 131.248C88.0531 131.698 88.7836 131.698 89.2336 131.248L90.5851 129.897C91.0366 129.445 91.0366 128.716 90.5851 128.266L87.0271 124.708Z" fill="url(#paint13_linear_2_11114)"/>
<defs>
<linearGradient id="paint0_linear_2_11114" x1="11.3055" y1="32.0515" x2="11.3055" y2="172.783" gradientUnits="userSpaceOnUse">
<stop stop-color="#CCD2D6" stop-opacity="0.1"/>
<stop offset="1" stop-color="#CCD2D6" stop-opacity="0.25"/>
</linearGradient>
<linearGradient id="paint1_linear_2_11114" x1="75" y1="32.0515" x2="75" y2="172.783" gradientUnits="userSpaceOnUse">
<stop stop-color="#CCD2D6" stop-opacity="0.1"/>
<stop offset="1" stop-color="#CCD2D6" stop-opacity="0.25"/>
</linearGradient>
<linearGradient id="paint2_linear_2_11114" x1="75" y1="32.0517" x2="75" y2="172.783" gradientUnits="userSpaceOnUse">
<stop stop-color="#CCD2D6" stop-opacity="0.1"/>
<stop offset="1" stop-color="#CCD2D6" stop-opacity="0.25"/>
</linearGradient>
<linearGradient id="paint3_linear_2_11114" x1="135.595" y1="32.0515" x2="135.595" y2="172.783" gradientUnits="userSpaceOnUse">
<stop stop-color="#CCD2D6" stop-opacity="0.1"/>
<stop offset="1" stop-color="#CCD2D6" stop-opacity="0.25"/>
</linearGradient>
<linearGradient id="paint4_linear_2_11114" x1="19.7176" y1="32.0515" x2="19.7176" y2="172.783" gradientUnits="userSpaceOnUse">
<stop stop-color="#CCD2D6" stop-opacity="0.1"/>
<stop offset="1" stop-color="#CCD2D6" stop-opacity="0.25"/>
</linearGradient>
<linearGradient id="paint5_linear_2_11114" x1="40.512" y1="32.0513" x2="40.512" y2="172.783" gradientUnits="userSpaceOnUse">
<stop stop-color="#CCD2D6" stop-opacity="0.1"/>
<stop offset="1" stop-color="#CCD2D6" stop-opacity="0.25"/>
</linearGradient>
<linearGradient id="paint6_linear_2_11114" x1="129.987" y1="106.15" x2="102.718" y2="88.2285" gradientUnits="userSpaceOnUse">
<stop stop-color="#CCD2D6" stop-opacity="0.5"/>
<stop offset="1" stop-color="#CCD2D6" stop-opacity="0.8"/>
</linearGradient>
<linearGradient id="paint7_linear_2_11114" x1="63.5249" y1="49.5167" x2="63.5249" y2="116.858" gradientUnits="userSpaceOnUse">
<stop stop-color="#CCD2D6" stop-opacity="0.3"/>
<stop offset="1" stop-color="#CCD2D6" stop-opacity="0.7"/>
</linearGradient>
<linearGradient id="paint8_linear_2_11114" x1="53.157" y1="44.2312" x2="53.157" y2="78.9486" gradientUnits="userSpaceOnUse">
<stop stop-color="#CCD2D6" stop-opacity="0.7"/>
<stop offset="1" stop-color="#CCD2D6"/>
</linearGradient>
<linearGradient id="paint9_linear_2_11114" x1="73.8946" y1="44.2312" x2="73.8946" y2="78.9486" gradientUnits="userSpaceOnUse">
<stop stop-color="#CCD2D6" stop-opacity="0.7"/>
<stop offset="1" stop-color="#CCD2D6"/>
</linearGradient>
<linearGradient id="paint10_linear_2_11114" x1="63.5265" y1="44.2309" x2="63.5265" y2="78.9484" gradientUnits="userSpaceOnUse">
<stop stop-color="#CCD2D6" stop-opacity="0.7"/>
<stop offset="1" stop-color="#CCD2D6"/>
</linearGradient>
<linearGradient id="paint11_linear_2_11114" x1="118.797" y1="40.477" x2="118.797" y2="56.482" gradientUnits="userSpaceOnUse">
<stop stop-color="#CCD2D6" stop-opacity="0.3"/>
<stop offset="1" stop-color="#CCD2D6" stop-opacity="0.7"/>
</linearGradient>
<linearGradient id="paint12_linear_2_11114" x1="42.4966" y1="38.9458" x2="42.4966" y2="115.131" gradientUnits="userSpaceOnUse">
<stop stop-color="#CCD2D6" stop-opacity="0.3"/>
<stop offset="1" stop-color="#CCD2D6" stop-opacity="0.7"/>
</linearGradient>
<linearGradient id="paint13_linear_2_11114" x1="84.0451" y1="38.9456" x2="84.0451" y2="115.131" gradientUnits="userSpaceOnUse">
<stop stop-color="#CCD2D6" stop-opacity="0.3"/>
<stop offset="1" stop-color="#CCD2D6" stop-opacity="0.7"/>
</linearGradient>
</defs>
</svg>
