<svg width="320" height="320" viewBox="0 0 320 320" fill="none" xmlns="http://www.w3.org/2000/svg">
<g clip-path="url(#clip0_2_9890)">
<path fill-rule="evenodd" clip-rule="evenodd" d="M121.633 28.1924H195.053C204.462 28.1924 212.158 35.8901 212.158 45.2972V224.772C212.158 234.18 204.462 241.877 195.053 241.877H121.633C112.225 241.877 104.528 234.18 104.528 224.772V45.2972C104.528 35.8901 112.225 28.1924 121.633 28.1924Z" fill="#567DFF"/>
<path fill-rule="evenodd" clip-rule="evenodd" d="M174.495 33.5636C174.475 33.2073 174.527 32.8507 174.649 32.5154C174.772 32.1802 174.961 31.8735 175.206 31.6141C175.451 31.3546 175.746 31.148 176.074 31.0068C176.402 30.8655 176.755 30.7927 177.112 30.7928C182.356 30.7891 193.587 30.7891 193.587 30.7891C202.62 30.7891 210.009 38.2998 210.009 47.4782V222.591C210.009 231.769 202.62 239.279 193.587 239.279H123.1C114.068 239.279 106.678 231.769 106.678 222.591V47.4782C106.678 38.2998 114.068 30.7891 123.1 30.7891H139.575C139.932 30.7891 140.286 30.8621 140.614 31.0036C140.942 31.145 141.238 31.352 141.483 31.6118C141.729 31.8715 141.918 32.1787 142.041 32.5143C142.163 32.8499 142.216 33.2071 142.196 33.5638C142.189 34.8211 142.184 36.0784 142.181 37.3357C142.181 39.018 143.547 40.3836 145.229 40.3836H171.458C173.14 40.3836 174.505 39.018 174.505 37.3357C174.505 37.3357 174.502 35.3487 174.495 33.5636Z" fill="#EBF3FF"/>
<path fill-rule="evenodd" clip-rule="evenodd" d="M137.518 232.745C137.518 231.47 136.483 230.435 135.208 230.435H51.6814C50.4063 230.435 49.371 231.47 49.371 232.745V248.221C49.371 249.496 50.4063 250.531 51.6814 250.531H135.208C136.483 250.531 137.518 249.496 137.518 248.221V232.745Z" fill="white"/>
<path fill-rule="evenodd" clip-rule="evenodd" d="M125.062 238.992C125.062 238.785 124.98 238.587 124.834 238.441C124.688 238.294 124.489 238.212 124.282 238.212H76.9538C76.7468 238.212 76.5484 238.294 76.4021 238.441C76.2558 238.587 76.1735 238.785 76.1734 238.992C76.1735 239.199 76.2558 239.398 76.4021 239.544C76.5484 239.69 76.7468 239.772 76.9538 239.773H124.282C124.489 239.772 124.687 239.69 124.834 239.544C124.98 239.398 125.062 239.199 125.062 238.992ZM111.998 244.103C111.998 243.896 111.916 243.697 111.769 243.551C111.623 243.405 111.425 243.322 111.218 243.322H76.9532C76.7463 243.322 76.5479 243.405 76.4015 243.551C76.2552 243.697 76.173 243.896 76.1729 244.103C76.173 244.31 76.2552 244.508 76.4015 244.654C76.5479 244.801 76.7463 244.883 76.9532 244.883H111.218C111.425 244.883 111.623 244.801 111.769 244.654C111.916 244.508 111.998 244.31 111.998 244.103Z" fill="#C3D9FA"/>
<path d="M66.8958 245.698C69.7773 245.698 72.1132 243.363 72.1132 240.481C72.1132 237.6 69.7773 235.264 66.8958 235.264C64.0144 235.264 61.6785 237.6 61.6785 240.481C61.6785 243.363 64.0144 245.698 66.8958 245.698Z" fill="#DC3545"/>
<path fill-rule="evenodd" clip-rule="evenodd" d="M64.1576 239.899C64.4525 239.65 64.8974 239.687 65.1463 239.982L66.3239 241.378L68.6014 238.032C68.8186 237.713 69.2572 237.629 69.5763 237.846C69.8953 238.063 69.9787 238.502 69.7615 238.821L66.9654 242.93C66.9048 243.018 66.8245 243.092 66.7309 243.145C66.6372 243.198 66.5327 243.228 66.4253 243.234L66.3882 243.236L66.3635 243.235C66.2646 243.233 66.1673 243.21 66.0781 243.167C65.9889 243.124 65.9097 243.063 65.8458 242.987L64.0738 240.887C63.8249 240.592 63.8626 240.148 64.1576 239.899Z" fill="white"/>
<path fill-rule="evenodd" clip-rule="evenodd" d="M202.172 57.5905C202.172 54.5886 199.734 52.1514 196.733 52.1514H58.0585C55.0566 52.1514 52.6195 54.5886 52.6195 57.5905V101.459C52.6195 104.46 55.0566 106.898 58.0585 106.898H196.733C199.734 106.898 202.172 104.46 202.172 101.459V57.5905Z" fill="#CDE4FF"/>
<path fill-rule="evenodd" clip-rule="evenodd" d="M201.201 56.2886C201.201 53.2867 198.764 50.8496 195.762 50.8496H57.0878C54.0859 50.8496 51.6488 53.2867 51.6488 56.2886V100.157C51.6488 103.159 54.0859 105.596 57.0878 105.596H195.762C198.764 105.596 201.201 103.159 201.201 100.157V56.2886Z" fill="white"/>
<path fill-rule="evenodd" clip-rule="evenodd" d="M190.951 64.3733C190.951 63.2483 190.347 62.335 189.603 62.335H107.795C107.05 62.335 106.446 63.2483 106.446 64.3733C106.446 65.4983 107.05 66.4116 107.795 66.4116H189.603C190.347 66.4116 190.951 65.4983 190.951 64.3733ZM168.37 75.2786C168.37 74.1536 167.766 73.2402 167.021 73.2402H107.795C107.05 73.2402 106.446 74.1536 106.446 75.2786C106.446 76.4035 107.05 77.3169 107.795 77.3169H167.021C167.766 77.3169 168.37 76.4035 168.37 75.2786Z" fill="#C3D9FA"/>
<path fill-rule="evenodd" clip-rule="evenodd" d="M111.427 84.1455H157.692C160.432 84.1455 162.674 86.3873 162.674 89.1276C162.674 91.8679 160.432 94.1098 157.692 94.1098H111.427C108.687 94.1098 106.445 91.8679 106.445 89.1276C106.445 86.3873 108.687 84.1455 111.427 84.1455Z" fill="#CDE4FF"/>
<path fill-rule="evenodd" clip-rule="evenodd" d="M118.145 88.3808C118.226 88.7992 117.006 89.4205 116.81 90.1972C116.638 90.8827 117.222 92.0633 116.875 92.3099C116.455 92.6079 115.693 91.6178 114.76 91.6046C113.995 91.5939 113.024 92.6053 112.654 92.3466C112.28 92.0853 112.927 91.1088 112.629 90.0177C112.495 89.5261 111.357 88.8571 111.366 88.3615C111.376 87.8465 112.864 88.0653 113.425 87.6934C114.247 87.1488 114.167 85.8997 114.808 85.8674C115.184 85.8483 115.342 87.0655 116.054 87.6455C116.801 88.2551 118.046 87.8693 118.145 88.3808ZM128.046 88.3808C128.127 88.7992 126.907 89.4205 126.712 90.1972C126.539 90.8827 127.124 92.0633 126.776 92.3099C126.356 92.6079 125.594 91.6178 124.661 91.6046C123.896 91.5939 122.925 92.6053 122.555 92.3466C122.182 92.0853 122.828 91.1088 122.53 90.0177C122.396 89.5261 121.259 88.8571 121.268 88.3615C121.277 87.8465 122.765 88.0653 123.326 87.6934C124.148 87.1488 124.069 85.8997 124.709 85.8674C125.085 85.8483 125.243 87.0655 125.955 87.6455C126.702 88.2551 127.947 87.8693 128.046 88.3808ZM137.948 88.3808C138.029 88.7992 136.808 89.4205 136.613 90.1972C136.441 90.8827 137.025 92.0633 136.677 92.3099C136.257 92.6079 135.495 91.6178 134.562 91.6046C133.797 91.5939 132.826 92.6053 132.457 92.3466C132.083 92.0853 132.73 91.1088 132.431 90.0177C132.297 89.5261 131.16 88.8571 131.169 88.3615C131.178 87.8465 132.666 88.0653 133.228 87.6934C134.049 87.1488 133.97 85.8997 134.61 85.8674C134.986 85.8483 135.144 87.0655 135.856 87.6455C136.604 88.2551 137.849 87.8693 137.948 88.3808ZM157.75 88.3808C157.831 88.7992 156.611 89.4205 156.416 90.1972C156.244 90.8827 156.828 92.0633 156.48 92.3099C156.06 92.6079 155.298 91.6178 154.365 91.6046C153.6 91.5939 152.629 92.6053 152.259 92.3466C151.885 92.0853 152.532 91.1088 152.234 90.0177C152.1 89.5261 150.962 88.8571 150.971 88.3615C150.981 87.8465 152.469 88.0653 153.03 87.6934C153.852 87.1488 153.772 85.8997 154.413 85.8674C154.789 85.8483 154.947 87.0655 155.659 87.6455C156.407 88.2551 157.651 87.8693 157.75 88.3808ZM147.849 88.3808C147.93 88.7992 146.71 89.4205 146.515 90.1972C146.342 90.8827 146.926 92.0633 146.579 92.3099C146.159 92.6079 145.397 91.6178 144.463 91.6046C143.699 91.5939 142.728 92.6053 142.358 92.3466C141.984 92.0853 142.631 91.1088 142.333 90.0177C142.198 89.5261 141.061 88.8571 141.07 88.3615C141.08 87.8465 142.568 88.0653 143.129 87.6934C143.95 87.1488 143.871 85.8997 144.511 85.8674C144.888 85.8483 145.046 87.0655 145.757 87.6455C146.505 88.2551 147.75 87.8693 147.849 88.3808Z" fill="#567DFF"/>
<path fill-rule="evenodd" clip-rule="evenodd" d="M147.241 88.5142C147.307 88.8576 146.306 89.3674 146.145 90.005C146.004 90.5673 146.484 91.536 146.198 91.7384C145.854 91.983 145.229 91.1706 144.463 91.1597H144.456V86.4573C144.471 86.4547 144.487 86.453 144.502 86.4523C144.811 86.4367 144.941 87.4354 145.524 87.9113C146.138 88.4114 147.159 88.0947 147.241 88.5142ZM157.014 88.5426C157.077 88.87 156.122 89.3565 155.969 89.9646C155.834 90.501 156.292 91.4251 156.02 91.6182C155.691 91.8515 155.095 91.0764 154.364 91.0663C153.765 91.0581 153.005 91.8498 152.716 91.6472C152.423 91.4426 152.93 90.6785 152.696 89.8242C152.591 89.4393 151.701 88.9157 151.708 88.5276C151.715 88.1247 152.88 88.2959 153.319 88.0049C153.962 87.5786 153.901 86.6008 154.402 86.5756C154.696 86.5605 154.82 87.5135 155.377 87.9675C155.962 88.4443 156.936 88.1421 157.014 88.5426Z" fill="#EBF3FF"/>
<path d="M82.2327 98.5573C93.4631 98.5573 102.567 89.4533 102.567 78.223C102.567 66.9927 93.4631 57.8887 82.2327 57.8887C71.0024 57.8887 61.8984 66.9927 61.8984 78.223C61.8984 89.4533 71.0024 98.5573 82.2327 98.5573Z" fill="#CDE4FF"/>
<path fill-rule="evenodd" clip-rule="evenodd" d="M82.2328 95.3897C82.2328 95.3897 70.7822 79.4535 70.7822 72.6237C70.7822 66.2391 75.9131 61.0557 82.2328 61.0557C88.5526 61.0557 93.6833 66.2391 93.6833 72.6237C93.6833 79.4535 82.2328 95.3897 82.2328 95.3897ZM82.2328 67.742C84.7784 67.742 86.8451 69.8299 86.8451 72.4016C86.8451 74.9733 84.7784 77.0612 82.2328 77.0612C79.6872 77.0612 77.6205 74.9733 77.6205 72.4016C77.6205 69.8299 79.6872 67.742 82.2328 67.742Z" fill="#DC3545"/>
<path fill-rule="evenodd" clip-rule="evenodd" d="M266.871 118.578C266.871 115.576 264.434 113.139 261.432 113.139H122.758C119.756 113.139 117.319 115.576 117.319 118.578V162.446C117.319 165.448 119.756 167.885 122.758 167.885H261.432C264.434 167.885 266.871 165.448 266.871 162.446V118.578Z" fill="#CDE4FF"/>
<path fill-rule="evenodd" clip-rule="evenodd" d="M265.698 117.298C265.698 114.297 263.261 111.859 260.259 111.859H121.585C118.583 111.859 116.146 114.297 116.146 117.298V161.167C116.146 164.168 118.583 166.606 121.585 166.606H260.259C263.261 166.606 265.698 164.168 265.698 161.167V117.298Z" fill="white"/>
<path fill-rule="evenodd" clip-rule="evenodd" d="M260.541 125.832C260.541 124.486 259.952 123.393 259.227 123.393H179.525C178.8 123.393 178.211 124.486 178.211 125.832C178.211 127.179 178.8 128.272 179.525 128.272H259.227C259.952 128.272 260.541 127.179 260.541 125.832ZM238.541 138.884C238.541 137.537 237.952 136.444 237.227 136.444H179.525C178.8 136.444 178.211 137.537 178.211 138.884C178.211 140.23 178.8 141.324 179.525 141.324H237.227C237.952 141.324 238.541 140.23 238.541 138.884ZM238.541 151.255C238.541 149.909 237.952 148.815 237.227 148.815H179.525C178.8 148.815 178.211 149.909 178.211 151.255C178.211 152.602 178.8 153.695 179.525 153.695H237.227C237.952 153.695 238.541 152.602 238.541 151.255Z" fill="#C3D9FA"/>
<path fill-rule="evenodd" clip-rule="evenodd" d="M176.654 182.082C176.654 180.07 175.02 178.437 173.008 178.437H80.0546C78.0424 178.437 76.4088 180.07 76.4088 182.082V211.487C76.4088 213.5 78.0424 215.133 80.0546 215.133H173.008C175.02 215.133 176.654 213.5 176.654 211.487V182.082Z" fill="#CDE4FF"/>
<path fill-rule="evenodd" clip-rule="evenodd" d="M175.867 181.225C175.867 179.213 174.233 177.579 172.221 177.579H79.2675C77.2553 177.579 75.6217 179.213 75.6217 181.225V210.63C75.6217 212.642 77.2553 214.276 79.2675 214.276H172.221C174.233 214.276 175.867 212.642 175.867 210.63V181.225Z" fill="white"/>
<path fill-rule="evenodd" clip-rule="evenodd" d="M168.997 192.366C168.997 191.612 168.592 191 168.093 191H113.257C112.758 191 112.353 191.612 112.353 192.366C112.353 193.12 112.758 193.733 113.257 193.733H168.093C168.592 193.733 168.997 193.12 168.997 192.366ZM153.86 201.314C153.86 200.559 153.455 199.947 152.956 199.947H113.256C112.757 199.947 112.352 200.559 112.352 201.314C112.352 202.068 112.757 202.68 113.256 202.68H152.956C153.455 202.68 153.86 202.068 153.86 201.314Z" fill="#C3D9FA"/>
<path d="M75.4008 155.281C82.3726 155.281 88.0244 149.63 88.0244 142.658C88.0244 135.686 82.3726 130.034 75.4008 130.034C68.429 130.034 62.7772 135.686 62.7772 142.658C62.7772 149.63 68.429 155.281 75.4008 155.281Z" fill="#DC3545"/>
<path fill-rule="evenodd" clip-rule="evenodd" d="M68.7755 141.25C69.4891 140.648 70.5656 140.739 71.1677 141.453L74.0171 144.83L79.5276 136.733C80.0528 135.961 81.1143 135.76 81.8861 136.285L81.8862 136.285C82.6579 136.81 82.8598 137.871 82.3343 138.643L75.569 148.583C75.2618 149.035 74.7713 149.291 74.2623 149.321L74.1725 149.324L74.1127 149.323C73.6446 149.31 73.1837 149.107 72.8603 148.723L68.5727 143.642C67.9707 142.928 68.0618 141.852 68.7755 141.25Z" fill="white"/>
<path d="M254.321 105.17C263.328 105.17 270.629 97.8689 270.629 88.8624C270.629 79.8559 263.328 72.5547 254.321 72.5547C245.315 72.5547 238.013 79.8559 238.013 88.8624C238.013 97.8689 245.315 105.17 254.321 105.17Z" fill="#DC3545"/>
<path fill-rule="evenodd" clip-rule="evenodd" d="M245.763 87.0442C246.685 86.2663 248.076 86.3841 248.854 87.3059L252.534 91.6686L259.653 81.209C260.332 80.2117 261.703 79.9514 262.7 80.6298L262.7 80.6299C263.697 81.3085 263.958 82.6795 263.279 83.6767L254.54 96.5178C254.142 97.1009 253.509 97.4319 252.851 97.4705L252.735 97.4744L252.658 97.4736C252.053 97.4567 251.458 97.1938 251.04 96.6984L245.501 90.1341C244.724 89.2126 244.841 87.822 245.763 87.0442Z" fill="white"/>
<path fill-rule="evenodd" clip-rule="evenodd" d="M251.806 31.6343C251.806 30.6083 250.973 29.7754 249.947 29.7754H226.449C225.423 29.7754 224.59 30.6083 224.59 31.6343V44.2547C224.59 45.2807 226.437 42.5806 227.463 42.5806H249.947C250.973 42.5806 251.806 41.7477 251.806 40.7216V31.6343Z" fill="#EBF3FF"/>
<path fill-rule="evenodd" clip-rule="evenodd" d="M231.598 34.7129C232.385 34.7129 233.025 35.3523 233.025 36.1399C233.025 36.9275 232.385 37.5669 231.598 37.5669C230.81 37.5669 230.171 36.9275 230.171 36.1399C230.171 35.3523 230.81 34.7129 231.598 34.7129ZM238.198 34.7129C238.986 34.7129 239.625 35.3523 239.625 36.1399C239.625 36.9275 238.986 37.5669 238.198 37.5669C237.411 37.5669 236.771 36.9275 236.771 36.1399C236.771 35.3523 237.411 34.7129 238.198 34.7129ZM244.799 34.7129C245.586 34.7129 246.226 35.3523 246.226 36.1399C246.226 36.9275 245.586 37.5669 244.799 37.5669C244.011 37.5669 243.372 36.9275 243.372 36.1399C243.372 35.3523 244.011 34.7129 244.799 34.7129ZM162.248 115.742C162.609 115.749 162.969 115.768 163.328 115.808C164.156 115.899 164.971 116.084 165.758 116.36C167.281 116.896 168.669 117.772 169.789 118.899C170.821 119.938 171.621 121.185 172.118 122.539C172.381 123.254 172.559 123.997 172.65 124.753C172.691 125.097 172.711 125.443 172.718 125.789C172.778 134.698 172.778 143.607 172.718 152.516C172.711 152.863 172.691 153.208 172.65 153.552C172.559 154.308 172.381 155.051 172.118 155.766C171.621 157.12 170.821 158.368 169.789 159.407C168.669 160.533 167.281 161.41 165.758 161.945C164.971 162.221 164.156 162.407 163.328 162.497C162.969 162.537 162.609 162.556 162.248 162.563C152.965 162.619 143.68 162.619 134.396 162.563C134.035 162.556 133.676 162.537 133.317 162.497C132.489 162.407 131.673 162.221 130.887 161.945C129.523 161.466 128.267 160.714 127.216 159.752C126.01 158.648 125.081 157.274 124.526 155.766C124.264 155.051 124.086 154.308 123.995 153.552C123.954 153.208 123.934 152.863 123.927 152.516C123.866 143.607 123.866 134.698 123.927 125.789C123.934 125.443 123.954 125.097 123.995 124.753C124.086 123.997 124.264 123.254 124.526 122.539C125.081 121.031 126.01 119.657 127.216 118.554C128.267 117.592 129.523 116.84 130.887 116.36C131.673 116.084 132.489 115.899 133.317 115.808C133.676 115.768 134.035 115.749 134.396 115.742C143.68 115.686 152.965 115.686 162.248 115.742ZM170.621 129.992H126.024C125.989 137.491 125.997 144.991 126.048 152.49C126.054 152.802 126.075 153.113 126.116 153.423C126.191 153.99 126.329 154.55 126.527 155.09C126.971 156.296 127.715 157.396 128.68 158.278C129.521 159.048 130.526 159.65 131.617 160.034C132.245 160.254 132.897 160.402 133.558 160.475C133.846 160.506 134.134 160.522 134.423 160.527C143.689 160.583 152.956 160.583 162.222 160.527C162.511 160.523 162.799 160.505 163.087 160.475C163.748 160.402 164.4 160.254 165.028 160.034C166.247 159.605 167.357 158.903 168.253 158.002C169.079 157.17 169.72 156.173 170.118 155.09C170.327 154.518 170.47 153.925 170.542 153.321C170.575 153.045 170.591 152.768 170.597 152.49C170.648 144.991 170.655 137.491 170.621 129.992ZM131.351 151.367C132.522 151.367 133.472 152.279 133.472 153.403C133.472 154.526 132.522 155.439 131.351 155.439C130.18 155.439 129.23 154.526 129.23 153.403C129.23 152.279 130.18 151.367 131.351 151.367ZM156.808 151.367C157.979 151.367 158.93 152.279 158.93 153.403C158.93 154.526 157.979 155.439 156.808 155.439C155.637 155.439 154.687 154.526 154.687 153.403C154.687 152.279 155.637 151.367 156.808 151.367ZM139.837 151.367C141.008 151.367 141.958 152.279 141.958 153.403C141.958 154.526 141.008 155.439 139.837 155.439C138.666 155.439 137.715 154.526 137.715 153.403C137.715 152.279 138.666 151.367 139.837 151.367ZM165.294 151.367C166.465 151.367 167.415 152.279 167.415 153.403C167.415 154.526 166.465 155.439 165.294 155.439C164.123 155.439 163.172 154.526 163.172 153.403C163.172 152.279 164.123 151.367 165.294 151.367ZM148.322 151.367C149.493 151.367 150.444 152.279 150.444 153.403C150.444 154.526 149.493 155.439 148.322 155.439C147.152 155.439 146.201 154.526 146.201 153.403C146.201 152.279 147.152 151.367 148.322 151.367ZM156.808 141.188C159.15 141.188 161.051 143.013 161.051 145.26C161.051 147.507 159.15 149.331 156.808 149.331C154.466 149.331 152.565 147.507 152.565 145.26C152.565 143.013 154.466 141.188 156.808 141.188ZM139.837 143.224C141.008 143.224 141.958 144.136 141.958 145.26C141.958 146.383 141.008 147.296 139.837 147.296C138.666 147.296 137.715 146.383 137.715 145.26C137.715 144.136 138.666 143.224 139.837 143.224ZM165.294 143.224C166.465 143.224 167.415 144.136 167.415 145.26C167.415 146.383 166.465 147.296 165.294 147.296C164.123 147.296 163.172 146.383 163.172 145.26C163.172 144.136 164.123 143.224 165.294 143.224ZM131.351 143.224C132.522 143.224 133.472 144.136 133.472 145.26C133.472 146.383 132.522 147.296 131.351 147.296C130.18 147.296 129.23 146.383 129.23 145.26C129.23 144.136 130.18 143.224 131.351 143.224ZM148.322 143.224C149.493 143.224 150.444 144.136 150.444 145.26C150.444 146.383 149.493 147.296 148.322 147.296C147.152 147.296 146.201 146.383 146.201 145.26C146.201 144.136 147.152 143.224 148.322 143.224ZM139.837 135.081C141.008 135.081 141.958 135.993 141.958 137.117C141.958 138.24 141.008 139.153 139.837 139.153C138.666 139.153 137.715 138.24 137.715 137.117C137.715 135.993 138.666 135.081 139.837 135.081ZM165.294 135.081C166.465 135.081 167.415 135.993 167.415 137.117C167.415 138.24 166.465 139.153 165.294 139.153C164.123 139.153 163.172 138.24 163.172 137.117C163.172 135.993 164.123 135.081 165.294 135.081ZM156.808 135.081C157.979 135.081 158.93 135.993 158.93 137.117C158.93 138.24 157.979 139.153 156.808 139.153C155.637 139.153 154.687 138.24 154.687 137.117C154.687 135.993 155.637 135.081 156.808 135.081ZM131.351 135.081C132.522 135.081 133.472 135.993 133.472 137.117C133.472 138.24 132.522 139.153 131.351 139.153C130.18 139.153 129.23 138.24 129.23 137.117C129.23 135.993 130.18 135.081 131.351 135.081ZM148.322 135.081C149.493 135.081 150.444 135.993 150.444 137.117C150.444 138.24 149.493 139.153 148.322 139.153C147.152 139.153 146.201 138.24 146.201 137.117C146.201 135.993 147.152 135.081 148.322 135.081Z" fill="#DC3545"/>
<path d="M93.094 209.571C99.8176 209.571 105.268 204.12 105.268 197.397C105.268 190.673 99.8176 185.223 93.094 185.223C86.3704 185.223 80.9199 190.673 80.9199 197.397C80.9199 204.12 86.3704 209.571 93.094 209.571Z" fill="#DC3545"/>
<path fill-rule="evenodd" clip-rule="evenodd" d="M102.019 183.561L108.021 189.563L106.225 191.358L100.223 185.356L102.019 183.561ZM84.1692 183.561L78.167 189.563L79.9625 191.358L85.9648 185.356L84.1692 183.561Z" fill="#DC3545"/>
<path fill-rule="evenodd" clip-rule="evenodd" d="M98.1393 188.737C93.3598 185.978 87.2411 187.617 84.4816 192.397C81.7221 197.177 83.3616 203.295 88.1412 206.055C92.9208 208.814 99.0395 207.175 101.799 202.395C104.559 197.616 102.919 191.497 98.1393 188.737ZM97.7395 189.43C102.138 191.97 103.646 197.597 101.106 201.995C98.5668 206.394 92.9398 207.902 88.5412 205.362C84.1425 202.823 82.6347 197.196 85.1743 192.797C87.7138 188.398 93.3408 186.891 97.7395 189.43ZM88.4378 195.143L92.9405 197.743L96.7398 191.162L97.4324 191.562L93.2331 198.835L88.0379 195.836L88.4378 195.143Z" fill="white"/>
<path fill-rule="evenodd" clip-rule="evenodd" d="M262.886 250.131C282.031 291.537 220.12 309.514 207.045 269.066C194.011 228.743 192.837 221.679 192.837 221.679C185.133 211.532 174.943 204.83 170.472 198.99C158.269 183.052 166.761 183.989 173.407 187.037C176.179 188.307 185.69 197.892 186.976 191.89C178.979 176.08 164.154 150.709 166.851 146.878C168.941 143.91 175.485 144.51 187.385 167.147C186.436 162.51 192.998 158.613 198.741 163.796C199.649 163.774 204.025 156.348 213.627 166.983C217.601 164.134 221.875 165.832 237.705 202.397C239.598 206.771 262.886 250.131 262.886 250.131Z" fill="#FFC5A8"/>
<path fill-rule="evenodd" clip-rule="evenodd" d="M194.297 177.347C192.861 173.693 190.859 170.435 188.108 166.881C187.971 166.707 187.77 166.594 187.55 166.567C187.33 166.54 187.108 166.601 186.933 166.737C186.757 166.872 186.643 167.072 186.613 167.292C186.584 167.511 186.643 167.734 186.777 167.911C189.42 171.326 191.351 174.452 192.73 177.963C192.77 178.065 192.831 178.159 192.907 178.239C192.984 178.318 193.076 178.382 193.177 178.426C193.278 178.47 193.387 178.494 193.498 178.496C193.608 178.498 193.718 178.479 193.821 178.438C194.029 178.357 194.195 178.196 194.285 177.991C194.374 177.787 194.378 177.555 194.297 177.347ZM206.862 175.819C205.738 173.22 203.466 168.895 201.681 166.12C200.858 164.84 200.113 163.879 199.621 163.49C199.446 163.355 199.224 163.295 199.005 163.322C198.785 163.349 198.585 163.461 198.448 163.635C198.311 163.808 198.247 164.029 198.271 164.249C198.296 164.469 198.405 164.67 198.577 164.81C198.988 165.135 199.578 165.961 200.266 167.03C202.006 169.736 204.221 173.953 205.317 176.487C205.407 176.689 205.573 176.848 205.78 176.929C205.987 177.01 206.217 177.005 206.42 176.917C206.624 176.829 206.784 176.665 206.867 176.459C206.95 176.253 206.948 176.023 206.862 175.819ZM219.517 177.038C218.854 174.293 216.796 169.687 214.42 166.659C214.352 166.572 214.267 166.499 214.171 166.445C214.075 166.391 213.969 166.356 213.859 166.343C213.749 166.329 213.638 166.338 213.532 166.368C213.425 166.397 213.326 166.448 213.239 166.516C213.152 166.584 213.079 166.669 213.025 166.765C212.971 166.862 212.936 166.968 212.923 167.077C212.909 167.187 212.918 167.298 212.948 167.405C212.977 167.511 213.028 167.611 213.096 167.698C215.325 170.539 217.259 174.858 217.881 177.433C217.935 177.649 218.072 177.834 218.262 177.949C218.451 178.063 218.679 178.099 218.895 178.046C219.11 177.994 219.297 177.859 219.413 177.67C219.53 177.481 219.567 177.254 219.517 177.038Z" fill="black"/>
</g>
<defs>
<clipPath id="clip0_2_9890">
<rect width="320" height="320" fill="white"/>
</clipPath>
</defs>
</svg>
