<svg width="35" height="35" viewBox="0 0 35 35" fill="none" xmlns="http://www.w3.org/2000/svg">
<g clip-path="url(#clip0_2_11583)">
<path d="M17.5 35C27.165 35 35 27.165 35 17.5C35 7.83502 27.165 0 17.5 0C7.83502 0 0 7.83502 0 17.5C0 27.165 7.83502 35 17.5 35Z" fill="#F0F0F0"/>
<path d="M35 17.5004C35 9.976 30.2509 3.56149 23.5869 1.08887V33.912C30.2509 31.4393 35 25.0248 35 17.5004Z" fill="#D80027"/>
<path d="M0 17.5004C0 25.0248 4.74906 31.4393 11.4131 33.9119V1.08887C4.74906 3.56149 0 9.976 0 17.5004Z" fill="#6DA544"/>
</g>
<defs>
<clipPath id="clip0_2_11583">
<rect width="35" height="35" fill="white"/>
</clipPath>
</defs>
</svg>
