<svg width="35" height="35" viewBox="0 0 35 35" fill="none" xmlns="http://www.w3.org/2000/svg">
<g clip-path="url(#clip0_2_11586)">
<path d="M17.5 35C27.165 35 35 27.165 35 17.5C35 7.83502 27.165 0 17.5 0C7.83502 0 0 7.83502 0 17.5C0 27.165 7.83502 35 17.5 35Z" fill="#F0F0F0"/>
<path d="M23.5869 17.5C23.5869 19.0218 20.8617 22.8261 17.5 22.8261C14.1383 22.8261 11.4131 19.0218 11.4131 17.5C11.4131 14.1382 14.1383 11.4131 17.5 11.4131C20.8617 11.4131 23.5869 14.1382 23.5869 17.5Z" fill="#D80027"/>
<path d="M23.5869 17.5C23.5869 20.8618 20.8617 23.5869 17.5 23.5869C14.1383 23.5869 11.4131 20.8618 11.4131 17.5" fill="#0052B4"/>
<path d="M23.9512 22.8809L25.565 21.2671L26.6408 22.3429L25.027 23.9567L23.9512 22.8809Z" fill="black"/>
<path d="M21.2607 25.5703L22.8745 23.9565L23.9504 25.0324L22.3366 26.6462L21.2607 25.5703Z" fill="black"/>
<path d="M27.1797 26.1074L28.7935 24.4936L29.8694 25.5695L28.2556 27.1833L27.1797 26.1074Z" fill="black"/>
<path d="M24.4893 28.7979L26.103 27.1841L27.1789 28.2599L25.5651 29.8737L24.4893 28.7979Z" fill="black"/>
<path d="M25.5654 24.4941L27.1792 22.8804L28.2551 23.9562L26.6413 25.57L25.5654 24.4941Z" fill="black"/>
<path d="M22.876 27.1836L24.4898 25.5698L25.5656 26.6457L23.9519 28.2595L22.876 27.1836Z" fill="black"/>
<path d="M27.1865 12.1221L22.8831 7.81862L23.9589 6.74274L28.2624 11.0462L27.1865 12.1221Z" fill="black"/>
<path d="M22.8818 11.0469L21.268 9.43309L22.3439 8.35726L23.9577 9.97105L22.8818 11.0469Z" fill="black"/>
<path d="M25.5713 13.7373L23.9575 12.1235L25.0333 11.0477L26.6471 12.6615L25.5713 13.7373Z" fill="black"/>
<path d="M26.1094 7.81934L24.4956 6.20555L25.5715 5.12967L27.1853 6.74346L26.1094 7.81934Z" fill="black"/>
<path d="M28.8008 10.5098L27.187 8.89598L28.2629 7.8201L29.8767 9.43389L28.8008 10.5098Z" fill="black"/>
<path d="M6.2041 24.4912L10.5076 28.7947L9.43168 29.8705L5.12822 25.5671L6.2041 24.4912Z" fill="black"/>
<path d="M10.5068 25.5664L12.1206 27.1802L11.0448 28.256L9.43101 26.6422L10.5068 25.5664Z" fill="black"/>
<path d="M7.81738 22.877L9.43117 24.4907L8.3553 25.5666L6.74151 23.9528L7.81738 22.877Z" fill="black"/>
<path d="M9.43164 21.2627L13.7351 25.5662L12.6592 26.642L8.35577 22.3386L9.43164 21.2627Z" fill="black"/>
<path d="M10.5068 6.20215L6.20338 10.5056L5.1275 9.42973L9.43096 5.12627L10.5068 6.20215Z" fill="black"/>
<path d="M12.1211 7.81543L7.81764 12.1189L6.74176 11.043L11.0452 6.73955L12.1211 7.81543Z" fill="black"/>
<path d="M13.7363 9.43066L9.43287 13.7341L8.35705 12.6583L12.6605 8.35484L13.7363 9.43066Z" fill="black"/>
</g>
<defs>
<clipPath id="clip0_2_11586">
<rect width="35" height="35" fill="white"/>
</clipPath>
</defs>
</svg>
