<svg width="150" height="150" viewBox="0 0 150 150" fill="none" xmlns="http://www.w3.org/2000/svg">
<path opacity="0.5" d="M74.9978 146.113C114.271 146.113 146.109 114.275 146.109 75.0017C146.109 35.7282 114.271 3.89062 74.9978 3.89062C35.7242 3.89062 3.88672 35.7282 3.88672 75.0017C3.88672 114.275 35.7242 146.113 74.9978 146.113Z" fill="#CCD2D6"/>
<path d="M14.3706 133.928C16.1869 133.929 17.6584 135.427 17.6573 137.243C17.6562 139.059 16.1827 140.531 14.3664 140.53C12.5503 140.529 11.0541 139.055 11.0552 137.239C11.0564 135.423 12.5544 133.927 14.3706 133.928ZM10.4851 126.827C11.6412 126.827 12.5778 127.781 12.5771 128.937C12.5763 130.093 11.6385 131.029 10.4825 131.029C9.32655 131.028 8.37428 130.09 8.375 128.934C8.37572 127.778 9.32918 126.826 10.4851 126.827ZM141.203 20.6419C143.02 20.643 144.491 22.141 144.49 23.9572C144.489 25.7733 143.016 27.2451 141.199 27.2439C139.383 27.2428 137.887 25.7692 137.888 23.953C137.889 22.1369 139.387 20.6407 141.203 20.6419ZM15.7286 15.5005C14.0597 14.7838 12.1159 15.5783 11.3993 17.2471C10.6826 18.9158 11.4545 20.8501 13.1234 21.5668C14.7922 22.2835 16.7489 21.5211 17.4656 19.8523C18.1823 18.1835 17.3974 16.2172 15.7286 15.5005ZM22.104 10.5128C21.0418 10.0567 19.8047 10.5624 19.3485 11.6245C18.8924 12.6866 19.3837 13.9177 20.4459 14.3739C21.508 14.83 22.7534 14.3448 23.2096 13.2827C23.6657 12.2205 23.1662 10.969 22.104 10.5128Z" fill="#D6DCE8"/>
<path d="M134.388 37.6253V113.298C134.388 123.215 126.32 131.283 116.415 131.283H30.7447C20.8392 131.283 12.7715 123.215 12.7715 113.298V37.6253C12.7715 27.7087 20.8392 19.6523 30.7447 19.6523H116.415C126.32 19.6523 134.388 27.7087 134.388 37.6253Z" fill="#F1F3F9"/>
<path d="M119.338 67.2288V110.795C119.338 113.95 116.781 116.508 113.625 116.508H33.5335C30.3782 116.508 27.8203 113.95 27.8203 110.795V67.2288C27.8203 64.0735 30.3782 61.5156 33.5335 61.5156H113.625C116.781 61.5156 119.338 64.0735 119.338 67.2288Z" fill="#CCD2D6"/>
<path d="M134.388 37.6249V51.1021H12.7715V37.6249C12.7715 27.7083 20.8392 19.6406 30.7447 19.6406H116.415C126.32 19.6406 134.388 27.7083 134.388 37.6249Z" fill="#D9DDDF"/>
<path d="M50.9626 14.9823V28.7685C50.9626 32.4154 48.0062 35.3718 44.3592 35.3718C40.7123 35.3718 37.7559 32.4154 37.7559 28.7685V14.9823C37.7559 11.3353 40.7123 8.37891 44.3592 8.37891C48.0062 8.37891 50.9626 11.3353 50.9626 14.9823Z" fill="#CCD2D6"/>
<path d="M109.404 14.9823V28.7685C109.404 32.4154 106.448 35.3718 102.801 35.3718C99.1537 35.3718 96.1973 32.4154 96.1973 28.7685V14.9823C96.1973 11.3353 99.1537 8.37891 102.801 8.37891C106.448 8.37891 109.404 11.3353 109.404 14.9823Z" fill="#CCD2D6"/>
<path d="M123.29 140.369C135.149 140.369 144.763 130.755 144.763 118.895C144.763 107.036 135.149 97.4219 123.29 97.4219C111.43 97.4219 101.816 107.036 101.816 118.895C101.816 130.755 111.43 140.369 123.29 140.369Z" fill="#D6DCE0"/>
<path d="M123.289 133.509C131.36 133.509 137.902 126.966 137.902 118.896C137.902 110.825 131.36 104.282 123.289 104.282C115.218 104.282 108.676 110.825 108.676 118.896C108.676 126.966 115.218 133.509 123.289 133.509Z" fill="#F9FAFD"/>
<path d="M129.643 125.236C128.799 126.08 127.44 126.08 126.596 125.237L123.605 122.245L120.614 125.236C119.77 126.08 118.411 126.08 117.567 125.237C116.724 124.393 116.718 123.028 117.561 122.184L120.553 119.193L117.567 116.207C116.724 115.364 116.718 113.999 117.561 113.155C118.4 112.316 119.774 112.31 120.62 113.155L123.605 116.141L126.591 113.155C127.434 112.312 128.805 112.312 129.649 113.155C130.497 114.004 130.483 115.367 129.643 116.207L126.657 119.193L129.649 122.184C130.492 123.028 130.486 124.393 129.643 125.236Z" fill="url(#paint0_linear_2_6707)"/>
<path d="M82.1635 103.439C82.1635 105.875 80.8637 108.139 78.6007 109.652C75.2629 111.864 70.5806 111.89 67.2035 109.652C64.9404 108.144 63.6406 105.875 63.6406 103.439C63.6406 101.752 64.2522 100.773 65.5724 100.371C66.4695 100.095 67.545 100.605 68.7938 101.196C72.3213 102.851 73.4582 102.862 77.0103 101.196C78.2591 100.605 79.3397 100.095 80.2317 100.371C81.5518 100.784 82.1635 101.757 82.1635 103.439Z" fill="url(#paint1_linear_2_6707)"/>
<path d="M77.3302 109.077C74.7574 110.78 71.1147 110.826 68.4727 109.077C70.9985 107.167 74.8032 107.167 77.3302 109.077Z" fill="url(#paint2_linear_2_6707)"/>
<path d="M62.0607 85.2132C62.0607 89.4314 58.6305 92.8732 54.4006 92.8732C50.1939 92.8732 46.7637 89.4314 46.7637 85.2132C46.7637 80.9948 50.1939 77.5762 54.4006 77.5762C58.6305 77.5762 62.0607 80.9948 62.0607 85.2132Z" fill="url(#paint3_linear_2_6707)"/>
<path d="M54.4002 93.9844C49.577 93.9844 45.6523 90.0499 45.6523 85.2132C45.6523 80.3895 49.577 76.4648 54.4002 76.4648C59.2374 76.4648 63.1719 80.3895 63.1719 85.2132C63.1719 90.0499 59.2374 93.9844 54.4002 93.9844ZM54.4002 78.6871C50.8021 78.6871 47.8746 81.6146 47.8746 85.2132C47.8746 88.8243 50.8021 91.7622 54.4002 91.7622C58.0113 91.7622 60.9497 88.8243 60.9497 85.2132C60.9497 81.6146 58.0113 78.6871 54.4002 78.6871Z" fill="#989FB0"/>
<path d="M58.8391 88.5142C58.8391 90.9688 56.8481 92.9475 54.4055 92.9475C51.9628 92.9475 49.9844 90.9688 49.9844 88.5142C49.9844 86.0715 51.9628 84.0928 54.4055 84.0928C56.8481 84.0928 58.8391 86.0715 58.8391 88.5142Z" fill="url(#paint4_linear_2_6707)"/>
<path d="M56.6398 91.0918C56.6398 92.1192 55.8065 92.9474 54.7841 92.9474C53.7617 92.9474 52.9336 92.1192 52.9336 91.0918C52.9336 90.0694 53.7617 89.2412 54.7841 89.2412C55.8065 89.2412 56.6398 90.0694 56.6398 91.0918Z" fill="white"/>
<path d="M99.0412 85.2132C99.0412 89.4314 95.5994 92.8732 91.3811 92.8732C87.1628 92.8732 83.7441 89.4314 83.7441 85.2132C83.7441 80.9948 87.1628 77.5762 91.3811 77.5762C95.5994 77.5762 99.0412 80.9948 99.0412 85.2132Z" fill="url(#paint5_linear_2_6707)"/>
<path d="M91.3798 93.9844C86.5556 93.9844 82.6309 90.0499 82.6309 85.2132C82.6309 80.3895 86.5556 76.4648 91.3798 76.4648C96.2159 76.4648 100.15 80.3895 100.15 85.2132C100.15 90.0499 96.2159 93.9844 91.3798 93.9844ZM91.3798 78.6871C87.7806 78.6871 84.8531 81.6146 84.8531 85.2132C84.8531 88.8243 87.7806 91.7622 91.3798 91.7622C94.9909 91.7622 97.9282 88.8243 97.9282 85.2132C97.9282 81.6146 94.9909 78.6871 91.3798 78.6871Z" fill="#989FB0"/>
<path d="M95.2082 88.5142C95.2082 90.9688 93.2173 92.9475 90.7746 92.9475C88.3319 92.9475 86.3535 90.9688 86.3535 88.5142C86.3535 86.0715 88.3319 84.0928 90.7746 84.0928C93.2173 84.0928 95.2082 86.0715 95.2082 88.5142Z" fill="url(#paint6_linear_2_6707)"/>
<path d="M92.6339 91.0918C92.6339 92.1192 91.8006 92.9474 90.7782 92.9474C89.7558 92.9474 88.9277 92.1192 88.9277 91.0918C88.9277 90.0694 89.7558 89.2412 90.7782 89.2412C91.8006 89.2412 92.6339 90.0694 92.6339 91.0918Z" fill="white"/>
<path d="M99.0161 72.7043C93.2956 69.7632 88.4779 69.7496 83.8512 72.6571C83.3314 72.9842 82.6435 72.8263 82.3191 72.3077C81.9925 71.7879 82.1487 71.1022 82.6685 70.7756C87.9571 67.4531 93.6363 67.439 100.032 70.7284C100.578 71.0089 100.792 71.6789 100.512 72.2247C100.232 72.7681 99.5641 72.9856 99.0161 72.7043Z" fill="#989FB0"/>
<path d="M61.7477 72.7043C56.0293 69.7643 51.2106 69.748 46.5816 72.6571C46.0586 72.9842 45.374 72.8269 45.0495 72.3071C44.7229 71.7879 44.8792 71.1022 45.3989 70.7756C50.6875 67.4531 56.3679 67.439 62.7633 70.7284C63.3091 71.0089 63.5239 71.6789 63.244 72.2247C62.9638 72.7681 62.2957 72.9856 61.7477 72.7043Z" fill="#989FB0"/>
<path d="M72.8971 95.9198C70.7509 95.9198 69.0039 94.1734 69.0039 92.0271C69.0039 91.4135 69.5009 90.916 70.115 90.916C70.7292 90.916 71.2261 91.4135 71.2261 92.0271C71.2261 92.9484 71.9759 93.6976 72.8971 93.6976C73.8216 93.6976 74.5747 92.9484 74.5747 92.0271C74.5747 91.4135 75.0716 90.916 75.6858 90.916C76.2999 90.916 76.7969 91.4135 76.7969 92.0271C76.7969 94.1734 75.0477 95.9198 72.8971 95.9198Z" fill="#989FB0"/>
<defs>
<linearGradient id="paint0_linear_2_6707" x1="116.932" y1="119.195" x2="130.279" y2="119.195" gradientUnits="userSpaceOnUse">
<stop stop-color="#989FB0"/>
<stop offset="1" stop-color="#AAB2C5"/>
</linearGradient>
<linearGradient id="paint1_linear_2_6707" x1="63.6401" y1="105.807" x2="82.1634" y2="105.807" gradientUnits="userSpaceOnUse">
<stop stop-color="#989FB0"/>
<stop offset="1" stop-color="#AAB2C5"/>
</linearGradient>
<linearGradient id="paint2_linear_2_6707" x1="68.4728" y1="109.008" x2="77.3306" y2="109.008" gradientUnits="userSpaceOnUse">
<stop stop-color="#D6DCE8"/>
<stop offset="0.503" stop-color="white"/>
</linearGradient>
<linearGradient id="paint3_linear_2_6707" x1="46.7635" y1="85.2242" x2="62.0602" y2="85.2242" gradientUnits="userSpaceOnUse">
<stop stop-color="#D6DCE8"/>
<stop offset="1" stop-color="#F1F3F9"/>
</linearGradient>
<linearGradient id="paint4_linear_2_6707" x1="49.9842" y1="88.5198" x2="58.8386" y2="88.5198" gradientUnits="userSpaceOnUse">
<stop stop-color="#989FB0"/>
<stop offset="1" stop-color="#AAB2C5"/>
</linearGradient>
<linearGradient id="paint5_linear_2_6707" x1="83.7445" y1="85.2242" x2="99.0411" y2="85.2242" gradientUnits="userSpaceOnUse">
<stop stop-color="#D6DCE8"/>
<stop offset="1" stop-color="#F1F3F9"/>
</linearGradient>
<linearGradient id="paint6_linear_2_6707" x1="86.3539" y1="88.5198" x2="95.2083" y2="88.5198" gradientUnits="userSpaceOnUse">
<stop stop-color="#989FB0"/>
<stop offset="1" stop-color="#AAB2C5"/>
</linearGradient>
</defs>
</svg>
