<svg width="314" height="314" viewBox="0 0 314 314" fill="none" xmlns="http://www.w3.org/2000/svg">
<path d="M90.5074 96.6085C80.7771 97.8475 70.9013 96.064 62.2191 91.4997C63.4155 85.4772 64.8881 79.3981 67.0893 73.6613C69.2904 67.9246 72.556 62.4798 77.2786 58.5548C82.0011 54.6298 88.3031 52.3659 94.3696 53.3298C97.4127 53.8478 100.276 55.1234 102.697 57.039C105.118 58.9547 107.017 61.4489 108.22 64.2916C109.614 67.6922 109.812 71.9438 107.432 74.7478" fill="#121212"/>
<path d="M70.9985 64.8599C75.3288 64.8599 78.8391 61.3495 78.8391 57.0193C78.8391 52.6891 75.3288 49.1787 70.9985 49.1787C66.6683 49.1787 63.158 52.6891 63.158 57.0193C63.158 61.3495 66.6683 64.8599 70.9985 64.8599Z" fill="#121212"/>
<path d="M84.1112 93.8486H96.4954V109.25H84.1112V93.8486Z" fill="#F7E2AB"/>
<path d="M72.556 168.684H108.129L105.363 142.352C105.363 142.352 108.672 134.034 108.129 129.937L115.037 128.395L113.376 116.72C112.915 113.479 111.321 110.506 108.878 108.327C106.436 106.148 103.3 104.903 100.028 104.814L96.8219 104.726L94.6647 106.946C93.6059 108.037 92.1646 108.674 90.6448 108.723C89.1251 108.771 87.646 108.228 86.5196 107.206L84.1112 105.024H79.8848C76.0988 105.024 72.4311 106.343 69.5125 108.754C66.5939 111.166 64.6067 114.519 63.8927 118.237L61.3807 131.312L74.1888 133.632L69.08 148.208L69.6578 161.293L72.556 168.684Z" fill="#567DFF"/>
<path d="M54.4005 265.163L59.0603 257.709L67.0704 263.609L61.6979 270.696L54.4005 265.163ZM109.369 275.535L99.7829 274.251L99.494 267.211H109.369V275.535Z" fill="#F7E2AB"/>
<path d="M107.74 168.684C107.74 168.684 112.399 182.481 113.392 197.886C114.384 213.29 110.619 268.331 110.619 268.331H97.9398L92.6018 188.758L91.5404 219.548C91.5122 223.366 90.1251 227.048 87.628 229.936L67.8774 265.352L56.3285 256.657L70.4334 218.544C71.3453 216.892 71.732 215.001 71.5418 213.124C70.7505 205.374 68.9324 183.495 71.8558 168.693" fill="#7B97F8"/>
<path d="M85.766 94.8C90.0898 98.2979 96.8219 98.8663 101.227 95.4656C104.386 93.029 105.997 88.9972 106.374 85.022C106.725 81.3168 106.141 77.5865 105.479 73.9472C104.961 71.1212 102.314 68.2952 99.987 66.7252C97.6603 65.1552 94.737 64.4362 92.0271 65.0987C88.9531 65.8523 86.5667 68.2387 84.5225 70.6565C81.5364 74.189 79.4986 78.315 79.8973 83.0281C80.2836 87.4995 82.2335 91.9426 85.766 94.8Z" fill="#F7E2AB"/>
<path d="M79.9256 79.8129C78.0855 79.2068 75.897 80.1269 74.9581 81.8193C74.5122 82.6834 74.3447 83.6642 74.4785 84.6273C74.6123 85.5903 75.0409 86.4884 75.7054 87.1981C76.3929 87.8852 77.2595 88.3655 78.2066 88.5842C79.1536 88.8029 80.1431 88.7513 81.0623 88.4353M61.723 131.277C60.3288 138.374 59.6883 140.324 59.4214 144.048C58.9127 151.154 60.4419 158.159 65.4251 173.705C65.9118 175.219 66.4393 175.162 66.4738 176.845C66.6026 183.106 71.1493 189.336 77.0682 191.38C78.23 191.782 79.5959 192.008 80.6258 191.352C81.8818 190.542 82.0514 188.812 81.9666 187.33C81.8284 184.915 80.6227 185.863 81.0246 182.287C81.1753 180.937 80.4437 178.161 79.6084 177.09C79.0213 176.336 78.1546 175.862 77.3885 175.291C75.5924 173.953 74.4337 171.934 73.7492 169.802C71.413 162.536 73.2374 158.812 70.1005 149.725C71.8558 144.855 73.1777 138.898 74.1197 133.808M125.007 117.75C126.366 116.13 127.519 114.475 127.814 112.378C128.032 110.819 128.556 109.318 129.356 107.962C130.156 106.606 131.215 105.42 132.473 104.474C132.828 104.214 133.29 103.959 133.686 104.16C134.153 104.39 134.163 105.055 134.028 105.561C133.893 106.066 133.541 106.817 133.814 107.266C135.306 107.128 136.719 105.2 137.846 104.214C138.973 103.228 140.157 102.349 141.589 102.779C141.862 102.675 142.161 102.661 142.442 102.737C142.724 102.813 142.975 102.976 143.159 103.203C143.514 103.658 143.724 104.264 143.385 104.735C143.916 105.564 144.013 106.889 143.344 107.599C144.949 109.429 142.628 114.001 139.978 116.567C137.865 118.614 133.036 118.67 131.648 121.277C128.577 127.026 124.74 132.232 121.154 137.68C120.023 139.398 118.793 141.048 117.471 142.622C116.673 143.564 115.778 144.531 114.591 144.886C113.476 145.216 112.268 144.952 111.2 144.494C108.979 143.523 107.202 141.757 106.217 139.542C106.119 139.319 107.63 136.691 107.787 136.223C108.153 134.989 108.351 133.711 108.377 132.424C108.393 131.849 108.223 131.13 108.324 130.571C108.518 129.516 108.255 129.905 109.379 129.576C110.807 129.155 112.359 129.042 113.806 128.634C114.144 128.563 114.464 128.425 114.748 128.229C115.433 127.676 116.026 126.659 116.745 126.031C117.737 125.139 118.727 124.244 119.697 123.327C121.573 121.572 123.346 119.71 125.007 117.75Z" fill="#F7E2AB"/>
<path d="M47.414 277.184L64.1377 288.092C64.3394 288.224 64.5713 288.303 64.8117 288.321C65.0521 288.339 65.2932 288.297 65.5126 288.197C65.732 288.097 65.9226 287.943 66.0665 287.749C66.2104 287.556 66.303 287.329 66.3357 287.09C66.5796 285.294 66.4001 283.466 65.8113 281.752L61.8989 270.401L54.724 264.674L48.2618 271.397C47.4455 272.247 46.826 273.266 46.4469 274.383C46.2762 274.891 46.2785 275.441 46.4535 275.948C46.6284 276.455 46.9662 276.889 47.414 277.184ZM100.364 288.733L120.328 288.924C120.569 288.926 120.806 288.868 121.018 288.754C121.23 288.64 121.41 288.474 121.541 288.272C121.672 288.07 121.75 287.838 121.767 287.598C121.785 287.358 121.741 287.118 121.641 286.899C120.88 285.249 119.742 283.801 118.318 282.672L109.369 275.262L99.783 274.251L97.968 283.391C97.7364 284.548 97.7632 285.741 98.0465 286.886C98.1738 287.407 98.4704 287.871 98.8898 288.205C99.3092 288.539 99.8277 288.725 100.364 288.733Z" fill="#302E2C"/>
<path d="M277.196 154.143H169.491C168.624 154.143 167.921 154.845 167.921 155.713V192.447C167.921 193.315 168.624 194.017 169.491 194.017H277.196C278.063 194.017 278.766 193.315 278.766 192.447V155.713C278.766 154.845 278.063 154.143 277.196 154.143Z" fill="#F6F6F6"/>
<path d="M168.235 185.803L156.51 174.078L168.235 162.351V185.803ZM176.154 288.714C177.794 283.825 179.712 279.034 181.897 274.364C183.294 271.384 184.846 268.398 187.235 266.128C189.625 263.857 193.035 262.438 196.244 263.176C199.541 263.936 202.1 266.793 205.441 267.33C208.706 267.855 211.947 265.98 214.139 263.506C216.33 261.031 217.743 257.979 219.477 255.169C221.21 252.359 223.468 249.646 226.573 248.509C230.259 247.159 234.533 248.358 237.616 250.792C240.7 253.225 242.76 256.73 244.349 260.325C248.091 268.781 249.599 279.51 248.679 288.714H176.154Z" fill="#F6F6F6"/>
<path d="M77.3634 79.8592C85.0658 78.9831 91.9016 73.3877 93.302 65.7637C93.5344 64.4889 93.5815 63.0257 92.718 62.0617C91.6127 60.8277 89.6314 61.0412 88.0645 61.575C85.3393 62.537 82.8866 64.1426 80.9147 66.2555C78.9429 68.3684 77.5103 70.926 76.7385 73.7111" fill="#121212"/>
<path d="M92.3788 59.7888C90.8088 62.4421 91.465 66.0091 93.3428 68.4615C95.2205 70.9138 98.0904 72.4116 101.004 73.4415C102.65 74.0255 104.587 74.4526 106.053 73.5012C107.699 72.4304 107.966 70.0974 107.592 68.1632C107.166 66.0901 106.223 64.1582 104.851 62.547C103.478 60.9359 101.721 59.6976 99.7421 58.9473" fill="#121212"/>
<path d="M94.1655 98.0716C91.0385 98.0685 88.006 96.9997 85.5681 95.0415C81.3637 91.644 78.8266 84.5194 79.5362 78.1075C79.5407 78.0662 79.5533 78.0263 79.5733 77.9899C79.5933 77.9536 79.6202 77.9215 79.6526 77.8956C79.685 77.8696 79.7221 77.8503 79.7619 77.8387C79.8018 77.8271 79.8435 77.8235 79.8847 77.828C79.926 77.8325 79.9659 77.8452 80.0023 77.8651C80.0386 77.8851 80.0707 77.912 80.0967 77.9444C80.1226 77.9768 80.1419 78.0139 80.1535 78.0538C80.1651 78.0936 80.1687 78.1353 80.1642 78.1766C79.4797 84.3906 81.9195 91.2798 85.9701 94.5548C90.3315 98.081 96.9601 98.373 101.042 95.2173C103.824 93.0696 105.655 89.3424 106.066 84.9935C106.44 81.034 105.721 77.043 105.027 73.1871C105.012 73.1038 105.03 73.018 105.079 72.9485C105.127 72.879 105.201 72.8316 105.284 72.8166C105.367 72.8016 105.453 72.8203 105.523 72.8686C105.592 72.9169 105.64 72.9908 105.655 73.0741C106.358 76.9739 107.083 81.0057 106.7 85.0532C106.27 89.5748 104.352 93.4621 101.431 95.7292C99.3344 97.2905 96.7796 98.1141 94.1655 98.0716Z" fill="#121212"/>
<path d="M94.8343 81.1251C95.3146 81.1251 95.704 80.5797 95.704 79.9068C95.704 79.2339 95.3146 78.6885 94.8343 78.6885C94.3539 78.6885 93.9645 79.2339 93.9645 79.9068C93.9645 80.5797 94.3539 81.1251 94.8343 81.1251Z" fill="#121212"/>
<path d="M103.064 81.1251C103.545 81.1251 103.934 80.5797 103.934 79.9068C103.934 79.2339 103.545 78.6885 103.064 78.6885C102.584 78.6885 102.194 79.2339 102.194 79.9068C102.194 80.5797 102.584 81.1251 103.064 81.1251Z" fill="#121212"/>
<path d="M99.0043 87.292H97.271C97.1877 87.292 97.1078 87.2589 97.049 87.2C96.9901 87.1411 96.957 87.0613 96.957 86.978C96.957 86.8947 96.9901 86.8148 97.049 86.756C97.1078 86.6971 97.1877 86.664 97.271 86.664H99.0043C99.1626 86.6633 99.319 86.6292 99.4633 86.5639C99.6075 86.4985 99.7363 86.4035 99.8413 86.2849C99.9462 86.1663 100.025 86.0269 100.072 85.8758C100.12 85.7247 100.134 85.5652 100.116 85.408L99.6574 81.6714C99.6522 81.6302 99.6553 81.5883 99.6663 81.5482C99.6773 81.5082 99.6961 81.4707 99.7216 81.4379C99.7471 81.4051 99.7788 81.3776 99.815 81.3571C99.8511 81.3365 99.8909 81.3233 99.9321 81.3181C99.9734 81.313 100.015 81.316 100.055 81.327C100.095 81.338 100.133 81.3568 100.166 81.3824C100.198 81.4079 100.226 81.4396 100.246 81.4757C100.267 81.5118 100.28 81.5517 100.285 81.5929L100.744 85.3326C100.773 85.5785 100.75 85.8277 100.676 86.0639C100.602 86.3001 100.479 86.518 100.314 86.7031C100.15 86.8883 99.9482 87.0365 99.7224 87.138C99.4966 87.2395 99.2518 87.2919 99.0043 87.292ZM101.293 77.3319C101.235 77.3321 101.177 77.3158 101.127 77.2848C101.092 77.263 101.061 77.2345 101.037 77.2009C101.013 77.1673 100.996 77.1293 100.987 77.089C100.977 77.0488 100.976 77.007 100.983 76.9663C100.99 76.9255 101.004 76.8865 101.026 76.8515C102.282 74.8387 104.506 75.2815 105.507 75.8059C105.581 75.8442 105.637 75.9104 105.663 75.9899C105.688 76.0694 105.681 76.1557 105.642 76.2298C105.604 76.3039 105.538 76.3597 105.458 76.3851C105.379 76.4104 105.292 76.4031 105.218 76.3648C105.121 76.3145 102.816 75.1653 101.56 77.1843C101.532 77.2296 101.493 77.2669 101.446 77.2927C101.399 77.3185 101.347 77.332 101.293 77.3319ZM91.44 77.3664C91.3596 77.367 91.282 77.3366 91.2233 77.2817C91.1649 77.2228 91.132 77.1432 91.132 77.0603C91.132 76.9773 91.1649 76.8978 91.2233 76.8389C93.9237 73.9941 96.6775 76.3365 96.7058 76.3616C96.7687 76.4166 96.8071 76.4943 96.8127 76.5776C96.8183 76.6609 96.7906 76.7431 96.7356 76.806C96.6807 76.8688 96.603 76.9073 96.5196 76.9129C96.4363 76.9185 96.3542 76.8907 96.2913 76.8358C96.194 76.7479 93.9551 74.8701 91.6786 77.2691C91.648 77.3013 91.6109 77.3266 91.5698 77.3434C91.5286 77.3602 91.4844 77.368 91.44 77.3664ZM79.4012 89.0253C78.6732 89.0318 77.9511 88.8927 77.2776 88.616C76.6041 88.3394 75.9927 87.9309 75.4794 87.4145C74.7691 86.6563 74.3113 85.6967 74.1691 84.6676C74.0268 83.6385 74.207 82.5906 74.685 81.6682C75.1738 80.8221 75.9146 80.1497 76.804 79.7449C77.6935 79.3402 78.6871 79.2233 79.6462 79.4106C79.7273 79.4286 79.798 79.4781 79.8427 79.5481C79.8874 79.6181 79.9026 79.7031 79.8848 79.7842C79.8759 79.8247 79.8591 79.8631 79.8353 79.897C79.8115 79.931 79.7812 79.9599 79.7461 79.9821C79.7111 80.0043 79.672 80.0193 79.6312 80.0263C79.5903 80.0333 79.5484 80.0321 79.508 80.0229C78.6817 79.8623 77.8258 79.9635 77.0597 80.3125C76.2937 80.6615 75.6556 81.2408 75.2345 81.9697C74.8228 82.7781 74.6692 83.6933 74.7944 84.5918C74.9197 85.4903 75.3177 86.3287 75.9347 86.9937C76.5812 87.6354 77.394 88.0839 78.2817 88.2886C79.1693 88.4933 80.0964 88.4461 80.9587 88.1523C81.037 88.1252 81.1228 88.1301 81.1975 88.166C81.2722 88.2018 81.3297 88.2658 81.3575 88.3439C81.3713 88.383 81.3773 88.4246 81.375 88.466C81.3727 88.5075 81.3621 88.5481 81.344 88.5855C81.3259 88.6229 81.3006 88.6563 81.2695 88.6838C81.2384 88.7113 81.2021 88.7324 81.1628 88.7458C80.5954 88.9371 79.9999 89.0316 79.4012 89.0253ZM107.74 168.998H73.9031C73.8198 168.998 73.74 168.965 73.6811 168.906C73.6222 168.847 73.5891 168.767 73.5891 168.684C73.5891 168.601 73.6222 168.521 73.6811 168.462C73.74 168.403 73.8198 168.37 73.9031 168.37H107.388L105.039 142.377C105.037 142.334 105.042 142.29 105.055 142.248L107.04 136.417C108.243 132.904 108.034 129.059 106.455 125.697L104.317 121.116C104.282 121.041 104.278 120.954 104.306 120.876C104.334 120.798 104.393 120.734 104.468 120.698C104.505 120.681 104.546 120.671 104.587 120.67C104.629 120.668 104.67 120.674 104.709 120.689C104.747 120.703 104.783 120.725 104.813 120.753C104.844 120.781 104.868 120.815 104.885 120.852L107.024 125.434C108.672 128.942 108.89 132.954 107.633 136.621L105.67 142.39L108.044 168.656C108.048 168.699 108.043 168.744 108.029 168.785C108.015 168.827 107.992 168.865 107.963 168.897C107.934 168.928 107.9 168.953 107.861 168.97C107.823 168.988 107.782 168.997 107.74 168.998ZM74.4181 133.959H74.3647L61.3148 131.626C61.2736 131.618 61.2342 131.603 61.1989 131.581C61.1635 131.558 61.133 131.529 61.1089 131.495C61.0849 131.461 61.0678 131.422 61.0587 131.381C61.0496 131.34 61.0486 131.298 61.0558 131.257C61.063 131.215 61.0783 131.176 61.1007 131.141C61.1232 131.105 61.1524 131.075 61.1866 131.051C61.2209 131.027 61.2595 131.01 61.3004 131.001C61.3413 130.991 61.3835 130.99 61.4247 130.998L74.1826 133.277L76.4214 124.052C76.4289 124.01 76.4449 123.97 76.4686 123.934C76.4922 123.898 76.5229 123.867 76.5588 123.844C76.5947 123.82 76.635 123.805 76.6773 123.797C76.7195 123.79 76.7628 123.791 76.8045 123.802C76.8462 123.812 76.8853 123.83 76.9196 123.856C76.9538 123.882 76.9824 123.914 77.0036 123.952C77.0248 123.989 77.0381 124.03 77.0427 124.073C77.0474 124.115 77.0432 124.159 77.0305 124.2L74.7321 133.717C74.7155 133.787 74.6752 133.85 74.618 133.894C74.5608 133.938 74.4902 133.961 74.4181 133.959ZM90.5011 109.131C88.781 109.11 87.137 108.418 85.9199 107.203L83.8915 105.25C83.8315 105.192 83.797 105.112 83.7955 105.029C83.794 104.946 83.8257 104.865 83.8836 104.805C83.9415 104.745 84.0208 104.711 84.1041 104.709C84.1874 104.708 84.2679 104.74 84.3279 104.797L86.3501 106.76C86.9271 107.342 87.6189 107.798 88.3817 108.099C89.1445 108.4 89.9614 108.538 90.7806 108.506C91.6264 108.445 92.4505 108.21 93.2011 107.816C93.9517 107.422 94.6126 106.876 95.1421 106.214L96.5708 104.521C96.5961 104.486 96.6284 104.456 96.6657 104.434C96.703 104.412 96.7445 104.398 96.7875 104.393C96.8306 104.388 96.8742 104.391 96.9157 104.404C96.9573 104.416 96.9958 104.437 97.0288 104.465C97.0619 104.493 97.0887 104.528 97.1078 104.567C97.1268 104.606 97.1376 104.648 97.1394 104.691C97.1412 104.735 97.134 104.778 97.1183 104.818C97.1026 104.859 97.0786 104.896 97.048 104.926L95.6225 106.619C95.0363 107.347 94.3058 107.946 93.4769 108.379C92.6479 108.811 91.7385 109.067 90.8057 109.131H90.5011ZM76.1388 190.868C76.0899 190.869 76.0415 190.858 75.9975 190.837C72.9862 189.323 70.3926 184.82 70.1791 182.635C70.1707 182.552 70.1958 182.469 70.2488 182.404C70.3018 182.339 70.3784 182.298 70.4617 182.29C70.5449 182.281 70.6281 182.306 70.6929 182.359C70.7577 182.412 70.7987 182.489 70.8071 182.572C71.008 184.629 73.5389 188.899 76.2832 190.275C76.3458 190.307 76.3958 190.359 76.4252 190.423C76.4547 190.486 76.4618 190.558 76.4455 190.627C76.4292 190.695 76.3905 190.756 76.3354 190.8C76.2804 190.844 76.2122 190.868 76.1419 190.868H76.1388ZM79.7561 191.427C79.6827 191.427 79.6116 191.402 79.5551 191.355C77.4701 189.603 74.1417 185.499 73.3034 182.352C73.2929 182.312 73.2903 182.271 73.2959 182.23C73.3015 182.189 73.3151 182.149 73.336 182.114C73.3568 182.078 73.3845 182.047 73.4174 182.022C73.4503 181.996 73.4879 181.978 73.5279 181.968C73.5679 181.957 73.6096 181.955 73.6505 181.96C73.6915 181.966 73.731 181.979 73.7667 182C73.8024 182.021 73.8337 182.049 73.8587 182.082C73.8837 182.115 73.902 182.152 73.9125 182.192C74.7132 185.213 77.938 189.176 79.9602 190.874C80.0089 190.916 80.0438 190.972 80.06 191.034C80.0761 191.096 80.0729 191.162 80.0506 191.222C80.0284 191.282 79.9882 191.334 79.9356 191.371C79.8829 191.407 79.8203 191.427 79.7561 191.427ZM81.4203 189.656C81.3576 189.656 81.2964 189.638 81.2444 189.603C78.6696 187.872 76.8484 183.571 76.2047 181.304C76.1814 181.224 76.1908 181.138 76.2308 181.065C76.2709 180.992 76.3383 180.938 76.4182 180.914C76.4982 180.891 76.5841 180.9 76.6571 180.94C76.7302 180.98 76.7843 181.048 76.8076 181.128C77.4011 183.166 79.1657 187.449 81.5961 189.081C81.6304 189.104 81.6598 189.134 81.6826 189.168C81.7054 189.203 81.7212 189.241 81.729 189.282C81.7369 189.323 81.7367 189.364 81.7285 189.405C81.7202 189.445 81.704 189.484 81.6809 189.518C81.6521 189.56 81.6133 189.595 81.5678 189.619C81.5224 189.644 81.4717 189.656 81.4203 189.656ZM127.864 112.61C127.781 112.61 127.701 112.577 127.642 112.518C127.583 112.459 127.55 112.379 127.55 112.296C127.635 110.252 128.894 108.547 130.112 106.901C130.527 106.339 130.954 105.761 131.318 105.19C131.595 104.686 131.988 104.256 132.464 103.934C133.029 103.62 133.871 103.62 134.307 104.179C134.427 104.351 134.508 104.547 134.544 104.754C134.58 104.961 134.571 105.173 134.518 105.375C134.435 105.682 134.314 105.977 134.16 106.254L134.113 106.346C133.362 107.825 132.88 109.426 132.69 111.074C132.681 111.158 132.639 111.234 132.574 111.286C132.508 111.339 132.425 111.363 132.342 111.354C132.258 111.345 132.182 111.303 132.13 111.237C132.077 111.172 132.053 111.089 132.062 111.005C132.258 109.283 132.76 107.609 133.544 106.063L133.595 105.969C133.727 105.738 133.833 105.492 133.909 105.237C133.941 105.124 133.949 105.005 133.932 104.889C133.915 104.773 133.874 104.661 133.811 104.562C133.598 104.279 133.105 104.292 132.781 104.477C132.388 104.755 132.066 105.121 131.839 105.545C131.462 106.135 131.029 106.722 130.608 107.291C129.447 108.861 128.244 110.484 128.169 112.337C128.159 112.411 128.123 112.48 128.067 112.53C128.011 112.58 127.939 112.608 127.864 112.61ZM136.505 109.109C136.442 109.109 136.38 109.089 136.328 109.053C136.276 109.017 136.236 108.967 136.213 108.908C136.19 108.848 136.186 108.784 136.201 108.722C136.215 108.661 136.248 108.605 136.295 108.562C137.827 107.168 139.893 104.926 141.096 102.81C141.138 102.737 141.206 102.684 141.287 102.663C141.368 102.641 141.454 102.652 141.526 102.694C141.599 102.735 141.652 102.804 141.673 102.885C141.695 102.965 141.684 103.051 141.642 103.124C140.402 105.303 138.286 107.605 136.716 109.03C136.658 109.081 136.583 109.109 136.505 109.109ZM138.446 110.343C138.4 110.343 138.356 110.333 138.314 110.314C138.273 110.295 138.237 110.267 138.207 110.233C138.18 110.201 138.16 110.165 138.147 110.126C138.134 110.087 138.13 110.045 138.133 110.004C138.136 109.963 138.147 109.923 138.166 109.886C138.185 109.85 138.21 109.817 138.242 109.79C140.082 108.22 141.865 106.129 142.782 104.452C142.824 104.379 142.893 104.325 142.974 104.303C143.055 104.28 143.142 104.291 143.215 104.333C143.289 104.374 143.342 104.443 143.365 104.525C143.387 104.606 143.376 104.693 143.335 104.766C142.179 106.879 140.157 109.002 138.65 110.286C138.59 110.328 138.518 110.348 138.446 110.343ZM139.388 113.084C139.323 113.084 139.26 113.064 139.207 113.027C139.154 112.99 139.114 112.938 139.092 112.877C139.07 112.816 139.067 112.75 139.084 112.687C139.101 112.625 139.137 112.569 139.187 112.528C140.961 111.04 142.641 109.015 143.464 107.366C143.481 107.328 143.506 107.293 143.537 107.265C143.568 107.237 143.605 107.215 143.644 107.201C143.684 107.187 143.726 107.181 143.768 107.184C143.81 107.186 143.851 107.197 143.889 107.216C143.926 107.235 143.96 107.261 143.987 107.293C144.015 107.325 144.035 107.362 144.048 107.402C144.061 107.442 144.065 107.484 144.062 107.526C144.058 107.568 144.045 107.608 144.026 107.645C142.983 109.734 140.983 111.841 139.589 113.012C139.532 113.059 139.461 113.084 139.388 113.084ZM81.2727 185.379C81.2193 185.379 81.1668 185.366 81.1201 185.34C81.0734 185.314 81.0341 185.277 81.0058 185.232C80.1454 183.838 78.095 180.421 77.6962 178.766C77.6823 178.688 77.6989 178.607 77.7426 178.54C77.7863 178.473 77.8538 178.425 77.9315 178.406C78.0091 178.388 78.091 178.399 78.1605 178.439C78.23 178.478 78.2818 178.543 78.3054 178.619C78.6947 180.23 80.8802 183.834 81.5396 184.899C81.5615 184.934 81.5763 184.973 81.5831 185.014C81.5899 185.054 81.5886 185.096 81.5793 185.136C81.57 185.177 81.5528 185.215 81.5287 185.248C81.5047 185.282 81.4742 185.31 81.4391 185.332C81.3891 185.363 81.3315 185.379 81.2727 185.379Z" fill="#121212"/>
<path d="M80.7671 184.242C80.7359 184.247 80.7042 184.247 80.673 184.242C80.594 184.217 80.5283 184.162 80.49 184.088C80.4518 184.015 80.4442 183.929 80.4688 183.85C81.0968 181.856 80.4312 178.575 79.6619 177.485C79.1814 176.807 78.4687 176.345 77.7151 175.855C76.9615 175.365 76.1859 174.86 75.6364 174.113C75.6118 174.079 75.594 174.042 75.584 174.002C75.574 173.962 75.5721 173.92 75.5782 173.879C75.5843 173.838 75.5984 173.799 75.6197 173.764C75.641 173.728 75.6691 173.698 75.7023 173.673C75.7355 173.648 75.7732 173.631 75.8133 173.621C75.8533 173.611 75.895 173.609 75.9358 173.615C75.9766 173.621 76.0159 173.635 76.0512 173.656C76.0866 173.678 76.1174 173.706 76.1419 173.739C76.6223 174.395 77.3194 174.847 78.0573 175.328C78.7952 175.808 79.6273 176.345 80.1768 177.124C81.1188 178.477 81.7468 181.934 81.0686 184.032C81.0468 184.094 81.006 184.148 80.9519 184.186C80.8978 184.224 80.8331 184.243 80.7671 184.242Z" fill="#121212"/>
<path d="M202.781 216.974C198.881 219.225 195.399 222.444 193.606 226.576C191.929 230.444 191.845 234.781 191.374 238.972C190.903 243.164 189.879 247.576 186.852 250.515C184.635 252.666 181.514 253.837 179.649 256.296C177.953 252.782 177.187 249.134 176.823 245.246C176.474 241.478 176.647 237.572 178.129 234.093C179.611 230.614 182.23 227.851 185.125 225.492C190.168 221.37 196.473 218.493 202.781 216.974ZM146.808 226.742C151.634 226.905 156.491 227.873 160.762 230.124C165.032 232.375 168.678 235.986 170.446 240.486C171.626 243.494 171.94 246.794 171.702 250.016C171.463 253.237 170.684 256.396 169.745 259.489C166.059 257.232 162.131 254.823 160.121 251.011C157.942 246.854 158.347 241.827 156.925 237.355C156.207 235.138 155.053 233.088 153.531 231.324C152.009 229.56 150.149 228.118 148.06 227.084" fill="#F6F6F6"/>
<path d="M179.922 267.113C179.844 267.113 179.768 267.085 179.71 267.032C179.652 266.98 179.616 266.908 179.608 266.831C178.185 251.459 182.317 236.086 191.254 223.499C191.303 223.431 191.377 223.385 191.459 223.371C191.542 223.358 191.626 223.378 191.694 223.426C191.762 223.475 191.807 223.549 191.821 223.631C191.835 223.714 191.815 223.798 191.766 223.866C182.918 236.33 178.827 251.551 180.236 266.771C180.244 266.854 180.219 266.936 180.166 267C180.113 267.065 180.036 267.105 179.953 267.113H179.922ZM169.648 266.033H169.61C169.528 266.023 169.453 265.98 169.402 265.915C169.351 265.85 169.327 265.767 169.337 265.684C170.414 256.556 167.519 246.505 161.393 238.112L161.06 237.657C159.035 234.875 156.739 231.725 154.218 229.493C154.16 229.437 154.125 229.36 154.122 229.279C154.118 229.199 154.146 229.12 154.2 229.059C154.253 228.998 154.328 228.96 154.409 228.953C154.489 228.947 154.569 228.971 154.632 229.022C157.207 231.283 159.525 234.463 161.569 237.271L161.902 237.726C168.119 246.248 171.058 256.459 169.959 265.741C169.953 265.82 169.918 265.894 169.861 265.948C169.803 266.002 169.727 266.032 169.648 266.033Z" fill="#CCCCCC"/>
<path d="M184.359 288.924H165.23L162.002 268.329H187.59L184.359 288.924Z" fill="#EDEDED"/>
<path d="M188.337 265.568H161.255C159.883 265.568 158.771 266.68 158.771 268.052C158.771 269.424 159.883 270.536 161.255 270.536H188.337C189.709 270.536 190.821 269.424 190.821 268.052C190.821 266.68 189.709 265.568 188.337 265.568Z" fill="#E1E1E1"/>
<path d="M91.5876 216.763H91.5719C91.5307 216.761 91.4902 216.751 91.4529 216.733C91.4155 216.716 91.3821 216.691 91.3544 216.66C91.3266 216.63 91.3052 216.594 91.2914 216.555C91.2775 216.516 91.2715 216.475 91.2736 216.434L92.7965 184.786C92.8003 184.702 92.8369 184.624 92.8985 184.568C92.96 184.511 93.0414 184.482 93.1246 184.486C93.2079 184.489 93.2863 184.526 93.3425 184.588C93.3988 184.649 93.4283 184.731 93.4245 184.814L91.9016 216.465C91.8976 216.546 91.8627 216.621 91.8043 216.677C91.7458 216.732 91.6682 216.763 91.5876 216.763Z" fill="#121212"/>
<path d="M92.8718 190.086C92.8282 190.086 92.7851 190.077 92.7451 190.06C92.7051 190.043 92.6691 190.017 92.6395 189.985C92.5834 189.924 92.5539 189.843 92.5575 189.76C92.561 189.677 92.5973 189.599 92.6583 189.543L102.455 180.518C102.485 180.49 102.521 180.468 102.56 180.454C102.598 180.44 102.64 180.433 102.681 180.435C102.722 180.436 102.763 180.446 102.8 180.463C102.838 180.481 102.871 180.505 102.899 180.535C102.927 180.566 102.949 180.601 102.964 180.64C102.978 180.679 102.984 180.72 102.983 180.761C102.981 180.802 102.971 180.843 102.954 180.88C102.937 180.918 102.912 180.952 102.882 180.98L93.0853 190.004C93.027 190.057 92.9507 190.086 92.8718 190.086ZM96.4891 92.0864C95.839 92.0875 95.195 91.9603 94.5941 91.7119C93.9933 91.4635 93.4475 91.0988 92.988 90.6388C92.9586 90.6096 92.9352 90.5749 92.9193 90.5366C92.9033 90.4984 92.8951 90.4573 92.8951 90.4159C92.8951 90.3744 92.9033 90.3334 92.9193 90.2951C92.9352 90.2569 92.9586 90.2221 92.988 90.1929C93.0468 90.1345 93.1264 90.1016 93.2094 90.1016C93.2923 90.1016 93.3719 90.1345 93.4307 90.1929C94.2425 91.0029 95.3424 91.4577 96.4891 91.4577C97.6358 91.4577 98.7357 91.0029 99.5475 90.1929C99.6063 90.1345 99.6859 90.1016 99.7688 90.1016C99.8518 90.1016 99.9314 90.1345 99.9902 90.1929C100.02 90.2221 100.043 90.2569 100.059 90.2951C100.075 90.3334 100.083 90.3744 100.083 90.4159C100.083 90.4573 100.075 90.4984 100.059 90.5366C100.043 90.5749 100.02 90.6096 99.9902 90.6388C99.5307 91.0988 98.9849 91.4635 98.3841 91.7119C97.7832 91.9603 97.1393 92.0875 96.4891 92.0864ZM76.1733 84.0072H76.1011C76.0204 83.9878 75.9507 83.9373 75.9072 83.8667C75.8637 83.7961 75.8498 83.7111 75.8687 83.6303C75.965 83.2119 76.1492 82.8188 76.4091 82.477C76.669 82.1353 76.9986 81.8527 77.376 81.6481C77.7535 81.4435 78.1701 81.3215 78.5983 81.2902C79.0266 81.259 79.4565 81.3192 79.8597 81.4669C79.9357 81.4969 79.9971 81.5553 80.0307 81.6298C80.0644 81.7043 80.0676 81.789 80.0398 81.8658C80.012 81.9427 79.9553 82.0057 79.8818 82.0414C79.8083 82.0772 79.7238 82.0828 79.6461 82.0572C79.3263 81.9408 78.9853 81.8936 78.6459 81.9187C78.3064 81.9437 77.9761 82.0404 77.6767 82.2024C77.3773 82.3644 77.1157 82.588 76.909 82.8585C76.7024 83.129 76.5555 83.4402 76.4779 83.7717C76.4605 83.8391 76.4211 83.8989 76.3659 83.9416C76.3108 83.9842 76.243 84.0073 76.1733 84.0072Z" fill="#121212"/>
<path d="M92.316 85.6873C89.3204 85.6873 86.8838 82.8016 86.8838 79.2503C86.8838 75.6989 89.3204 72.8164 92.316 72.8164C95.3115 72.8164 97.745 75.7021 97.745 79.2503C97.745 82.7985 95.3084 85.6873 92.316 85.6873ZM92.316 73.4413C89.6658 73.4413 87.5118 76.0475 87.5118 79.2471C87.5118 82.4468 89.6658 85.0561 92.316 85.0561C94.9661 85.0561 97.117 82.4499 97.117 79.2471C97.117 76.0443 94.9599 73.4444 92.316 73.4444V73.4413ZM104.248 85.6873C101.252 85.6873 98.8158 82.8016 98.8158 79.2503C98.8158 75.6989 101.252 72.8164 104.248 72.8164C107.244 72.8164 109.677 75.7021 109.677 79.2503C109.677 82.7985 107.25 85.6873 104.248 85.6873ZM104.248 73.4413C101.598 73.4413 99.4438 76.0475 99.4438 79.2471C99.4438 82.4468 101.598 85.0561 104.248 85.0561C106.898 85.0561 109.049 82.4499 109.049 79.2471C109.049 76.0443 106.904 73.4444 104.248 73.4444V73.4413Z" fill="#DC3545"/>
<path d="M78.3524 79.3133C78.2692 79.3174 78.1876 79.2884 78.1258 79.2324C78.064 79.1765 78.0269 79.0983 78.0227 79.015C78.0186 78.9317 78.0477 78.8502 78.1036 78.7883C78.1595 78.7265 78.2378 78.6894 78.321 78.6853L87.2512 77.7778C87.3345 77.7695 87.4176 77.7946 87.4824 77.8476C87.5472 77.9006 87.5883 77.9771 87.5966 78.0604C87.6049 78.1437 87.5798 78.2269 87.5268 78.2916C87.4738 78.3564 87.3973 78.3975 87.314 78.4058L78.3838 79.3133H78.3524ZM99.582 76.8798C99.5399 76.88 99.4982 76.8718 99.4594 76.8556C99.4205 76.8394 99.3853 76.8156 99.3559 76.7856C99.0691 76.5057 98.6843 76.3491 98.2836 76.3491C97.8829 76.3491 97.4981 76.5057 97.2113 76.7856C97.1822 76.8149 97.1477 76.8381 97.1096 76.854C97.0715 76.87 97.0307 76.8782 96.9894 76.8784C96.9482 76.8785 96.9073 76.8705 96.8691 76.8549C96.831 76.8392 96.7962 76.8162 96.767 76.7872C96.7377 76.7581 96.7144 76.7235 96.6985 76.6855C96.6826 76.6474 96.6743 76.6066 96.6742 76.5653C96.674 76.5241 96.682 76.4832 96.6976 76.445C96.7133 76.4068 96.7363 76.3721 96.7654 76.3428C97.1711 75.9447 97.7168 75.7217 98.2852 75.7217C98.8535 75.7217 99.3992 75.9447 99.8049 76.3428C99.8343 76.372 99.8577 76.4068 99.8736 76.445C99.8896 76.4833 99.8978 76.5243 99.8978 76.5658C99.8978 76.6072 99.8896 76.6483 99.8736 76.6865C99.8577 76.7248 99.8343 76.7595 99.8049 76.7887C99.7756 76.8178 99.7408 76.8408 99.7025 76.8565C99.6643 76.8721 99.6233 76.88 99.582 76.8798Z" fill="#DC3545"/>
<path d="M273.343 66.6846H165.638C164.771 66.6846 164.068 67.3875 164.068 68.2546V104.989C164.068 105.857 164.771 106.559 165.638 106.559H273.343C274.21 106.559 274.913 105.857 274.913 104.989V68.2546C274.913 67.3875 274.21 66.6846 273.343 66.6846Z" fill="#567DFF"/>
<path d="M164.382 98.3482L152.654 86.6203L164.382 74.8955V98.3482Z" fill="#567DFF"/>
<path d="M170.942 75.0684H238.766V78.0482H170.942V75.0684ZM170.942 85.1289H238.766V88.1088H170.942V85.1289ZM170.942 95.1926H238.766V98.1725H170.942V95.1926ZM245.099 75.0684H268.203V98.1725H245.099V75.0684Z" fill="white"/>
<path d="M168.489 125.013H172.835V129.358H168.489V125.013ZM165.101 131.676H169.447V136.022H165.101V131.676ZM161.71 138.342H166.056V142.688H161.71V138.342Z" fill="#E1E1E1"/>
<path d="M174.986 126.229H207.598V128.138H174.986V126.229ZM171.595 132.895H204.207V134.804H171.595V132.895ZM168.204 139.561H200.816V141.47H168.204V139.561Z" fill="#F6F6F6"/>
<path d="M264.219 224.786H259.238V219.806H264.219V224.786Z" fill="#E1E1E1"/>
<path d="M267.358 217.298H262.378V212.318H267.358V217.298Z" fill="#E1E1E1"/>
<path d="M270.499 209.812H265.518V204.831H270.499V209.812Z" fill="#E1E1E1"/>
<path d="M256.777 223.393H218.142V221.204H256.777V223.393Z" fill="#F6F6F6"/>
<path d="M259.917 215.906H221.282V213.718H259.917V215.906Z" fill="#F6F6F6"/>
<path d="M263.057 208.414H224.422V206.225H263.057V208.414Z" fill="#F6F6F6"/>
<path d="M174.794 162.526H242.618V165.506H174.794V162.526ZM174.794 172.587H242.618V175.567H174.794V172.587ZM174.794 182.651H242.618V185.63H174.794V182.651Z" fill="#E1E1E1"/>
<path d="M248.955 162.526H272.059V185.63H248.955V162.526Z" fill="#DC3545"/>
<path d="M286.111 289.238H27.3745C27.2913 289.238 27.2114 289.205 27.1525 289.146C27.0936 289.087 27.0605 289.008 27.0605 288.924C27.0605 288.841 27.0936 288.761 27.1525 288.702C27.2114 288.643 27.2913 288.61 27.3745 288.61H286.111C286.194 288.61 286.274 288.643 286.333 288.702C286.391 288.761 286.425 288.841 286.425 288.924C286.425 289.008 286.391 289.087 286.333 289.146C286.274 289.205 286.194 289.238 286.111 289.238Z" fill="#121212"/>
</svg>
