<svg width="35" height="35" viewBox="0 0 35 35" fill="none" xmlns="http://www.w3.org/2000/svg">
<g clip-path="url(#clip0_2_11589)">
<path d="M17.5 35C27.165 35 35 27.165 35 17.5C35 7.83502 27.165 0 17.5 0C7.83502 0 0 7.83502 0 17.5C0 27.165 7.83502 35 17.5 35Z" fill="#F0F0F0"/>
<path d="M0.602539 22.0654C1.61508 25.8224 3.84667 29.0786 6.84751 31.3843V22.0654H0.602539Z" fill="#D80027"/>
<path d="M15.9775 34.9336C16.4792 34.9768 16.9865 35.0002 17.4993 35.0002C25.5848 35.0002 32.3883 29.5163 34.3964 22.0654H15.9775V34.9336Z" fill="#D80027"/>
<path d="M34.3964 12.9348C32.3883 5.48386 25.5848 0 17.4993 0C16.9865 0 16.4792 0.0233789 15.9775 0.066582V12.9348H34.3964Z" fill="#D80027"/>
<path d="M6.84751 3.61621C3.84667 5.92197 1.61508 9.17813 0.602539 12.9351H6.84751V3.61621Z" fill="#D80027"/>
<path d="M34.8519 15.2175H13.6957H13.6957V0.416016C12.0784 0.774629 10.5452 1.35589 9.13042 2.12787V15.2173V15.2174H0.148135C0.0507227 15.9646 0 16.7264 0 17.5C0 18.2737 0.0507227 19.0355 0.148135 19.7826H9.13035H9.13042V32.8722C10.5452 33.6441 12.0784 34.2255 13.6957 34.584V19.7828V19.7827H34.8519C34.9491 19.0355 35 18.2737 35 17.5C35 16.7264 34.9491 15.9646 34.8519 15.2175Z" fill="#0052B4"/>
</g>
<defs>
<clipPath id="clip0_2_11589">
<rect width="35" height="35" fill="white"/>
</clipPath>
</defs>
</svg>
