<svg width="115" height="65" viewBox="0 0 115 65" fill="none" xmlns="http://www.w3.org/2000/svg">
<g clip-path="url(#clip0_2_10634)">
<rect width="115" height="65" rx="5" fill="#F0CBD4"/>
<g opacity="0.3" clip-path="url(#clip1_2_10634)">
<path fill-rule="evenodd" clip-rule="evenodd" d="M102.865 78.1616C117.395 73.7369 125.586 58.3725 121.161 43.843C116.736 29.3136 101.372 21.1225 86.8423 25.5472C72.3129 29.9719 64.1218 45.3363 68.5465 59.8658C72.9712 74.3952 88.3356 82.5863 102.865 78.1616ZM101.144 44.1896C101.781 46.2827 101.561 48.5433 100.532 50.4741C99.5022 52.4049 97.748 53.8477 95.6549 54.4851C93.5617 55.1225 91.3011 54.9024 89.3703 53.873C87.4395 52.8437 85.9967 51.0895 85.3593 48.9964C84.7219 46.9033 84.942 44.6426 85.9714 42.7118C87.0007 40.781 88.7549 39.3382 90.848 38.7008C92.9412 38.0634 95.2018 38.2836 97.1326 39.3129C99.0634 40.3422 100.506 42.0964 101.144 44.1896ZM83.0751 69.8148C84.1646 66.8035 85.9414 64.0878 88.2642 61.8833C90.587 59.6789 93.3919 58.0465 96.456 57.1158C99.5187 56.1807 102.757 55.9726 105.915 56.5082C109.072 57.0438 112.061 58.3083 114.644 60.2012C113.554 63.2125 111.777 65.9282 109.455 68.1327C107.132 70.3371 104.327 71.9695 101.263 72.9002C98.2001 73.8353 94.9614 74.0434 91.8042 73.5078C88.6469 72.9722 85.6581 71.7077 83.0751 69.8148Z" fill="white"/>
</g>
</g>
<defs>
<clipPath id="clip0_2_10634">
<rect width="115" height="65" rx="5" fill="white"/>
</clipPath>
<clipPath id="clip1_2_10634">
<rect width="66" height="66" fill="white" transform="translate(53.6719 29.8994) rotate(-16.9372)"/>
</clipPath>
</defs>
</svg>
