<svg width="35" height="35" viewBox="0 0 35 35" fill="none" xmlns="http://www.w3.org/2000/svg">
<g clip-path="url(#clip0_2_11610)">
<path d="M0 17.5003C0 19.6409 0.385068 21.6914 1.08849 23.5872L17.5 25.1089L33.9115 23.5872C34.6149 21.6914 35 19.6409 35 17.5003C35 15.3597 34.6149 13.3092 33.9115 11.4133L17.5 9.8916L1.08849 11.4133C0.385068 13.3092 0 15.3597 0 17.5003H0Z" fill="#FFDA44"/>
<path d="M33.9119 11.4131C31.4393 4.74913 25.0248 0 17.5004 0C9.976 0 3.56149 4.74913 1.08887 11.4131H33.9119Z" fill="#D80027"/>
<path d="M1.08887 23.5869C3.56149 30.2509 9.976 35 17.5004 35C25.0248 35 31.4393 30.2509 33.9119 23.5869H1.08887Z" fill="#D80027"/>
</g>
<defs>
<clipPath id="clip0_2_11610">
<rect width="35" height="35" fill="white"/>
</clipPath>
</defs>
</svg>
