<svg width="115" height="65" viewBox="0 0 115 65" fill="none" xmlns="http://www.w3.org/2000/svg">
<g clip-path="url(#clip0_2_10628)">
<rect width="115" height="65" rx="5" fill="#CDF4EA"/>
<g opacity="0.4" clip-path="url(#clip1_2_10628)">
<path d="M90.7515 39.0289C93.8486 37.5847 97.5301 38.9246 98.9743 42.0217L107.691 60.7143C109.135 63.8113 107.795 67.4929 104.698 68.9371L86.0054 77.6536C82.9083 79.0978 79.2268 77.7577 77.7826 74.6607L69.0661 55.9681C67.6219 52.871 68.9618 49.1896 72.059 47.7454L90.7515 39.0289ZM108.813 31.4156C109.657 30.2215 111.4 30.2796 112.191 31.4242L112.367 31.7329L124.191 57.0616C124.81 58.3865 123.894 59.8717 122.507 59.9894L122.152 59.9894L111.493 59.1047L102.651 40.1423L108.813 31.4156Z" fill="white"/>
</g>
</g>
<defs>
<clipPath id="clip0_2_10628">
<rect width="115" height="65" rx="5" fill="white"/>
</clipPath>
<clipPath id="clip1_2_10628">
<rect width="66" height="66" fill="white" transform="translate(52 38.8926) rotate(-25)"/>
</clipPath>
</defs>
</svg>
