<svg width="35" height="35" viewBox="0 0 35 35" fill="none" xmlns="http://www.w3.org/2000/svg">
<g clip-path="url(#clip0_2_11574)">
<path d="M17.5 35C27.165 35 35 27.165 35 17.5C35 7.83502 27.165 0 17.5 0C7.83502 0 0 7.83502 0 17.5C0 27.165 7.83502 35 17.5 35Z" fill="#F0F0F0"/>
<path d="M3.61726 6.84668C2.24262 8.63517 1.20608 10.6965 0.602539 12.9359H9.7065L3.61726 6.84668Z" fill="#0052B4"/>
<path d="M34.3968 12.9359C33.7933 10.6965 32.7566 8.63517 31.3821 6.84668L25.293 12.9359H34.3968Z" fill="#0052B4"/>
<path d="M0.602539 22.0664C1.20615 24.3057 2.24269 26.3671 3.61726 28.1555L9.7063 22.0664H0.602539Z" fill="#0052B4"/>
<path d="M28.1536 3.6183C26.3651 2.24366 24.3038 1.20713 22.0645 0.603516V9.70741L28.1536 3.6183Z" fill="#0052B4"/>
<path d="M6.8457 31.383C8.63419 32.7576 10.6956 33.7942 12.9349 34.3978V25.2939L6.8457 31.383Z" fill="#0052B4"/>
<path d="M12.9348 0.603516C10.6955 1.20713 8.63412 2.24366 6.8457 3.61823L12.9348 9.70734V0.603516Z" fill="#0052B4"/>
<path d="M22.0645 34.3978C24.3038 33.7942 26.3651 32.7576 28.1536 31.3831L22.0645 25.2939V34.3978Z" fill="#0052B4"/>
<path d="M25.293 22.0664L31.3821 28.1556C32.7566 26.3672 33.7933 24.3057 34.3968 22.0664H25.293Z" fill="#0052B4"/>
<path d="M34.8519 15.2174H19.7827H19.7827V0.148135C19.0354 0.0508594 18.2736 0 17.5 0C16.7262 0 15.9646 0.0508594 15.2174 0.148135V15.2173V15.2173H0.148135C0.0508594 15.9646 0 16.7264 0 17.5C0 18.2738 0.0508594 19.0354 0.148135 19.7826H15.2173H15.2173V34.8519C15.9646 34.9491 16.7262 35 17.5 35C18.2736 35 19.0354 34.9492 19.7826 34.8519V19.7827V19.7827H34.8519C34.9491 19.0354 35 18.2738 35 17.5C35 16.7264 34.9491 15.9646 34.8519 15.2174Z" fill="#D80027"/>
<path d="M22.0654 22.0655L29.8745 29.8746C30.2337 29.5156 30.5763 29.1402 30.9032 28.7511L24.2175 22.0654H22.0654V22.0655Z" fill="#D80027"/>
<path d="M12.9351 22.0654H12.935L5.12598 29.8745C5.485 30.2336 5.86036 30.5762 6.24946 30.9031L12.9351 24.2173V22.0654Z" fill="#D80027"/>
<path d="M12.9345 12.9353V12.9351L5.12535 5.12598C4.76619 5.485 4.42357 5.86036 4.09668 6.24946L10.7824 12.9352H12.9345V12.9353Z" fill="#D80027"/>
<path d="M22.0654 12.9345L29.8746 5.12528C29.5156 4.76612 29.1402 4.42351 28.7511 4.09668L22.0654 10.7824V12.9345Z" fill="#D80027"/>
</g>
<defs>
<clipPath id="clip0_2_11574">
<rect width="35" height="35" fill="white"/>
</clipPath>
</defs>
</svg>
