<svg width="23" height="23" viewBox="0 0 23 23" fill="none" xmlns="http://www.w3.org/2000/svg">
<path d="M11.5 2.875C9.79414 2.875 8.12659 3.38085 6.70821 4.32857C5.28984 5.2763 4.18435 6.62334 3.53154 8.19936C2.87874 9.77537 2.70793 11.5096 3.04073 13.1827C3.37353 14.8557 4.19498 16.3926 5.40121 17.5988C6.60744 18.805 8.14426 19.6265 9.81735 19.9593C11.4904 20.2921 13.2246 20.1213 14.8006 19.4685C16.3767 18.8157 17.7237 17.7102 18.6714 16.2918C19.6192 14.8734 20.125 13.2059 20.125 11.5C20.125 9.21251 19.2163 7.0187 17.5988 5.4012C15.9813 3.7837 13.7875 2.875 11.5 2.875ZM11.5 18.6875C10.0785 18.6875 8.68882 18.266 7.50684 17.4762C6.32486 16.6864 5.40362 15.5639 4.85962 14.2505C4.31561 12.9372 4.17328 11.492 4.45061 10.0978C4.72794 8.70355 5.41248 7.42286 6.41767 6.41767C7.42286 5.41248 8.70355 4.72794 10.0978 4.45061C11.492 4.17327 12.9372 4.31561 14.2505 4.85962C15.5639 5.40362 16.6864 6.32486 17.4762 7.50684C18.266 8.68882 18.6875 10.0784 18.6875 11.5C18.6875 13.4062 17.9303 15.2344 16.5823 16.5823C15.2344 17.9302 13.4062 18.6875 11.5 18.6875Z" fill="white"/>
<path d="M11.5 9.84639C11.3094 9.84639 11.1265 9.92211 10.9917 10.0569C10.857 10.1917 10.7812 10.3745 10.7812 10.5651V15.4526C10.7812 15.6433 10.857 15.8261 10.9917 15.9609C11.1265 16.0957 11.3094 16.1714 11.5 16.1714C11.6906 16.1714 11.8734 16.0957 12.0082 15.9609C12.143 15.8261 12.2187 15.6433 12.2187 15.4526V10.5651C12.2187 10.3745 12.143 10.1917 12.0082 10.0569C11.8734 9.92211 11.6906 9.84639 11.5 9.84639ZM11.5 6.89951C11.3054 6.90683 11.121 6.98837 10.9847 7.12738C10.8483 7.26639 10.7704 7.45233 10.7669 7.64701V7.76201C10.7665 7.85579 10.7857 7.94861 10.8232 8.03457C10.8607 8.12053 10.9157 8.19774 10.9846 8.26129C11.0536 8.32484 11.135 8.37334 11.2237 8.4037C11.3125 8.43406 11.4065 8.44562 11.5 8.43764C11.6883 8.43052 11.867 8.35252 12.0003 8.21923C12.1336 8.08595 12.2116 7.90724 12.2187 7.71889V7.54639C12.2193 7.45504 12.2005 7.3646 12.1636 7.28104C12.1267 7.19748 12.0725 7.12268 12.0046 7.06156C11.9367 7.00045 11.8566 6.95442 11.7696 6.92649C11.6827 6.89855 11.5908 6.88936 11.5 6.89951Z" fill="white"/>
</svg>
