<svg width="40" height="40" viewBox="0 0 40 40" fill="none" xmlns="http://www.w3.org/2000/svg">
<path d="M28.75 5H11.25C9.5924 5 8.00269 5.65848 6.83058 6.83058C5.65848 8.00269 5 9.5924 5 11.25V28.75C5 30.4076 5.65848 31.9973 6.83058 33.1694C8.00269 34.3415 9.5924 35 11.25 35H28.75C30.4076 35 31.9973 34.3415 33.1694 33.1694C34.3415 31.9973 35 30.4076 35 28.75V11.25C35 9.5924 34.3415 8.00269 33.1694 6.83058C31.9973 5.65848 30.4076 5 28.75 5ZM25 21.25H21.25V25C21.25 25.3315 21.1183 25.6495 20.8839 25.8839C20.6495 26.1183 20.3315 26.25 20 26.25C19.6685 26.25 19.3505 26.1183 19.1161 25.8839C18.8817 25.6495 18.75 25.3315 18.75 25V21.25H15C14.6685 21.25 14.3505 21.1183 14.1161 20.8839C13.8817 20.6495 13.75 20.3315 13.75 20C13.75 19.6685 13.8817 19.3505 14.1161 19.1161C14.3505 18.8817 14.6685 18.75 15 18.75H18.75V15C18.75 14.6685 18.8817 14.3505 19.1161 14.1161C19.3505 13.8817 19.6685 13.75 20 13.75C20.3315 13.75 20.6495 13.8817 20.8839 14.1161C21.1183 14.3505 21.25 14.6685 21.25 15V18.75H25C25.3315 18.75 25.6495 18.8817 25.8839 19.1161C26.1183 19.3505 26.25 19.6685 26.25 20C26.25 20.3315 26.1183 20.6495 25.8839 20.8839C25.6495 21.1183 25.3315 21.25 25 21.25Z" fill="#F5F5F5"/>
</svg>
