<svg width="18" height="23" viewBox="0 0 18 23" fill="none" xmlns="http://www.w3.org/2000/svg">
<path d="M12.317 4.14644C11.5844 5.03205 10.3599 5.68806 9.38682 5.68806C9.26655 5.68806 9.15721 5.66619 9.09161 5.65526C9.08068 5.60059 9.04788 5.43659 9.04788 5.26165C9.04788 4.14644 9.61642 3.03122 10.2396 2.33148C11.0159 1.41306 12.3279 0.735188 13.4213 0.691454C13.4431 0.811723 13.4541 0.964791 13.4541 1.11786C13.4541 2.23308 12.9839 3.33736 12.317 4.14644ZM13.0823 5.91766C13.6946 5.91766 15.9141 5.98326 17.3683 8.07156C17.2371 8.16996 15.0394 9.41638 15.0394 12.1935C15.0394 15.397 17.8384 16.545 17.9259 16.5669C17.9149 16.6434 17.4776 18.1194 16.4499 19.6392C15.5205 20.9621 14.5474 22.307 13.0823 22.307C11.6063 22.307 11.2236 21.4432 9.53989 21.4432C7.878 21.4432 7.28759 22.307 5.9537 22.307C4.59795 22.307 3.65767 21.0933 2.58619 19.5845C1.32883 17.8024 0.322952 15.0362 0.322952 12.4122C0.322952 8.2137 3.05633 5.91766 5.7569 5.91766C7.17825 5.91766 8.35907 6.91261 9.26655 6.91261C10.1194 6.91261 11.4532 5.91766 13.0823 5.91766Z" fill="#F5F5F5"/>
</svg>
