<svg width="21" height="21" viewBox="0 0 21 21" fill="none" xmlns="http://www.w3.org/2000/svg">
<path d="M0.083252 17.7913C0.083252 19.5622 1.43742 20.9163 3.20825 20.9163H17.7916C19.5624 20.9163 20.9166 19.5622 20.9166 17.7913V9.45801H0.083252V17.7913ZM17.7916 2.16634H15.7083V1.12467C15.7083 0.499674 15.2916 0.0830078 14.6666 0.0830078C14.0416 0.0830078 13.6249 0.499674 13.6249 1.12467V2.16634H7.37492V1.12467C7.37492 0.499674 6.95825 0.0830078 6.33325 0.0830078C5.70825 0.0830078 5.29159 0.499674 5.29159 1.12467V2.16634H3.20825C1.43742 2.16634 0.083252 3.52051 0.083252 5.29134V7.37467H20.9166V5.29134C20.9166 3.52051 19.5624 2.16634 17.7916 2.16634Z" fill="#121212"/>
</svg>
