<svg width="24" height="24" viewBox="0 0 24 24" fill="none" xmlns="http://www.w3.org/2000/svg">
<path d="M7 6V6.75C7.25076 6.75 7.48494 6.62467 7.62404 6.41603L7 6ZM8.40627 3.8906L7.78223 3.47457V3.47457L8.40627 3.8906ZM15.5937 3.8906L16.2178 3.47457L15.5937 3.8906ZM17 6L16.376 6.41603C16.5151 6.62467 16.7492 6.75 17 6.75V6ZM15 13.5H14.25C14.25 14.7426 13.2426 15.75 12 15.75V16.5V17.25C14.0711 17.25 15.75 15.5711 15.75 13.5H15ZM12 16.5V15.75C10.7574 15.75 9.75 14.7426 9.75 13.5H9H8.25C8.25 15.5711 9.92893 17.25 12 17.25V16.5ZM9 13.5H9.75C9.75 12.2574 10.7574 11.25 12 11.25V10.5V9.75C9.92893 9.75 8.25 11.4289 8.25 13.5H9ZM12 10.5V11.25C13.2426 11.25 14.25 12.2574 14.25 13.5H15H15.75C15.75 11.4289 14.0711 9.75 12 9.75V10.5ZM7 6L7.62404 6.41603L9.0303 4.30662L8.40627 3.8906L7.78223 3.47457L6.37596 5.58397L7 6ZM10.0704 3V3.75H13.9296V3V2.25H10.0704V3ZM15.5937 3.8906L14.9697 4.30662L16.376 6.41603L17 6L17.624 5.58397L16.2178 3.47457L15.5937 3.8906ZM13.9296 3V3.75C14.3476 3.75 14.7379 3.95888 14.9697 4.30662L15.5937 3.8906L16.2178 3.47457C15.7077 2.70953 14.8491 2.25 13.9296 2.25V3ZM8.40627 3.8906L9.0303 4.30662C9.26214 3.95888 9.65243 3.75 10.0704 3.75V3V2.25C9.1509 2.25 8.29226 2.70953 7.78223 3.47457L8.40627 3.8906ZM22 10H21.25V17H22H22.75V10H22ZM18 21V20.25H6V21V21.75H18V21ZM2 17H2.75V10H2H1.25V17H2ZM6 21V20.25C4.20507 20.25 2.75 18.7949 2.75 17H2H1.25C1.25 19.6234 3.37665 21.75 6 21.75V21ZM22 17H21.25C21.25 18.7949 19.7949 20.25 18 20.25V21V21.75C20.6234 21.75 22.75 19.6234 22.75 17H22ZM18 6V6.75C19.7949 6.75 21.25 8.20507 21.25 10H22H22.75C22.75 7.37665 20.6234 5.25 18 5.25V6ZM6 6V5.25C3.37665 5.25 1.25 7.37665 1.25 10H2H2.75C2.75 8.20507 4.20507 6.75 6 6.75V6ZM6 6V6.75H7V6V5.25H6V6ZM18 6V5.25H17V6V6.75H18V6Z" fill="#121212"/>
<circle cx="12" cy="6" r="1" fill="#121212"/>
</svg>
