<svg width="15" height="15" viewBox="0 0 15 15" fill="none" xmlns="http://www.w3.org/2000/svg">
<path d="M7.5 0.0957031C3.39277 0.0957031 0.0625 3.42598 0.0625 7.5332C0.0625 11.6404 3.39277 14.9707 7.5 14.9707C11.6072 14.9707 14.9375 11.6404 14.9375 7.5332C14.9375 3.42598 11.6072 0.0957031 7.5 0.0957031ZM11.0959 10.04C11.1457 10.0898 11.1723 10.1562 11.1723 10.226C11.1723 10.2957 11.1457 10.3654 11.0959 10.4119L10.3787 11.1324C10.3256 11.1855 10.2592 11.2088 10.1928 11.2088C10.1264 11.2088 10.0566 11.1822 10.0068 11.1324L7.5 8.62226L4.99648 11.1357C4.94668 11.1889 4.87695 11.2121 4.81055 11.2121C4.74414 11.2121 4.67441 11.1855 4.62461 11.1357L3.90742 10.4152C3.85762 10.3654 3.83105 10.299 3.83105 10.2293C3.83105 10.1596 3.85762 10.0898 3.90742 10.0434L6.4209 7.51992L3.90078 5.02969C3.79785 4.92676 3.79785 4.75742 3.90078 4.65449L4.61797 3.93398C4.66777 3.88418 4.73418 3.85762 4.80391 3.85762C4.87363 3.85762 4.94004 3.88418 4.98984 3.93398L7.50332 6.41426L10.0168 3.93398C10.0666 3.88418 10.133 3.85762 10.2027 3.85762C10.2725 3.85762 10.3389 3.88418 10.3887 3.93398L11.1059 4.65449C11.2088 4.75742 11.2088 4.92676 11.1059 5.02969L8.58574 7.51992L11.0959 10.04Z" fill="#F5F5F5"/>
</svg>
