<svg width="28" height="28" viewBox="0 0 28 28" fill="none" xmlns="http://www.w3.org/2000/svg">
<g clip-path="url(#clip0_2_10697)">
<path d="M22.2477 5.75161C20.3335 3.82486 17.807 2.62636 15.1038 2.36273C12.4006 2.09909 9.69015 2.78685 7.43969 4.30743C5.18923 5.82801 3.53981 8.08612 2.7758 10.6925C2.01178 13.2988 2.18104 16.09 3.25441 18.5849C3.36628 18.8168 3.40298 19.0779 3.35941 19.3316L2.33274 24.2666C2.29318 24.4558 2.30126 24.6519 2.35624 24.8372C2.41123 25.0225 2.51139 25.1913 2.64774 25.3283C2.75951 25.4392 2.89259 25.5264 3.03896 25.5846C3.18533 25.6427 3.34196 25.6706 3.49941 25.6666H3.73274L8.72607 24.6633C8.97986 24.6328 9.23721 24.669 9.47274 24.7683C11.9677 25.8416 14.7589 26.0109 17.3652 25.2469C19.9716 24.4829 22.2297 22.8335 23.7503 20.583C25.2708 18.3325 25.9586 15.6221 25.695 12.9189C25.4313 10.2157 24.2328 7.6892 22.3061 5.77494L22.2477 5.75161ZM9.33274 15.1666C9.10199 15.1666 8.87643 15.0982 8.68457 14.97C8.49272 14.8418 8.34318 14.6596 8.25488 14.4464C8.16658 14.2332 8.14347 13.9987 8.18849 13.7723C8.23351 13.546 8.34462 13.3381 8.50778 13.175C8.67094 13.0118 8.87882 12.9007 9.10513 12.8557C9.33144 12.8107 9.56602 12.8338 9.7792 12.9221C9.99238 13.0104 10.1746 13.1599 10.3028 13.3518C10.431 13.5436 10.4994 13.7692 10.4994 13.9999C10.4994 14.3094 10.3765 14.6061 10.1577 14.8249C9.9389 15.0437 9.64216 15.1666 9.33274 15.1666ZM13.9994 15.1666C13.7687 15.1666 13.5431 15.0982 13.3512 14.97C13.1594 14.8418 13.0098 14.6596 12.9215 14.4464C12.8332 14.2332 12.8101 13.9987 12.8552 13.7723C12.9002 13.546 13.0113 13.3381 13.1744 13.175C13.3376 13.0118 13.5455 12.9007 13.7718 12.8557C13.9981 12.8107 14.2327 12.8338 14.4459 12.9221C14.659 13.0104 14.8413 13.1599 14.9695 13.3518C15.0976 13.5436 15.1661 13.7692 15.1661 13.9999C15.1661 14.3094 15.0432 14.6061 14.8244 14.8249C14.6056 15.0437 14.3088 15.1666 13.9994 15.1666ZM18.6661 15.1666C18.4353 15.1666 18.2098 15.0982 18.0179 14.97C17.826 14.8418 17.6765 14.6596 17.5882 14.4464C17.4999 14.2332 17.4768 13.9987 17.5218 13.7723C17.5668 13.546 17.678 13.3381 17.8411 13.175C18.0043 13.0118 18.2122 12.9007 18.4385 12.8557C18.6648 12.8107 18.8994 12.8338 19.1125 12.9221C19.3257 13.0104 19.5079 13.1599 19.6361 13.3518C19.7643 13.5436 19.8327 13.7692 19.8327 13.9999C19.8327 14.3094 19.7098 14.6061 19.491 14.8249C19.2722 15.0437 18.9755 15.1666 18.6661 15.1666Z" fill="#121212"/>
</g>
<defs>
<clipPath id="clip0_2_10697">
<rect width="28" height="28" fill="white"/>
</clipPath>
</defs>
</svg>
