<svg width="24" height="24" viewBox="0 0 24 24" fill="none" xmlns="http://www.w3.org/2000/svg">
<path d="M12.0004 3.0791C10.2359 3.0791 8.51107 3.60232 7.04397 4.5826C5.57688 5.56288 4.43342 6.95619 3.7582 8.58634C3.08297 10.2165 2.9063 12.0102 3.25052 13.7408C3.59475 15.4714 4.44442 17.061 5.69208 18.3086C6.93974 19.5563 8.52935 20.406 10.2599 20.7502C11.9905 21.0944 13.7842 20.9177 15.4144 20.2425C17.0445 19.5673 18.4378 18.4238 19.4181 16.9567C20.3984 15.4896 20.9216 13.7648 20.9216 12.0004C20.9192 9.63502 19.9785 7.36725 18.306 5.69471C16.6335 4.02216 14.3657 3.08148 12.0004 3.0791ZM16.1216 10.3241L10.8041 15.1429C10.701 15.2379 10.5656 15.2902 10.4254 15.2891H10.3804C10.3041 15.2818 10.23 15.2595 10.1625 15.2235C10.0949 15.1875 10.0351 15.1384 9.98661 15.0791L7.81536 12.3491C7.73062 12.2316 7.69446 12.086 7.71441 11.9425C7.73436 11.7991 7.80888 11.6688 7.92245 11.579C8.03602 11.4891 8.17989 11.4464 8.3241 11.46C8.46831 11.4735 8.60174 11.5422 8.69661 11.6516L10.4929 13.9091L15.3641 9.4916C15.4188 9.44186 15.4827 9.40338 15.5522 9.37835C15.6218 9.35331 15.6956 9.34222 15.7694 9.3457C15.8432 9.34918 15.9156 9.36717 15.9825 9.39864C16.0493 9.43011 16.1094 9.47444 16.1591 9.5291C16.2088 9.58376 16.2473 9.64769 16.2724 9.71722C16.2974 9.78676 16.3085 9.86055 16.305 9.93437C16.3015 10.0082 16.2835 10.0806 16.2521 10.1475C16.2206 10.2143 16.1763 10.2744 16.1216 10.3241Z" fill="#567DFF"/>
</svg>
