<svg width="21" height="21" viewBox="0 0 21 21" fill="none" xmlns="http://www.w3.org/2000/svg">
<path d="M16.5232 16.1831C16.6647 16.1831 16.8062 16.1893 16.9478 16.1749C17.2759 16.1421 17.5794 16.0621 17.8686 15.9022C18.3854 15.6171 18.7832 15.1044 18.9329 14.5343C19.0478 14.0954 19.0067 13.6094 19.0067 13.1603V9.80313C19.0067 9.38477 18.9021 8.96436 18.6786 8.60753C18.3669 8.11124 17.8562 7.72569 17.2779 7.6047C16.8432 7.51446 16.3059 7.51036 15.8813 7.64571C15.3215 7.82413 14.8149 8.22403 14.5545 8.75929C14.3884 9.09972 14.3104 9.45245 14.3104 9.83184V13.8575C14.3104 14.1426 14.3351 14.4317 14.4376 14.7004C14.6488 15.25 15.0446 15.7319 15.5922 15.9698C15.8896 16.1031 16.1931 16.179 16.5232 16.1831C16.8452 16.1852 17.1528 15.8981 17.1385 15.5679C17.1241 15.2316 16.8678 14.9547 16.5232 14.9526C16.4474 14.9526 16.3735 14.9465 16.2977 14.9362C16.353 14.9444 16.4063 14.9506 16.4617 14.9588C16.3243 14.9383 16.1931 14.9014 16.0659 14.8481L16.2136 14.9096C16.1233 14.8706 16.0352 14.8234 15.9531 14.7701C15.949 14.7681 15.8875 14.7291 15.8875 14.723C15.8875 14.725 16.0229 14.8358 15.9388 14.7619C15.9019 14.7291 15.8649 14.6983 15.8301 14.6635C15.7993 14.6327 15.7686 14.5999 15.7398 14.565C15.705 14.524 15.6722 14.4523 15.7686 14.6061C15.7542 14.5835 15.7378 14.563 15.7214 14.5404C15.666 14.4584 15.6209 14.3702 15.5819 14.28L15.6435 14.4276C15.5901 14.3005 15.5532 14.1692 15.5327 14.0318C15.5409 14.0872 15.5471 14.1405 15.5553 14.1959C15.5307 14.0052 15.5389 13.8083 15.5389 13.6155V10.2235C15.5389 9.99796 15.5245 9.76622 15.5553 9.54268C15.5471 9.59806 15.5409 9.65138 15.5327 9.70675C15.5532 9.56934 15.5901 9.43809 15.6435 9.31095L15.5819 9.4586C15.6209 9.36837 15.6681 9.28018 15.7214 9.19815C15.7234 9.19405 15.7624 9.13253 15.7686 9.13253C15.7665 9.13253 15.6558 9.26788 15.7296 9.1838C15.7624 9.14688 15.7932 9.10997 15.828 9.07511C15.8588 9.04434 15.8916 9.01358 15.9265 8.98487C15.9675 8.95001 16.0393 8.9172 15.8854 9.01358C15.908 8.99923 15.9285 8.98282 15.9511 8.96642C16.0331 8.91104 16.1213 8.86593 16.2115 8.82696L16.0639 8.88849C16.191 8.83516 16.3223 8.79825 16.4597 8.77774C16.4043 8.78595 16.351 8.7921 16.2956 8.8003C16.5253 8.76954 16.7837 8.76954 17.0154 8.8003C16.9601 8.7921 16.9067 8.78595 16.8514 8.77774C16.9888 8.79825 17.12 8.83516 17.2472 8.88849L17.0995 8.82696C17.1897 8.86593 17.2779 8.91309 17.36 8.96642C17.3641 8.96847 17.4256 9.00743 17.4256 9.01358C17.4256 9.01153 17.2902 8.90079 17.3743 8.97462C17.4112 9.00743 17.4481 9.03819 17.483 9.07306C17.5138 9.10382 17.5445 9.13663 17.5732 9.17149C17.6081 9.21251 17.6409 9.28429 17.5445 9.13048C17.5589 9.15304 17.5753 9.17354 17.5917 9.1961C17.6471 9.27813 17.6922 9.36632 17.7312 9.45655L17.6696 9.3089C17.7229 9.43604 17.7599 9.56729 17.7804 9.7047C17.7722 9.64933 17.766 9.596 17.7578 9.54063C17.7824 9.73136 17.7742 9.92823 17.7742 10.121V13.513C17.7742 13.7386 17.7886 13.9703 17.7578 14.1939C17.766 14.1385 17.7722 14.0852 17.7804 14.0298C17.7599 14.1672 17.7229 14.2984 17.6696 14.4256L17.7312 14.2779C17.6922 14.3682 17.645 14.4564 17.5917 14.5384C17.5896 14.5425 17.5507 14.604 17.5445 14.604C17.5466 14.604 17.6573 14.4687 17.5835 14.5527C17.5507 14.5897 17.5199 14.6266 17.4851 14.6614C17.4543 14.6922 17.4215 14.723 17.3866 14.7517C17.3456 14.7865 17.2738 14.8193 17.4276 14.723C17.4051 14.7373 17.3846 14.7537 17.362 14.7701C17.28 14.8255 17.1918 14.8706 17.1016 14.9096L17.2492 14.8481C17.1221 14.9014 16.9908 14.9383 16.8534 14.9588C16.9088 14.9506 16.9621 14.9444 17.0175 14.9362C16.8534 14.9588 16.6894 14.9526 16.5232 14.9526C16.2013 14.9526 15.8937 15.2357 15.908 15.5679C15.9224 15.9001 16.1767 16.1831 16.5232 16.1831ZM4.21035 16.1831C4.35186 16.1831 4.49336 16.1893 4.63486 16.1749C4.96299 16.1421 5.2665 16.0621 5.55566 15.9022C6.07246 15.6171 6.47031 15.1044 6.62002 14.5343C6.73486 14.0954 6.69385 13.6094 6.69385 13.1603V9.80313C6.69385 9.38477 6.58926 8.96436 6.36572 8.60753C6.054 8.11124 5.54336 7.72569 4.96504 7.6047C4.53027 7.51446 3.99297 7.51036 3.56846 7.64571C3.00859 7.82413 2.50205 8.22403 2.2416 8.75929C2.07549 9.09972 1.99756 9.45245 1.99756 9.83184V13.8575C1.99756 14.1426 2.02217 14.4317 2.12471 14.7004C2.33594 15.25 2.73174 15.7319 3.2793 15.9698C3.57666 16.1031 3.88018 16.179 4.21035 16.1831C4.53232 16.1852 4.83994 15.8981 4.82559 15.5679C4.81123 15.2316 4.55488 14.9547 4.21035 14.9526C4.13447 14.9526 4.06064 14.9465 3.98477 14.9362C4.04014 14.9444 4.09346 14.9506 4.14883 14.9588C4.01143 14.9383 3.88018 14.9014 3.75303 14.8481L3.90068 14.9096C3.81045 14.8706 3.72227 14.8234 3.64023 14.7701C3.63613 14.7681 3.57461 14.7291 3.57461 14.723C3.57461 14.725 3.70996 14.8358 3.62588 14.7619C3.58896 14.7291 3.55205 14.6983 3.51719 14.6635C3.48643 14.6327 3.45566 14.5999 3.42695 14.565C3.39209 14.524 3.35928 14.4523 3.45566 14.6061C3.44131 14.5835 3.4249 14.563 3.4085 14.5404C3.35312 14.4584 3.30801 14.3702 3.26904 14.28L3.33057 14.4276C3.27725 14.3005 3.24033 14.1692 3.21982 14.0318C3.22803 14.0872 3.23418 14.1405 3.24238 14.1959C3.21777 14.0052 3.22598 13.8083 3.22598 13.6155V10.2235C3.22598 9.99796 3.21162 9.76622 3.24238 9.54268C3.23418 9.59806 3.22803 9.65138 3.21982 9.70675C3.24033 9.56934 3.27725 9.43809 3.33057 9.31095L3.26904 9.4586C3.30801 9.36837 3.35518 9.28018 3.4085 9.19815C3.41055 9.19405 3.44951 9.13253 3.45566 9.13253C3.45361 9.13253 3.34287 9.26788 3.4167 9.1838C3.44951 9.14688 3.48027 9.10997 3.51514 9.07511C3.5459 9.04434 3.57871 9.01358 3.61357 8.98487C3.65459 8.95001 3.72637 8.9172 3.57256 9.01358C3.59512 8.99923 3.61562 8.98282 3.63818 8.96642C3.72021 8.91104 3.8084 8.86593 3.89863 8.82696L3.75098 8.88849C3.87812 8.83516 4.00937 8.79825 4.14678 8.77774C4.09141 8.78595 4.03809 8.7921 3.98271 8.8003C4.2124 8.76954 4.4708 8.76954 4.70254 8.8003C4.64717 8.7921 4.59385 8.78595 4.53848 8.77774C4.67588 8.79825 4.80713 8.83516 4.93428 8.88849L4.78662 8.82696C4.87686 8.86593 4.96504 8.91309 5.04707 8.96642C5.05117 8.96847 5.1127 9.00743 5.1127 9.01358C5.1127 9.01153 4.97734 8.90079 5.06143 8.97462C5.09834 9.00743 5.13525 9.03819 5.17012 9.07306C5.20088 9.10382 5.23164 9.13663 5.26035 9.17149C5.29521 9.21251 5.32803 9.28429 5.23164 9.13048C5.246 9.15304 5.2624 9.17354 5.27881 9.1961C5.33418 9.27813 5.3793 9.36632 5.41826 9.45655L5.35674 9.3089C5.41006 9.43604 5.44697 9.56729 5.46748 9.7047C5.45928 9.64933 5.45313 9.596 5.44492 9.54063C5.46953 9.73136 5.46133 9.92823 5.46133 10.121V13.513C5.46133 13.7386 5.47568 13.9703 5.44492 14.1939C5.45313 14.1385 5.45928 14.0852 5.46748 14.0298C5.44697 14.1672 5.41006 14.2984 5.35674 14.4256L5.41826 14.2779C5.3793 14.3682 5.33213 14.4564 5.27881 14.5384C5.27676 14.5425 5.23779 14.604 5.23164 14.604C5.23369 14.604 5.34443 14.4687 5.27061 14.5527C5.23779 14.5897 5.20703 14.6266 5.17217 14.6614C5.14141 14.6922 5.10859 14.723 5.07373 14.7517C5.03271 14.7865 4.96094 14.8193 5.11475 14.723C5.09219 14.7373 5.07168 14.7537 5.04912 14.7701C4.96709 14.8255 4.87891 14.8706 4.78867 14.9096L4.93633 14.8481C4.80918 14.9014 4.67793 14.9383 4.54053 14.9588C4.5959 14.9506 4.64922 14.9444 4.70459 14.9362C4.54053 14.9588 4.37646 14.9526 4.21035 14.9526C3.88838 14.9526 3.58076 15.2357 3.59512 15.5679C3.60947 15.9001 3.86582 16.1831 4.21035 16.1831Z" fill="white"/>
<path d="M3.22598 13.8349V9.10374C3.22598 8.66077 3.23828 8.21986 3.29775 7.77894C3.28955 7.83431 3.2834 7.88763 3.2752 7.943C3.36953 7.25394 3.5541 6.58128 3.8248 5.94144L3.76328 6.08909C3.91914 5.722 4.10371 5.36517 4.31289 5.02474C4.41543 4.85863 4.52207 4.69866 4.63691 4.54075C4.66563 4.49974 4.69639 4.46077 4.7251 4.42181C4.73535 4.40745 4.74766 4.3931 4.75791 4.37874C4.82354 4.29056 4.65947 4.50384 4.72715 4.41771C4.78867 4.33978 4.8502 4.26185 4.91582 4.18802C5.16807 3.88861 5.44492 3.60765 5.73818 3.34925C5.80996 3.28773 5.88174 3.2262 5.95557 3.16468C5.99043 3.13597 6.02529 3.10726 6.06016 3.0806C6.09502 3.05189 6.1832 2.98831 6.02119 3.10931C6.04375 3.0929 6.06426 3.0765 6.08682 3.06009C6.24473 2.94115 6.40879 2.8263 6.57695 2.71966C6.95225 2.47972 7.346 2.27259 7.75615 2.09827L7.6085 2.1598C8.24834 1.88909 8.921 1.70452 9.61006 1.61019C9.55469 1.61839 9.50137 1.62454 9.446 1.63275C10.1453 1.53841 10.8569 1.53841 11.5563 1.63275C11.5009 1.62454 11.4476 1.61839 11.3922 1.61019C12.0813 1.70452 12.7539 1.88909 13.3937 2.1598L13.2461 2.09827C13.6132 2.25413 13.97 2.4387 14.3104 2.64788C14.4766 2.75042 14.6365 2.85706 14.7944 2.97191C14.8354 3.00062 14.8744 3.03138 14.9134 3.06009C14.9277 3.07034 14.9421 3.08265 14.9564 3.0929C15.0446 3.15853 14.8313 2.99447 14.9175 3.06214C14.9954 3.12366 15.0733 3.18519 15.1472 3.25081C15.4466 3.50306 15.7275 3.77991 15.9859 4.07318C16.0475 4.14495 16.109 4.21673 16.1705 4.29056C16.1992 4.32542 16.2279 4.36029 16.2546 4.39515C16.2833 4.43001 16.3469 4.5182 16.2259 4.35618C16.2423 4.37874 16.2587 4.39925 16.2751 4.42181C16.394 4.57972 16.5089 4.74378 16.6155 4.91195C16.8555 5.28724 17.0626 5.68099 17.2369 6.09115L17.1754 5.94349C17.4461 6.58333 17.6307 7.25599 17.725 7.94505C17.7168 7.88968 17.7106 7.83636 17.7024 7.78099C17.764 8.24036 17.7742 8.69974 17.7742 9.16117V14.3496C17.7742 14.7434 17.7906 15.1453 17.7394 15.537C17.7476 15.4817 17.7537 15.4284 17.7619 15.373C17.7168 15.6929 17.6307 16.0067 17.5076 16.3061L17.5691 16.1584C17.4748 16.384 17.3579 16.5993 17.2226 16.8024C17.1897 16.8516 17.1549 16.8988 17.1221 16.9459C17.0462 17.0526 17.2123 16.8352 17.1446 16.9172C17.1282 16.9377 17.1118 16.9603 17.0934 16.9808C17.0154 17.0751 16.9354 17.1633 16.8493 17.2494C16.7632 17.3356 16.6729 17.4176 16.5807 17.4935C16.5602 17.5099 16.5396 17.5284 16.5171 17.5448C16.433 17.6124 16.6381 17.4545 16.5561 17.514C16.5048 17.5509 16.4535 17.5878 16.4022 17.6227C16.1992 17.758 15.9839 17.8749 15.7583 17.9693L15.906 17.9077C15.6065 18.0308 15.2948 18.1169 14.9729 18.162C15.0282 18.1538 15.0815 18.1477 15.1369 18.1395C14.8047 18.1846 14.4684 18.1743 14.1341 18.1743H12.5693C12.2474 18.1743 11.9397 18.4574 11.9541 18.7896C11.9685 19.1239 12.2248 19.4048 12.5693 19.4048H14.1259C14.3207 19.4048 14.5176 19.4089 14.7124 19.4048C15.2312 19.3925 15.7542 19.292 16.2341 19.0951C17.2164 18.6891 18.0572 17.9611 18.533 17.0013C18.8632 16.3389 19.0088 15.6334 19.0088 14.8972V8.83919C19.0067 7.87327 18.8447 6.89505 18.5125 5.98656C18.1618 5.02269 17.6512 4.14495 16.9929 3.35745C16.3735 2.61712 15.6147 1.98138 14.7842 1.49329C13.9331 0.994954 12.9856 0.638118 12.0136 0.467903C10.9656 0.285383 9.91152 0.291536 8.86768 0.490461C7.90586 0.672981 6.9666 1.04212 6.12783 1.54866C5.30137 2.04906 4.55078 2.69095 3.94375 3.43948C3.29365 4.23929 2.79121 5.12728 2.45283 6.1014C2.14932 6.97913 1.99961 7.91634 1.99756 8.84329V13.8349C1.99756 14.1569 2.28057 14.4645 2.61279 14.4501C2.94297 14.4337 3.22598 14.1794 3.22598 13.8349Z" fill="white"/>
<path d="M11.952 18.7889C11.952 18.8463 11.9479 18.9017 11.9397 18.957C11.9479 18.9017 11.9541 18.8483 11.9623 18.793C11.9459 18.9017 11.9171 19.0062 11.8761 19.1088L11.9376 18.9611C11.9069 19.0309 11.872 19.0985 11.831 19.1621C11.829 19.1662 11.7982 19.2195 11.7941 19.2175C11.792 19.2175 11.8966 19.0924 11.8413 19.156C11.8146 19.1867 11.7879 19.2154 11.7613 19.2441C11.7367 19.2687 11.71 19.2934 11.6834 19.3159C11.6444 19.3508 11.589 19.3631 11.7346 19.277C11.7203 19.2852 11.7059 19.2975 11.6916 19.3077C11.6239 19.3528 11.5521 19.3897 11.4783 19.4226L11.6259 19.361C11.5234 19.402 11.4188 19.4308 11.3101 19.4472C11.3655 19.439 11.4188 19.4328 11.4742 19.4246C11.1973 19.4595 10.9061 19.4369 10.6272 19.4369C10.3421 19.4369 10.0468 19.4595 9.76177 19.4267C9.81714 19.4349 9.87046 19.441 9.92583 19.4492C9.81919 19.4328 9.7146 19.4062 9.61411 19.3672L9.76177 19.4287C9.68384 19.3959 9.60796 19.3569 9.53824 19.3098C9.48081 19.2708 9.47056 19.2257 9.56079 19.3303C9.53413 19.2995 9.49722 19.2749 9.46851 19.2462C9.4439 19.2216 9.39878 19.1847 9.38443 19.1539C9.40288 19.1785 9.42339 19.2031 9.44185 19.2298C9.42954 19.2134 9.41724 19.1949 9.40493 19.1785C9.35777 19.1088 9.3188 19.0329 9.28599 18.955L9.34751 19.1026C9.30855 19.0021 9.27984 18.8996 9.26548 18.7909C9.27368 18.8463 9.27984 18.8996 9.28804 18.955C9.27574 18.8422 9.27368 18.7314 9.28804 18.6207C9.27984 18.6761 9.27368 18.7294 9.26548 18.7848C9.28189 18.6761 9.3106 18.5715 9.35161 18.4689L9.29009 18.6166C9.32085 18.5469 9.35572 18.4792 9.39673 18.4156C9.39878 18.4115 9.42954 18.3582 9.43365 18.3603C9.4357 18.3603 9.33111 18.4854 9.38648 18.4218C9.41314 18.391 9.4398 18.3623 9.46646 18.3336C9.49107 18.309 9.51773 18.2844 9.54439 18.2618C9.58335 18.227 9.63872 18.2146 9.49312 18.3008C9.50747 18.2926 9.52183 18.2803 9.53618 18.27C9.60386 18.2249 9.67564 18.188 9.74947 18.1552L9.60181 18.2167C9.70435 18.1757 9.80894 18.147 9.91763 18.1306C9.86226 18.1388 9.80894 18.1449 9.75357 18.1531C10.0304 18.1183 10.3216 18.1408 10.6005 18.1408C10.8856 18.1408 11.1809 18.1183 11.466 18.1511C11.4106 18.1429 11.3573 18.1367 11.3019 18.1285C11.4085 18.1449 11.5131 18.1716 11.6136 18.2105L11.466 18.149C11.5439 18.1818 11.6198 18.2208 11.6895 18.268C11.7469 18.3069 11.7572 18.3521 11.6669 18.2475C11.6936 18.2782 11.7305 18.3028 11.7592 18.3315C11.7838 18.3562 11.829 18.3931 11.8433 18.4238C11.8249 18.3992 11.8043 18.3746 11.7859 18.3479C11.7982 18.3644 11.8105 18.3828 11.8228 18.3992C11.87 18.4689 11.9089 18.5448 11.9418 18.6228L11.8802 18.4751C11.9192 18.5756 11.9479 18.6781 11.9623 18.7868C11.9541 18.7314 11.9479 18.6781 11.9397 18.6228C11.9479 18.6781 11.952 18.7335 11.952 18.7889C11.9561 19.1108 12.233 19.4185 12.5672 19.4041C12.8974 19.3897 13.1866 19.1334 13.1825 18.7889C13.1743 18.0998 12.7826 17.4087 12.1468 17.1093C11.872 16.9801 11.5972 16.9083 11.2917 16.9062H10.1125C9.72281 16.9062 9.35366 16.9534 9.00503 17.1462C8.45542 17.4477 8.1232 18.0075 8.05142 18.6187C7.96939 19.3159 8.33853 19.9906 8.9107 20.3721C9.26958 20.612 9.68384 20.6694 10.1043 20.6694H11.2978C11.6136 20.6674 11.9151 20.5874 12.196 20.4418C12.8031 20.1239 13.1763 19.4636 13.1845 18.7868C13.1886 18.4648 12.8995 18.1572 12.5693 18.1716C12.2309 18.19 11.9561 18.4443 11.952 18.7889Z" fill="white"/>
</svg>
