<svg width="18" height="10" viewBox="0 0 18 10" fill="none" xmlns="http://www.w3.org/2000/svg">
<path d="M9.00002 5.97478C6.95236 5.97478 5.31486 5.01306 4.09064 3.87477C3.24821 3.07922 2.52512 2.16615 1.94377 1.16384L1.93674 1.15134C1.88273 1.05387 1.79356 0.980677 1.68743 0.946704C1.5813 0.912731 1.46621 0.920536 1.36564 0.968525L1.03517 1.12478L0.722673 1.27478C0.671134 1.29858 0.625065 1.33277 0.587348 1.3752C0.549631 1.41764 0.521079 1.4674 0.503478 1.52137C0.485878 1.57534 0.479608 1.63237 0.485062 1.68888C0.490516 1.74539 0.507575 1.80016 0.535173 1.84978L0.567985 1.90837C1.05053 2.74639 1.62008 3.53119 2.2672 4.24978L1.00002 5.51462C0.959293 5.55519 0.92698 5.60341 0.904932 5.6565C0.882885 5.70959 0.871535 5.76651 0.871535 5.82399C0.871535 5.88148 0.882885 5.9384 0.904932 5.99149C0.92698 6.04458 0.959293 6.09279 1.00002 6.13337L1.48595 6.62009C1.5681 6.70195 1.67935 6.74792 1.79533 6.74792C1.91131 6.74792 2.02255 6.70195 2.1047 6.62009L3.38595 5.33884C4.06499 5.9256 4.8219 6.41565 5.63517 6.79509L5.01017 8.41774C4.96838 8.52591 4.97123 8.64624 5.01811 8.7523C5.06499 8.85836 5.15205 8.94147 5.26017 8.98337L5.90158 9.23181C6.00976 9.27339 6.13 9.27042 6.236 9.22357C6.342 9.17672 6.42513 9.08979 6.4672 8.98181L7.11408 7.31071C8.35534 7.61278 9.65094 7.61278 10.8922 7.31071L11.5391 8.98181C11.581 9.08993 11.6641 9.17699 11.7702 9.22387C11.8762 9.27075 11.9965 9.2736 12.1047 9.23181L12.7461 8.98337C12.8542 8.94147 12.9413 8.85836 12.9882 8.7523C13.0351 8.64624 13.0379 8.52591 12.9961 8.41774L12.3711 6.79509C13.1844 6.41565 13.9413 5.9256 14.6203 5.33884L15.9016 6.62009C15.9837 6.70195 16.095 6.74792 16.211 6.74792C16.3269 6.74792 16.4382 6.70195 16.5203 6.62009L17.0063 6.13337C17.047 6.09279 17.0793 6.04458 17.1014 5.99149C17.1234 5.9384 17.1347 5.88148 17.1347 5.82399C17.1347 5.76651 17.1234 5.70959 17.1014 5.6565C17.0793 5.60341 17.047 5.55519 17.0063 5.51462L15.7328 4.24978C16.4083 3.49946 16.9991 2.67706 17.4945 1.79743C17.5179 1.75462 17.5322 1.70748 17.5365 1.65893C17.5409 1.61038 17.5352 1.56145 17.5199 1.51516C17.5046 1.46888 17.48 1.42623 17.4475 1.38985C17.4151 1.35348 17.3755 1.32415 17.3313 1.30368L16.9688 1.12478L16.6391 0.968525C16.5397 0.920993 16.426 0.912775 16.3208 0.945518C16.2157 0.978261 16.1267 1.04955 16.0719 1.14509L16.0336 1.21149C15.4389 2.22267 14.699 3.14106 13.8375 3.93728C12.6211 5.04978 11.0078 5.97478 9.00002 5.97478Z" fill="#F5F5F5"/>
</svg>
