<svg width="21" height="21" viewBox="0 0 21 21" fill="none" xmlns="http://www.w3.org/2000/svg">
<path d="M7.52474 19.6477V16.4531C7.52473 15.6435 8.18301 14.9858 8.99839 14.9807H11.9923C12.8113 14.9807 13.4753 15.6399 13.4753 16.4531V19.6384C13.4753 20.3406 14.0459 20.9112 14.7531 20.9163H16.7957C17.7496 20.9188 18.6654 20.5443 19.3408 19.8754C20.0163 19.2066 20.3959 18.2984 20.3959 17.3513V8.2766C20.3959 7.51154 20.0543 6.78583 19.4632 6.29499L12.524 0.785371C11.311 -0.178323 9.57853 -0.147192 8.40147 0.85945L1.61149 6.29499C0.992458 6.77136 0.622471 7.49922 0.604187 8.2766V17.342C0.604187 19.316 2.21604 20.9163 4.20437 20.9163H6.20032C6.54082 20.9188 6.86824 20.7862 7.10989 20.548C7.35154 20.3099 7.48744 19.9858 7.48743 19.6477H7.52474Z" fill="#567DFF"/>
</svg>
