<svg width="23" height="23" viewBox="0 0 23 23" fill="none" xmlns="http://www.w3.org/2000/svg">
<path d="M11.5 3C9.81886 3 8.17547 3.49852 6.77766 4.43251C5.37984 5.3665 4.29037 6.69402 3.64703 8.24719C3.00368 9.80036 2.83535 11.5094 3.16333 13.1583C3.4913 14.8071 4.30085 16.3217 5.4896 17.5104C6.67834 18.6992 8.1929 19.5087 9.84173 19.8367C11.4906 20.1646 13.1996 19.9963 14.7528 19.353C16.306 18.7096 17.6335 17.6202 18.5675 16.2223C19.5015 14.8245 20 13.1811 20 11.5C20 9.24566 19.1045 7.08365 17.5104 5.48959C15.9163 3.89553 13.7543 3 11.5 3ZM15.0172 11.5C15.0171 12.1036 14.9789 12.7067 14.9029 13.3055C13.9746 13.1216 13.0323 13.0167 12.0862 12.9919V10.0198C13.0326 9.99139 13.9749 9.88255 14.9029 9.69448C14.9789 10.2933 15.0171 10.8964 15.0172 11.5ZM7.98276 11.5C7.98276 10.8954 8.02094 10.2914 8.09707 9.69155C9.02496 9.88075 9.96727 9.99057 10.9138 10.0198V12.9919C9.96755 13.0186 9.02526 13.1255 8.09707 13.3114C8.02082 12.7106 7.98264 12.1056 7.98276 11.5ZM12.0862 8.83862V4.28379C13.244 4.70879 14.2259 6.35603 14.7036 8.53965C13.8413 8.71434 12.9657 8.81534 12.0862 8.84155V8.83862ZM10.9138 4.28379V8.83862C10.0346 8.81539 9.15895 8.71733 8.29638 8.54552C8.77414 6.35603 9.75604 4.70586 10.9138 4.28379ZM10.9138 14.1643V18.7191C9.75604 18.2941 8.77414 16.6469 8.29638 14.4633C9.15877 14.2894 10.0344 14.1894 10.9138 14.1643ZM12.0862 18.7221V14.1643C12.9654 14.1875 13.8411 14.2855 14.7036 14.4574C14.2259 16.6469 13.244 18.2971 12.0862 18.7191V18.7221ZM16.0519 9.41017C16.7957 9.19265 17.5087 8.88142 18.174 8.48396C18.6041 9.43177 18.8267 10.4606 18.8267 11.5015C18.8267 12.5423 18.6041 13.5712 18.174 14.519C17.5087 14.1215 16.7957 13.8103 16.0519 13.5928C16.1445 12.899 16.1905 12.1999 16.1897 11.5C16.1904 10.8011 16.1444 10.1029 16.0519 9.41017ZM17.6053 7.45517C17.0548 7.79204 16.4639 8.05794 15.8467 8.24655C15.5978 6.99962 15.1047 5.81424 14.3959 4.75862C15.7045 5.32873 16.8194 6.26651 17.6053 7.4581V7.45517ZM8.60414 4.75862C7.89626 5.81443 7.40417 6.99982 7.15621 8.24655C6.53915 8.05881 5.94827 7.79389 5.39759 7.4581C6.18271 6.26695 7.29659 5.32921 8.60414 4.75862ZM4.82604 8.48396C5.49248 8.88035 6.20651 9.19058 6.95104 9.40724C6.76665 10.7963 6.76665 12.2037 6.95104 13.5928C6.20636 13.8103 5.49232 14.1215 4.82604 14.519C4.3963 13.5716 4.17398 12.5432 4.17398 11.5029C4.17398 10.4626 4.3963 9.4343 4.82604 8.4869V8.48396ZM5.39173 15.5448C5.94241 15.209 6.53329 14.9441 7.15035 14.7564C7.40054 16.0025 7.89461 17.1869 8.60414 18.2414C7.29482 17.6725 6.17884 16.7358 5.39173 15.5448ZM14.3959 18.2414C15.1033 17.1893 15.5963 16.008 15.8467 14.7652C16.4639 14.9538 17.0548 15.2197 17.6053 15.5566C16.8173 16.7427 15.7026 17.6752 14.3959 18.2414Z" fill="white"/>
</svg>
