<svg width="23" height="23" viewBox="0 0 23 23" fill="none" xmlns="http://www.w3.org/2000/svg">
<path d="M14.3903 7.08182V6.18673C14.3903 5.25013 14.0183 4.35189 13.356 3.68961C12.6937 3.02734 11.7955 2.65527 10.8589 2.65527H6.18699C5.25056 2.65553 4.35257 3.0277 3.6905 3.68995C3.02843 4.3522 2.65649 5.2503 2.65649 6.18673V16.853C2.65637 17.3167 2.74759 17.776 2.92494 18.2045C3.1023 18.633 3.36232 19.0224 3.69016 19.3504C4.01799 19.6784 4.40723 19.9386 4.83564 20.1162C5.26404 20.2938 5.72324 20.3853 6.18699 20.3854H10.8685C11.8023 20.3854 12.698 20.0145 13.3585 19.3542C14.0189 18.6939 14.3901 17.7984 14.3903 16.8645V15.9598" stroke="white" stroke-width="1.5" stroke-linecap="round" stroke-linejoin="round"/>
<path d="M20.9013 11.5201H9.36108M20.9013 11.5201L18.0944 8.72656M20.9013 11.5201L18.0944 14.3146" stroke="white" stroke-width="1.5" stroke-linecap="round" stroke-linejoin="round"/>
</svg>
