<svg width="22" height="22" viewBox="0 0 22 22" fill="none" xmlns="http://www.w3.org/2000/svg">
<path d="M5.65759 3.10645C7.49004 1.86831 9.69674 1.30786 11.8978 1.52246C14.099 1.73713 16.1565 2.7133 17.7152 4.28223L17.7885 4.35547L17.8344 4.37305C19.3636 5.9233 20.3151 7.95189 20.5267 10.1211C20.7414 12.3223 20.1819 14.5298 18.9437 16.3623C17.7056 18.1948 15.8668 19.538 13.7445 20.1602C11.755 20.7434 9.63289 20.6587 7.70154 19.9258L7.31775 19.7705L7.31384 19.7686L7.09802 19.6943C6.87821 19.6337 6.64811 19.6162 6.42029 19.6436L6.40076 19.6455L6.38123 19.6494L2.15076 20.5H2.00037V20.499L1.98767 20.5C1.92038 20.5017 1.85299 20.4896 1.79041 20.4648C1.75902 20.4524 1.72866 20.4364 1.70056 20.418L1.62244 20.3545C1.56512 20.2962 1.52267 20.2249 1.49939 20.1465C1.48169 20.0868 1.47573 20.0245 1.48083 19.9629L1.48962 19.9014L2.36951 15.6709L2.37146 15.6631L2.37244 15.6543C2.42629 15.3407 2.38285 15.0185 2.24841 14.7305C1.37504 12.6994 1.2379 10.4273 1.85974 8.30566C2.48187 6.18337 3.82509 4.34463 5.65759 3.10645ZM7.57361 9.61328C7.29967 9.49993 6.99818 9.47049 6.7074 9.52832C6.41663 9.58616 6.14953 9.72894 5.93982 9.93848C5.73004 10.1483 5.58656 10.4161 5.52869 10.707C5.47086 10.9979 5.50115 11.2992 5.61462 11.5732C5.72815 11.8473 5.91972 12.0822 6.16638 12.2471C6.41306 12.4119 6.70369 12.5 7.00037 12.5C7.39804 12.4999 7.7797 12.3417 8.06091 12.0605C8.34211 11.7794 8.50024 11.3977 8.50037 11C8.50037 10.7033 8.41226 10.4127 8.24744 10.166C8.08261 9.91934 7.8477 9.72681 7.57361 9.61328ZM11.5736 9.61328C11.2997 9.49993 10.9982 9.47049 10.7074 9.52832C10.4166 9.58616 10.1495 9.72894 9.93982 9.93848C9.73004 10.1483 9.58656 10.4161 9.52869 10.707C9.47086 10.9979 9.50115 11.2992 9.61462 11.5732C9.72815 11.8473 9.91972 12.0822 10.1664 12.2471C10.4131 12.4119 10.7037 12.5 11.0004 12.5C11.398 12.4999 11.7797 12.3417 12.0609 12.0605C12.3421 11.7794 12.5002 11.3977 12.5004 11C12.5004 10.7033 12.4123 10.4127 12.2474 10.166C12.0826 9.91934 11.8477 9.72681 11.5736 9.61328ZM15.5736 9.61328C15.2997 9.49993 14.9982 9.47049 14.7074 9.52832C14.4166 9.58616 14.1495 9.72894 13.9398 9.93848C13.73 10.1483 13.5866 10.4161 13.5287 10.707C13.4709 10.9979 13.5012 11.2992 13.6146 11.5732C13.7282 11.8473 13.9197 12.0822 14.1664 12.2471C14.4131 12.4119 14.7037 12.5 15.0004 12.5C15.398 12.4999 15.7797 12.3417 16.0609 12.0605C16.3421 11.7794 16.5002 11.3977 16.5004 11C16.5004 10.7033 16.4123 10.4127 16.2474 10.166C16.0826 9.91934 15.8477 9.72681 15.5736 9.61328Z" fill="#121212" stroke="black"/>
</svg>
