<svg width="30" height="30" viewBox="0 0 30 30" fill="none" xmlns="http://www.w3.org/2000/svg">
<path d="M18.9436 23.4388C18.9528 23.6851 18.8616 23.9222 18.6883 24.0956C18.515 24.2688 18.2779 24.3691 18.0316 24.3691H3.91265C3.66637 24.3691 3.42928 24.2688 3.26511 24.0956C3.09181 23.9222 2.99144 23.6851 3.00057 23.4388C3.08268 19.1247 6.65801 15.6132 10.9721 15.6132C15.2863 15.6132 18.8616 19.1247 18.9436 23.4388ZM6.49384 10.2502C6.49384 7.90621 8.40918 6 10.7532 6C13.0973 6 15.0035 7.90621 15.0035 10.2502C15.0035 12.6034 13.0973 14.5096 10.7532 14.5096C8.40918 14.5096 6.49384 12.6034 6.49384 10.2502ZM16.7207 12.6491C16.7207 10.6592 18.3407 9.03916 20.3306 9.03916C22.3106 9.03916 23.9306 10.6592 23.9306 12.6491C23.9306 14.6291 22.3106 16.2492 20.3306 16.2492C18.3407 16.2492 16.7207 14.6291 16.7207 12.6491ZM27.0006 23.3491C27.0006 23.6191 26.9007 23.8791 26.7107 24.0692C26.5206 24.2591 26.2706 24.3691 26.0006 24.3691H20.8006C20.9107 24.0492 20.9506 23.7192 20.9406 23.3991C20.9007 21.0692 20.0407 18.9292 18.6406 17.2392C19.2406 17.0592 19.8706 16.9692 20.5006 16.9692C24.0206 16.9692 26.9406 19.8291 27.0006 23.3491Z" fill="white"/>
</svg>
