<svg width="30" height="30" viewBox="0 0 30 30" fill="none" xmlns="http://www.w3.org/2000/svg">
<path d="M17.5172 22.4828H4.06897C3.52024 22.4828 2.99399 22.2648 2.60599 21.8768C2.21798 21.4888 2 20.9625 2 20.4138V10.069C2 9.52024 2.21798 8.99399 2.60599 8.60599C2.99399 8.21798 3.52024 8 4.06897 8H17.5172C18.066 8 18.5922 8.21798 18.9802 8.60599C19.3682 8.99399 19.5862 9.52024 19.5862 10.069V20.4138C19.5862 20.9625 19.3682 21.4888 18.9802 21.8768C18.5922 22.2648 18.066 22.4828 17.5172 22.4828ZM21.6552 12.1379V18.3448L26.2534 21.411C26.4093 21.515 26.5905 21.5747 26.7777 21.5838C26.9648 21.5928 27.1509 21.5509 27.3161 21.4624C27.4812 21.3739 27.6193 21.2422 27.7154 21.0814C27.8116 20.9206 27.8623 20.7367 27.8621 20.5493V9.93345C27.8621 9.74616 27.8113 9.56238 27.715 9.40171C27.6188 9.24105 27.4808 9.10952 27.3156 9.02117C27.1505 8.93281 26.9645 8.89094 26.7774 8.90003C26.5903 8.90911 26.4092 8.96881 26.2534 9.07276L21.6552 12.1379Z" fill="white"/>
</svg>
