<svg width="30" height="30" viewBox="0 0 30 30" fill="none" xmlns="http://www.w3.org/2000/svg">
<path d="M15 17.5866C14.0397 17.5866 13.1188 17.2051 12.4397 16.5261C11.7607 15.8471 11.3793 14.9262 11.3793 13.9659V5.69003C11.3793 5.21455 11.4729 4.74373 11.6549 4.30445C11.8368 3.86517 12.1035 3.46602 12.4397 3.12981C12.776 2.7936 13.1751 2.5269 13.6144 2.34494C14.0537 2.16299 14.5245 2.06934 15 2.06934C15.4754 2.06934 15.9463 2.16299 16.3855 2.34494C16.8248 2.5269 17.224 2.7936 17.5602 3.12981C17.8964 3.46602 18.1631 3.86517 18.345 4.30445C18.527 4.74373 18.6207 5.21455 18.6207 5.69003V13.9659C18.6207 14.9262 18.2392 15.8471 17.5602 16.5261C16.8812 17.2051 15.9602 17.5866 15 17.5866Z" fill="white"/>
<path d="M20.6897 10.3447V13.9654C20.6897 17.102 18.1366 19.6551 15 19.6551C11.8635 19.6551 9.31036 17.102 9.31036 13.9654V10.3447H7.24139V13.9654C7.24139 17.8923 10.1762 21.1385 13.9655 21.6464V25.862H10.3448V27.9309H19.6552V25.862H16.0345V21.6464C19.8238 21.1385 22.7586 17.8923 22.7586 13.9654V10.3447H20.6897Z" fill="white"/>
</svg>
