<svg width="23" height="23" viewBox="0 0 23 23" fill="none" xmlns="http://www.w3.org/2000/svg">
<path d="M4.31242 15.4536C4.4125 15.969 4.69194 16.4323 5.10115 16.7612C5.51035 17.0901 6.02286 17.2635 6.54773 17.2505H8.62492C8.62492 18.013 8.92782 18.7442 9.46698 19.2834C10.0062 19.8226 10.7374 20.1255 11.4999 20.1255C12.2624 20.1255 12.9937 19.8226 13.5328 19.2834C14.072 18.7442 14.3749 18.013 14.3749 17.2505H16.4521C16.977 17.2635 17.4895 17.0901 17.8987 16.7612C18.3079 16.4323 18.5873 15.969 18.6874 15.4536C18.7617 15.0116 18.6964 14.5574 18.5006 14.1542C18.3048 13.751 17.9883 13.4188 17.5949 13.2039C17.494 13.1415 17.4115 13.0533 17.3559 12.9485C17.3004 12.8436 17.2737 12.7259 17.2787 12.6073V10.2714C17.2831 9.09927 16.9455 7.95132 16.3071 6.96827C15.6688 5.98522 14.7575 5.20978 13.6849 4.73702C13.6065 4.22807 13.3485 3.76399 12.9576 3.42873C12.5667 3.09348 12.0688 2.90918 11.5538 2.90918C11.0389 2.90918 10.5409 3.09348 10.15 3.42873C9.75915 3.76399 9.50116 4.22807 9.42273 4.73702C8.72399 5.01533 8.08664 5.42802 7.54679 5.95171C6.98438 6.47951 6.5351 7.1161 6.22622 7.82283C5.91733 8.52956 5.75528 9.29169 5.74992 10.063V12.6073C5.7549 12.7259 5.72823 12.8436 5.67265 12.9485C5.61707 13.0533 5.53459 13.1415 5.43367 13.2039C5.03502 13.4146 4.71245 13.7449 4.51132 14.1485C4.3102 14.552 4.24063 15.0084 4.31242 15.4536ZM11.4999 18.688C11.1187 18.688 10.753 18.5365 10.4835 18.2669C10.2139 17.9973 10.0624 17.6317 10.0624 17.2505H12.9374C12.9374 17.6317 12.786 17.9973 12.5164 18.2669C12.2468 18.5365 11.8812 18.688 11.4999 18.688ZM6.12367 14.4617C6.45035 14.2757 6.72128 14.0056 6.90834 13.6795C7.0954 13.3534 7.19176 12.9832 7.18742 12.6073V10.063C7.18687 9.48531 7.30239 8.91344 7.5271 8.3813C7.75181 7.84915 8.08114 7.36757 8.49554 6.96514C8.83589 6.63211 9.23254 6.36201 9.6671 6.16733C10.2388 5.89185 10.8653 5.74933 11.4999 5.75046H11.6365C12.224 5.77092 12.8001 5.91803 13.3255 6.18171C14.077 6.56761 14.7071 7.1539 15.146 7.87569C15.5849 8.59748 15.8155 9.42664 15.8124 10.2714V12.6073C15.8081 12.9832 15.9044 13.3534 16.0915 13.6795C16.2786 14.0056 16.5495 14.2757 16.8762 14.4617C17.0099 14.5322 17.118 14.6431 17.1852 14.7786C17.2523 14.9141 17.2749 15.0673 17.2499 15.2164C17.207 15.3917 17.1049 15.5468 16.9608 15.6555C16.8168 15.7642 16.6396 15.8198 16.4593 15.813H6.54773C6.36716 15.8219 6.18908 15.768 6.04367 15.6606C5.89826 15.5532 5.79448 15.3988 5.74992 15.2236C5.72329 15.0734 5.74516 14.9186 5.81235 14.7816C5.87954 14.6446 5.98857 14.5326 6.12367 14.4617Z" fill="white"/>
</svg>
