<svg width="23" height="23" viewBox="0 0 23 23" fill="none" xmlns="http://www.w3.org/2000/svg">
<path d="M15.8125 7.1875C15.8125 6.33457 15.5596 5.50079 15.0857 4.79161C14.6118 4.08242 13.9383 3.52967 13.1503 3.20327C12.3623 2.87687 11.4952 2.79147 10.6587 2.95787C9.82213 3.12426 9.05372 3.53499 8.4506 4.1381C7.84749 4.74122 7.43676 5.50963 7.27036 6.34617C7.10397 7.18272 7.18937 8.04982 7.51577 8.83782C7.84217 9.62583 8.39492 10.2994 9.1041 10.7732C9.81329 11.2471 10.6471 11.5 11.5 11.5C12.6437 11.5 13.7406 11.0456 14.5494 10.2369C15.3581 9.42815 15.8125 8.33125 15.8125 7.1875ZM8.625 7.1875C8.625 6.61888 8.79362 6.06303 9.10953 5.59024C9.42543 5.11745 9.87445 4.74895 10.3998 4.53135C10.9251 4.31375 11.5032 4.25681 12.0609 4.36774C12.6186 4.47868 13.1309 4.75249 13.5329 5.15457C13.935 5.55665 14.2088 6.06892 14.3198 6.62662C14.4307 7.18431 14.3738 7.76238 14.1562 8.28772C13.9386 8.81305 13.5701 9.26207 13.0973 9.57798C12.6245 9.89389 12.0686 10.0625 11.5 10.0625C10.7375 10.0625 10.0062 9.7596 9.46707 9.22043C8.9279 8.68127 8.625 7.95 8.625 7.1875ZM4.3125 17.9184C4.3125 18.4903 4.53968 19.0388 4.94405 19.4431C5.34843 19.8475 5.89688 20.0747 6.46875 20.0747H16.5312C17.1031 20.0747 17.6516 19.8475 18.0559 19.4431C18.4603 19.0388 18.6875 18.4903 18.6875 17.9184C18.6875 16.5841 18.1574 15.3044 17.2139 14.3608C16.2703 13.4173 14.9906 12.8872 13.6562 12.8872H9.34375C8.00938 12.8872 6.72966 13.4173 5.78612 14.3608C4.84258 15.3044 4.3125 16.5841 4.3125 17.9184ZM9.34375 14.3247H13.6562C14.1282 14.3247 14.5955 14.4176 15.0315 14.5982C15.4675 14.7788 15.8637 15.0436 16.1974 15.3773C16.5311 15.711 16.7958 16.1072 16.9764 16.5432C17.157 16.9792 17.25 17.4465 17.25 17.9184C17.25 18.1091 17.1743 18.2919 17.0395 18.4267C16.9047 18.5615 16.7219 18.6372 16.5312 18.6372H6.46875C6.27813 18.6372 6.09531 18.5615 5.96052 18.4267C5.82573 18.2919 5.75 18.1091 5.75 17.9184C5.75 16.9653 6.12863 16.0512 6.80259 15.3773C7.47654 14.7033 8.39063 14.3247 9.34375 14.3247Z" fill="white"/>
</svg>
