<svg width="24" height="24" viewBox="0 0 24 24" fill="none" xmlns="http://www.w3.org/2000/svg">
<g clip-path="url(#clip0_2_11642)">
<path d="M1 12C1 4 4 1 12 1C20 1 23 4 23 12C23 20 20 23 12 23C4 23 1 20 1 12Z" fill="#567DFF"/>
<path d="M16.4404 7.08008H7.56039C6.98752 7.08008 6.43812 7.30765 6.03304 7.71273C5.62796 8.11781 5.40039 8.66721 5.40039 9.24008V14.7601C5.40039 15.3329 5.62796 15.8823 6.03304 16.2874C6.43812 16.6925 6.98752 16.9201 7.56039 16.9201H16.4404C17.0133 16.9201 17.5627 16.6925 17.9677 16.2874C18.3728 15.8823 18.6004 15.3329 18.6004 14.7601V9.24008C18.6004 8.66721 18.3728 8.11781 17.9677 7.71273C17.5627 7.30765 17.0133 7.08008 16.4404 7.08008ZM12.0004 14.4001C11.5257 14.4001 11.0617 14.2593 10.667 13.9956C10.2723 13.7319 9.96473 13.3571 9.78308 12.9185C9.60143 12.48 9.5539 11.9974 9.64651 11.5319C9.73911 11.0663 9.96769 10.6387 10.3033 10.303C10.639 9.96738 11.0666 9.7388 11.5322 9.64619C11.9977 9.55359 12.4803 9.60112 12.9188 9.78277C13.3574 9.96442 13.7322 10.272 13.9959 10.6667C14.2596 11.0614 14.4004 11.5254 14.4004 12.0001C14.4017 12.3156 14.3405 12.6283 14.2204 12.9201C14.1003 13.2119 13.9235 13.477 13.7004 13.7001C13.4773 13.9232 13.2122 14.0999 12.9204 14.2201C12.6286 14.3402 12.3159 14.4014 12.0004 14.4001ZM16.0004 10.8601C15.7393 10.8601 15.4841 10.7827 15.267 10.6376C15.05 10.4926 14.8808 10.2864 14.7809 10.0452C14.681 9.80402 14.6548 9.53861 14.7058 9.28256C14.7567 9.0265 14.8824 8.7913 15.067 8.6067C15.2516 8.42209 15.4868 8.29637 15.7429 8.24544C15.9989 8.19451 16.2643 8.22065 16.5055 8.32056C16.7467 8.42047 16.9529 8.58965 17.0979 8.80673C17.243 9.0238 17.3204 9.27901 17.3204 9.54008C17.3204 9.89016 17.1813 10.2259 16.9338 10.4735C16.6862 10.721 16.3505 10.8601 16.0004 10.8601Z" fill="white"/>
</g>
<defs>
<clipPath id="clip0_2_11642">
<rect width="24" height="24" fill="white"/>
</clipPath>
</defs>
</svg>
