<svg width="23" height="23" viewBox="0 0 23 23" fill="none" xmlns="http://www.w3.org/2000/svg">
<path d="M16.618 21.0086C16.3586 21.0086 16.0977 20.946 15.8574 20.8199L11.5223 18.5397L7.14356 20.8191C6.87417 20.9623 6.56982 21.0266 6.26551 21.0046C5.9612 20.9825 5.66928 20.8751 5.42332 20.6945C5.17574 20.5164 4.98346 20.272 4.86856 19.9894C4.75365 19.7069 4.7208 19.3976 4.77377 19.0972L5.60177 14.2704L2.08118 10.8101C1.86169 10.5981 1.70648 10.3284 1.63339 10.0321C1.56029 9.73577 1.57228 9.42486 1.66798 9.13506C1.76137 8.8448 1.93461 8.58671 2.16787 8.39034C2.40113 8.19397 2.68498 8.06726 2.98691 8.02472L7.83277 7.32044L10.036 2.90285C10.3136 2.34134 10.8743 1.99316 11.5009 1.99316C12.1274 1.99316 12.6881 2.34134 12.9657 2.90285L15.1333 7.29427L20.0148 8.02472C20.3168 8.06726 20.6006 8.19397 20.8339 8.39034C21.0671 8.58671 21.2404 8.8448 21.3338 9.13506C21.4291 9.4249 21.4409 9.73571 21.3678 10.0319C21.2947 10.3282 21.1397 10.5978 20.9206 10.8101L17.4135 14.2284L18.228 19.098C18.2805 19.3984 18.2474 19.7075 18.1325 19.9899C18.0177 20.2724 17.8256 20.5168 17.5784 20.6953C17.2992 20.8981 16.9631 21.0077 16.618 21.0086ZM3.18756 9.67437L6.69387 13.0926C7.07853 13.4686 7.2546 14.0079 7.16418 14.5377L6.33698 19.3653L6.77477 20.1172L6.40518 19.4153L10.7395 17.1359C10.9739 17.0127 11.2348 16.9483 11.4996 16.9482C11.7644 16.948 12.0253 17.0122 12.2599 17.1351L16.595 19.4153L16.6632 19.3653L15.8352 14.5385C15.7907 14.2775 15.8102 14.0096 15.8919 13.7578C15.9737 13.5059 16.1153 13.2777 16.3047 13.0926L19.8118 9.67437L19.7856 9.59268L14.9398 8.88841C14.6777 8.85004 14.4289 8.74867 14.2146 8.59299C14.0004 8.4373 13.8271 8.23196 13.7097 7.99458L11.5421 3.60316C11.5358 3.59047 11.5286 3.57778 11.4993 3.57778L9.28891 7.99458C9.17184 8.23192 8.99887 8.43728 8.78487 8.59298C8.57087 8.74868 8.32225 8.85006 8.06039 8.88841L3.21294 9.59268L2.63318 10.2414L3.18756 9.67437Z" fill="white"/>
</svg>
