<svg width="40" height="40" viewBox="0 0 40 40" fill="none" xmlns="http://www.w3.org/2000/svg">
<path d="M32.1375 8.8748H7.86255C7.46425 8.8748 7.06987 8.95346 6.70204 9.10626C6.33421 9.25906 6.00018 9.483 5.71912 9.76522C5.43806 10.0474 5.2155 10.3824 5.06422 10.7508C4.91293 11.1193 4.8359 11.514 4.83755 11.9123V32.1373C4.83755 32.5346 4.91579 32.9279 5.06781 33.2949C5.21984 33.6619 5.44266 33.9954 5.72355 34.2763C6.00445 34.5572 6.33792 34.78 6.70493 34.932C7.07194 35.0841 7.4653 35.1623 7.86255 35.1623H32.1375C32.5348 35.1623 32.9282 35.0841 33.2952 34.932C33.6622 34.78 33.9956 34.5572 34.2765 34.2763C34.5574 33.9954 34.7803 33.6619 34.9323 33.2949C35.0843 32.9279 35.1625 32.5346 35.1625 32.1373V11.9123C35.1642 11.514 35.0872 11.1193 34.9359 10.7508C34.7846 10.3824 34.562 10.0474 34.281 9.76522C33.9999 9.483 33.6659 9.25906 33.2981 9.10626C32.9302 8.95346 32.5359 8.8748 32.1375 8.8748ZM12.9251 27.0748C13.1936 27.0748 13.4511 27.1815 13.641 27.3714C13.8309 27.5612 13.9375 27.8188 13.9375 28.0873C13.9375 28.3558 13.8309 28.6134 13.641 28.8033C13.4511 28.9931 13.1936 29.0998 12.9251 29.0998C12.6565 29.0998 12.399 28.9931 12.2091 28.8033C12.0192 28.6134 11.9125 28.3558 11.9125 28.0873C11.9125 27.8188 12.0192 27.5612 12.2091 27.3714C12.399 27.1815 12.6565 27.0748 12.9251 27.0748ZM11.9125 21.0123C11.9125 20.7438 12.0192 20.4862 12.2091 20.2964C12.399 20.1065 12.6565 19.9998 12.9251 19.9998C13.1936 19.9998 13.4511 20.1065 13.641 20.2964C13.8309 20.4862 13.9375 20.7438 13.9375 21.0123C13.9375 21.2808 13.8309 21.5384 13.641 21.7283C13.4511 21.9181 13.1936 22.0248 12.9251 22.0248C12.6565 22.0248 12.399 21.9181 12.2091 21.7283C12.0192 21.5384 11.9125 21.2808 11.9125 21.0123ZM20.0001 27.0748C20.2003 27.0748 20.3961 27.1342 20.5626 27.2454C20.7291 27.3567 20.8588 27.5148 20.9355 27.6998C21.0121 27.8848 21.0322 28.0884 20.9931 28.2848C20.954 28.4812 20.8576 28.6617 20.716 28.8033C20.5744 28.9449 20.394 29.0413 20.1976 29.0804C20.0012 29.1194 19.7976 29.0994 19.6126 29.0227C19.4276 28.9461 19.2694 28.8163 19.1582 28.6498C19.0469 28.4833 18.9876 28.2876 18.9876 28.0873C18.9908 27.8198 19.0985 27.5641 19.2877 27.3749C19.4769 27.1858 19.7325 27.078 20.0001 27.0748ZM18.9876 21.0123C18.9876 20.8121 19.0469 20.6163 19.1582 20.4498C19.2694 20.2833 19.4276 20.1535 19.6126 20.0769C19.7976 20.0002 20.0012 19.9802 20.1976 20.0193C20.394 20.0583 20.5744 20.1548 20.716 20.2964C20.8576 20.438 20.954 20.6184 20.9931 20.8148C21.0322 21.0112 21.0121 21.2148 20.9355 21.3998C20.8588 21.5848 20.7291 21.7429 20.5626 21.8542C20.3961 21.9654 20.2003 22.0248 20.0001 22.0248C19.7315 22.0248 19.474 21.9181 19.2841 21.7283C19.0942 21.5384 18.9876 21.2808 18.9876 21.0123ZM26.0626 28.0873C26.0626 27.8188 26.1692 27.5612 26.3591 27.3714C26.549 27.1815 26.8065 27.0748 27.075 27.0748C27.3436 27.0748 27.6011 27.1815 27.791 27.3714C27.9809 27.5612 28.0875 27.8188 28.0875 28.0873C28.0875 28.3558 27.9809 28.6134 27.791 28.8033C27.6011 28.9931 27.3436 29.0998 27.075 29.0998C26.8065 29.0998 26.549 28.9931 26.3591 28.8033C26.1692 28.6134 26.0626 28.3558 26.0626 28.0873ZM27.075 22.0248C26.8065 22.0248 26.549 21.9181 26.3591 21.7283C26.1692 21.5384 26.0626 21.2808 26.0626 21.0123C26.0626 20.7438 26.1692 20.4862 26.3591 20.2964C26.549 20.1065 26.8065 19.9998 27.075 19.9998C27.3436 19.9998 27.6011 20.1065 27.791 20.2964C27.9809 20.4862 28.0875 20.7438 28.0875 21.0123C28.0875 21.2808 27.9809 21.5384 27.791 21.7283C27.6011 21.9181 27.3436 22.0248 27.075 22.0248ZM33.1501 13.9373H6.90005V11.9123C6.90005 11.6438 7.00672 11.3862 7.1966 11.1964C7.38649 11.0065 7.64402 10.8998 7.91255 10.8998H32.1375C32.4061 10.8998 32.6636 11.0065 32.8535 11.1964C33.0434 11.3862 33.1501 11.6438 33.1501 11.9123V13.9373ZM12.9251 6.8498H16.9626C17.1041 6.86561 17.2474 6.85136 17.3831 6.808C17.5188 6.76464 17.6438 6.69314 17.7499 6.59817C17.8561 6.5032 17.941 6.3869 17.9992 6.25687C18.0573 6.12683 18.0874 5.986 18.0874 5.84356C18.0874 5.70111 18.0573 5.56028 17.9992 5.43024C17.941 5.30021 17.8561 5.18391 17.7499 5.08894C17.6438 4.99397 17.5188 4.92247 17.3831 4.87911C17.2474 4.83575 17.1041 4.8215 16.9626 4.8373H12.9251C12.7835 4.8215 12.6402 4.83575 12.5045 4.87911C12.3688 4.92247 12.2438 4.99397 12.1377 5.08894C12.0315 5.18391 11.9466 5.30021 11.8884 5.43024C11.8303 5.56028 11.8002 5.70111 11.8002 5.84356C11.8002 5.986 11.8303 6.12683 11.8884 6.25687C11.9466 6.3869 12.0315 6.5032 12.1377 6.59817C12.2438 6.69314 12.3688 6.76464 12.5045 6.808C12.6402 6.85136 12.7835 6.86561 12.9251 6.8498ZM23.0376 6.8498H27.075C27.2166 6.86561 27.3599 6.85136 27.4956 6.808C27.6313 6.76464 27.7563 6.69314 27.8624 6.59817C27.9686 6.5032 28.0535 6.3869 28.1117 6.25687C28.1698 6.12683 28.1999 5.986 28.1999 5.84356C28.1999 5.70111 28.1698 5.56028 28.1117 5.43024C28.0535 5.30021 27.9686 5.18391 27.8624 5.08894C27.7563 4.99397 27.6313 4.92247 27.4956 4.87911C27.3599 4.83575 27.2166 4.8215 27.075 4.8373H23.0376C22.896 4.8215 22.7527 4.83575 22.617 4.87911C22.4813 4.92247 22.3563 4.99397 22.2502 5.08894C22.144 5.18391 22.0591 5.30021 22.0009 5.43024C21.9428 5.56028 21.9127 5.70111 21.9127 5.84356C21.9127 5.986 21.9428 6.12683 22.0009 6.25687C22.0591 6.3869 22.144 6.5032 22.2502 6.59817C22.3563 6.69314 22.4813 6.76464 22.617 6.808C22.7527 6.85136 22.896 6.86561 23.0376 6.8498Z" fill="#F5F5F5"/>
</svg>
