<svg width="21" height="21" viewBox="0 0 21 21" fill="none" xmlns="http://www.w3.org/2000/svg">
<path d="M11.2438 0.083382C11.8168 0.0729653 12.3595 0.280257 12.7647 0.677132C13.172 1.06151 13.3897 1.5938 13.3897 2.1563C13.3897 3.30213 14.3376 4.23026 15.5157 4.23026C15.8793 4.23026 16.2438 4.12505 16.5678 3.94797C17.5772 3.40526 18.8376 3.75005 19.4105 4.7188L20.1199 5.93755C20.297 6.25005 20.4001 6.60422 20.4001 6.9688C20.4001 7.70838 19.9949 8.39692 19.3386 8.76047C19.0147 8.93755 18.7438 9.20838 18.5574 9.52192C18.0043 10.5 18.3491 11.7386 19.3386 12.3032C20.3376 12.875 20.6813 14.1261 20.1199 15.1146L19.4105 16.2928C19.0355 16.9375 18.3376 17.3344 17.5876 17.3344C17.2126 17.3344 16.8376 17.2396 16.5261 17.0521C16.1918 16.875 15.8282 16.7709 15.4626 16.7709C14.9001 16.7709 14.3584 16.9907 13.9636 17.3855C13.5563 17.7719 13.3376 18.3021 13.3376 18.8542C13.3376 19.9896 12.3907 20.9167 11.2126 20.9167H9.78655C9.22301 20.9167 8.69176 20.6876 8.30634 20.3021C7.91051 19.9063 7.70322 19.3855 7.70322 18.8438C7.70322 17.698 6.76468 16.7709 5.58863 16.7709C5.20218 16.7709 4.82718 16.875 4.50426 17.074C4.01468 17.3438 3.43134 17.4167 2.88968 17.2813C2.34801 17.1355 1.87926 16.7813 1.59801 16.3125L0.932385 15.1355C0.618843 14.6469 0.525093 14.0625 0.671968 13.5105C0.81676 12.9584 1.1928 12.4896 1.70218 12.2084C2.02614 12.0313 2.29593 11.7709 2.48343 11.448C3.02613 10.4688 2.68134 9.23963 1.70218 8.66672C0.712593 8.10422 0.368843 6.86463 0.932385 5.88547L1.59801 4.7188C1.87926 4.23026 2.34801 3.87505 2.90009 3.72922C3.45322 3.58338 4.03551 3.66567 4.52509 3.94797C4.85843 4.12505 5.22301 4.2188 5.58863 4.2188C6.15113 4.2188 6.69176 4.00005 7.08759 3.61463C7.48343 3.22922 7.70322 2.69797 7.70322 2.1563C7.70322 1.01047 8.65009 0.083382 9.82718 0.083382H11.2438ZM11.6616 7.87609C10.5678 7.42713 9.30634 7.66672 8.46259 8.48963C7.62926 9.30213 7.36884 10.5417 7.82718 11.6053C8.27613 12.6771 9.33759 13.375 10.5251 13.375H10.5366C11.3178 13.3855 12.047 13.0844 12.598 12.5417C13.1501 12.0105 13.4626 11.2813 13.4626 10.5209C13.473 9.36463 12.7543 8.31255 11.6616 7.87609Z" fill="#121212"/>
</svg>
