<svg width="23" height="23" viewBox="0 0 23 23" fill="none" xmlns="http://www.w3.org/2000/svg">
<path d="M2.35022 19.7945C2.27448 19.7949 2.19919 19.7827 2.12741 19.7585C1.9773 19.7098 1.84741 19.613 1.75778 19.4831C1.66815 19.3532 1.62376 19.1974 1.63147 19.0398C1.63147 18.932 2.37179 8.49571 12.8368 7.67633V3.92446C12.8367 3.78156 12.8791 3.64187 12.9588 3.52323C13.0384 3.40459 13.1516 3.31238 13.2839 3.25838C13.4162 3.20438 13.5616 3.19104 13.7015 3.22006C13.8415 3.24909 13.9695 3.31916 14.0694 3.42133L21.1635 10.6663C21.2952 10.8007 21.369 10.9813 21.369 11.1695C21.369 11.3576 21.2952 11.5382 21.1635 11.6726L14.0694 18.9176C13.9695 19.0198 13.8415 19.0898 13.7015 19.1189C13.5616 19.1479 13.4162 19.1345 13.2839 19.0805C13.1516 19.0265 13.0384 18.9343 12.9588 18.8157C12.8791 18.697 12.8367 18.5574 12.8368 18.4145V14.7345C5.85054 15.0004 2.98632 19.4063 2.95757 19.4602C2.89272 19.5626 2.80304 19.647 2.69685 19.7054C2.59067 19.7638 2.47143 19.7945 2.35022 19.7945ZM14.2743 5.6854V8.34836C14.2744 8.53471 14.2021 8.71381 14.0727 8.84791C13.9433 8.982 13.7669 9.06059 13.5807 9.06711C6.81007 9.31508 4.38788 13.8252 3.51819 16.7254C5.31507 15.1729 8.5171 13.2754 13.5124 13.2754H13.5448C13.7354 13.2754 13.9182 13.3511 14.053 13.4859C14.1878 13.6207 14.2635 13.8035 14.2635 13.9941V16.6571L19.6541 11.1731L14.2743 5.6854Z" fill="white"/>
</svg>
