<svg width="24" height="24" viewBox="0 0 24 24" fill="none" xmlns="http://www.w3.org/2000/svg">
<path d="M12 21.9375C17.4883 21.9375 21.9375 17.4883 21.9375 12C21.9375 6.51167 17.4883 2.0625 12 2.0625C6.51167 2.0625 2.0625 6.51167 2.0625 12C2.0625 17.4883 6.51167 21.9375 12 21.9375Z" fill="#DC3545"/>
<path d="M15.814 8.18596C15.7503 8.12218 15.6746 8.07158 15.5913 8.03706C15.508 8.00254 15.4187 7.98477 15.3286 7.98477C15.2384 7.98477 15.1491 8.00254 15.0658 8.03706C14.9826 8.07158 14.9069 8.12218 14.8431 8.18596L11.9999 11.0288L9.15664 8.18558C9.0279 8.05679 8.85326 7.98441 8.67115 7.98438C8.48904 7.98434 8.31438 8.05665 8.18558 8.18539C8.05679 8.31414 7.98441 8.48878 7.98438 8.67089C7.98434 8.853 8.05665 9.02766 8.18539 9.15646L11.0294 12.0001L8.18615 14.8433C8.12237 14.9071 8.07178 14.9828 8.03726 15.0661C8.00273 15.1494 7.98496 15.2387 7.98494 15.3288C7.98492 15.419 8.00266 15.5083 8.03715 15.5916C8.07165 15.6749 8.12221 15.7506 8.18596 15.8144C8.24971 15.8782 8.32539 15.9288 8.40869 15.9633C8.49199 15.9978 8.58128 16.0156 8.67145 16.0156C8.76162 16.0156 8.85091 15.9979 8.93423 15.9634C9.01754 15.9289 9.09325 15.8783 9.15702 15.8146L11.9999 12.9706L14.8431 15.8138C14.9719 15.9426 15.1465 16.015 15.3286 16.015C15.5107 16.0151 15.6854 15.9428 15.8142 15.814C15.943 15.6853 16.0154 15.5106 16.0154 15.3285C16.0155 15.1464 15.9431 14.9718 15.8144 14.843L12.9704 12.0001L15.8136 9.15683C15.8775 9.09309 15.9281 9.0174 15.9627 8.93407C15.9972 8.85074 16.015 8.76142 16.015 8.67121C16.015 8.581 15.9972 8.49168 15.9627 8.40835C15.9281 8.32502 15.8775 8.24932 15.8136 8.18558L15.814 8.18596Z" fill="white"/>
</svg>
