<svg width="24" height="24" viewBox="0 0 24 24" fill="none" xmlns="http://www.w3.org/2000/svg">
<path fill-rule="evenodd" clip-rule="evenodd" d="M9.33333 3.95C9.33333 3.42533 8.908 3 8.38333 3C7.85867 3 7.43333 3.42533 7.43333 3.95V5.85H6.48333C4.55955 5.85 3 7.40955 3 9.33333V19.4667C3 20.8658 4.13421 22 5.53333 22H12.7143C13.2405 22 13.5572 21.3771 13.337 20.8991C13.003 20.1742 12.8167 19.3672 12.8167 18.5167C12.8167 15.3686 15.3686 12.8167 18.5167 12.8167C19.3672 12.8167 20.1742 13.003 20.8991 13.337C21.3771 13.5572 22 13.2405 22 12.7143V9.33333C22 7.40955 20.4405 5.85 18.5167 5.85H17.5667V3.95C17.5667 3.42533 17.1413 3 16.6167 3C16.092 3 15.6667 3.42533 15.6667 3.95V5.85H9.33333V3.95ZM18.5167 7.75C19.3912 7.75 20.1 8.45888 20.1 9.33333V9.96667H4.9V9.33333C4.9 8.45888 5.60888 7.75 6.48333 7.75H18.5167Z" fill="#121212"/>
<path d="M21.0887 15.9452C21.4597 16.3163 21.4597 16.9177 21.0887 17.2887L19.8605 18.517L21.0887 19.7452C21.4597 20.1163 21.4597 20.7177 21.0887 21.0887C20.7177 21.4597 20.1163 21.4597 19.7452 21.0887L18.517 19.8605L17.2887 21.0887C16.9177 21.4597 16.3163 21.4597 15.9452 21.0887C15.5742 20.7177 15.5742 20.1163 15.9452 19.7452L17.1734 18.517L15.9452 17.2887C15.5742 16.9177 15.5742 16.3163 15.9452 15.9452C16.3163 15.5742 16.9177 15.5742 17.2887 15.9452L18.517 17.1734L19.7452 15.9452C20.1163 15.5742 20.7177 15.5742 21.0887 15.9452Z" fill="#121212"/>
</svg>
