<svg width="32" height="32" viewBox="0 0 32 32" fill="none" xmlns="http://www.w3.org/2000/svg">
<path d="M27 9H22.8857C22.6803 8.99962 22.4799 8.93611 22.3117 8.81805C22.1436 8.7 22.0158 8.53311 21.9457 8.34L21.4526 6.979C21.2416 6.39989 20.8579 5.89953 20.3533 5.54559C19.8487 5.19165 19.2476 5.0012 18.6313 5H13.3687C12.7524 5.00119 12.1514 5.19157 11.6468 5.54542C11.1422 5.89926 10.7585 6.3995 10.5474 6.9785L10.0542 8.34C9.98404 8.53308 9.85625 8.69995 9.68811 8.818C9.51998 8.93605 9.31964 8.99958 9.1142 9H5C4.20462 9.00087 3.44206 9.31722 2.87964 9.87964C2.31722 10.4421 2.00087 11.2046 2 12V24C2.00087 24.7954 2.31722 25.5579 2.87964 26.1204C3.44206 26.6828 4.20462 26.9991 5 27H27C27.7954 26.9991 28.5579 26.6828 29.1204 26.1204C29.6828 25.5579 29.9991 24.7954 30 24V12C29.9991 11.2046 29.6828 10.4421 29.1204 9.87964C28.5579 9.31722 27.7954 9.00087 27 9ZM12.1069 12.74L12.1111 12.8949C12.7565 12.323 13.5089 11.8847 14.3248 11.6054C15.1407 11.3262 16.0038 11.2114 16.8643 11.2679C18.1058 11.3295 19.2892 11.8125 20.2193 12.6371C21.1494 13.4618 21.7706 14.5788 21.9805 15.804C22.0076 15.9333 22.0089 16.0667 21.9842 16.1964C21.9595 16.3262 21.9093 16.4498 21.8365 16.5601C21.7638 16.6703 21.6699 16.7651 21.5603 16.8389C21.4508 16.9127 21.3277 16.964 21.1981 16.9899C21.0686 17.0159 20.9352 17.0159 20.8057 16.99C20.6761 16.9641 20.553 16.9127 20.4434 16.839C20.3338 16.7652 20.24 16.6705 20.1672 16.5602C20.0944 16.4499 20.0442 16.3264 20.0195 16.1966C19.8917 15.4015 19.493 14.6751 18.8909 14.1404C18.2888 13.6056 17.5204 13.2955 16.7158 13.2625C15.9493 13.2122 15.1828 13.3606 14.4905 13.6935C13.7982 14.0264 13.2035 14.5324 12.7642 15.1625L14.1528 15.3082C14.4166 15.3359 14.6586 15.4673 14.8255 15.6734C14.9925 15.8795 15.0707 16.1436 15.0429 16.4074C15.0152 16.6711 14.8839 16.9131 14.6777 17.0801C14.4716 17.247 14.2076 17.3252 13.9438 17.2975L11.0908 16.9975C10.8498 16.972 10.6262 16.8599 10.4616 16.682C10.297 16.5041 10.2025 16.2725 10.1958 16.0302L10.1079 12.7948C10.1048 12.5323 10.2051 12.2792 10.3871 12.09C10.569 11.9008 10.818 11.7907 11.0804 11.7835C11.3428 11.7764 11.5975 11.8726 11.7895 12.0516C11.9816 12.2305 12.0956 12.4778 12.1069 12.74ZM21.0269 23.3021H20.9991C20.7387 23.3019 20.4887 23.2002 20.3021 23.0186C20.1156 22.837 20.0072 22.5898 20.0001 22.3295L19.9957 22.1682C18.9151 23.1881 17.4875 23.7595 16.0016 23.767H15.9923C14.6937 23.7307 13.4379 23.2944 12.3964 22.5178C11.355 21.7411 10.5786 20.6619 10.1734 19.4276C10.1263 19.305 10.1039 19.1743 10.1073 19.043C10.1107 18.9118 10.14 18.7824 10.1934 18.6625C10.3013 18.4202 10.501 18.2307 10.7486 18.1356C10.9962 18.0405 11.2714 18.0477 11.5137 18.1556C11.756 18.2635 11.9455 18.4632 12.0406 18.7108C12.3066 19.5644 12.8287 20.3155 13.5362 20.8622C14.2436 21.4089 15.1021 21.7248 15.9952 21.767H16.0016C16.6671 21.7525 17.3189 21.5754 17.9003 21.2512C18.4816 20.927 18.9749 20.4655 19.337 19.907L17.9542 19.7618C17.6904 19.7341 17.4484 19.6027 17.2815 19.3966C17.1146 19.1905 17.0364 18.9265 17.0641 18.6627C17.0918 18.3989 17.2232 18.1569 17.4293 17.99C17.6354 17.8231 17.8994 17.7449 18.1632 17.7726L21.0157 18.0726C21.2568 18.098 21.4804 18.21 21.6451 18.388C21.8097 18.5659 21.9041 18.7976 21.9107 19.0399L22 22.2749C22.0036 22.4062 21.9813 22.5369 21.9343 22.6596C21.8874 22.7823 21.8167 22.8945 21.7264 22.9899C21.636 23.0852 21.5278 23.1618 21.4079 23.2154C21.2879 23.2689 21.1582 23.2986 21.0269 23.3021Z" fill="white"/>
</svg>
