<svg width="23" height="23" viewBox="0 0 23 23" fill="none" xmlns="http://www.w3.org/2000/svg">
<path d="M11.5054 6.75004C8.84136 6.75004 6.66316 8.88674 6.66316 11.5C6.66316 14.1141 8.84136 16.25 11.5054 16.25C14.1702 16.25 16.3476 14.1141 16.3476 11.5C16.3476 8.88674 14.1702 6.75004 11.5054 6.75004ZM11.5054 8.33337C13.2978 8.33337 14.7335 9.74253 14.7335 11.5C14.7335 13.2583 13.2978 14.6667 11.5054 14.6667C9.71377 14.6667 8.27724 13.2583 8.27724 11.5C8.27724 9.74253 9.71377 8.33337 11.5054 8.33337ZM12.3124 2.8028V4.36396C12.3278 5.43429 10.6822 5.43429 10.6984 4.36396V2.8028C10.6967 2.69721 10.7167 2.59237 10.757 2.49446C10.7974 2.39655 10.8573 2.30757 10.9333 2.23275C11.0092 2.15793 11.0997 2.09879 11.1994 2.05882C11.299 2.01886 11.4058 1.99887 11.5135 2.00005C11.963 2.00797 12.3181 2.3658 12.3124 2.8028ZM12.3124 18.6361V20.1973C12.3278 21.2676 10.6822 21.2676 10.6984 20.1973V18.6361C10.6967 18.5305 10.7167 18.4257 10.757 18.3278C10.7974 18.2298 10.8573 18.1409 10.9333 18.066C11.0092 17.9912 11.0997 17.9321 11.1994 17.8921C11.299 17.8522 11.4058 17.8322 11.5135 17.8333C11.963 17.8405 12.3181 18.1991 12.3124 18.6361ZM19.5871 7.83699L18.2087 8.61757C17.2717 9.1662 16.4493 7.76891 17.4016 7.24641L18.78 6.46583C18.8724 6.41165 18.9749 6.37616 19.0815 6.36146C19.1881 6.34675 19.2965 6.35313 19.4006 6.38021C19.5046 6.40728 19.602 6.45452 19.6872 6.51912C19.7723 6.58373 19.8433 6.6644 19.8962 6.75637C19.9483 6.84722 19.9816 6.94725 19.9942 7.05075C20.0069 7.15424 19.9986 7.25916 19.9699 7.35952C19.9412 7.45988 19.8926 7.5537 19.8269 7.63563C19.7613 7.71756 19.6797 7.78598 19.5871 7.83699ZM5.60917 15.7536L4.23074 16.5342C3.29296 17.0821 2.4714 15.6856 3.4237 15.1631L4.80213 14.3825C4.89446 14.3284 4.99689 14.293 5.10338 14.2784C5.20987 14.2638 5.31826 14.2702 5.42219 14.2972C5.52612 14.3243 5.62347 14.3715 5.70853 14.436C5.79358 14.5006 5.86462 14.5811 5.91745 14.673C5.96958 14.7638 6.00295 14.8638 6.01566 14.9673C6.02837 15.0707 6.02018 15.1756 5.99155 15.276C5.96292 15.3763 5.91442 15.4702 5.8488 15.5521C5.78319 15.6341 5.70176 15.7026 5.60917 15.7536ZM19.5871 15.1757L18.2087 14.3959C17.2717 13.8473 16.4493 15.2446 17.4016 15.7671L18.78 16.5477C18.8725 16.6018 18.975 16.6373 19.0816 16.6519C19.1882 16.6666 19.2967 16.6601 19.4008 16.633C19.5048 16.6058 19.6022 16.5585 19.6873 16.4938C19.7724 16.4291 19.8434 16.3484 19.8962 16.2563C20.0011 16.0729 20.0275 15.8561 19.9695 15.6537C19.9116 15.4512 19.774 15.2787 19.5871 15.1757ZM5.60917 7.25987L4.23074 6.47929C3.29296 5.93066 2.4714 7.32795 3.4237 7.85045L4.80213 8.63103C4.89446 8.68508 4.99689 8.72047 5.10338 8.73511C5.20987 8.74974 5.31826 8.74334 5.42219 8.71627C5.52612 8.68919 5.62347 8.642 5.70853 8.57747C5.79358 8.51293 5.86462 8.43236 5.91745 8.34049C5.96958 8.24969 6.00295 8.1497 6.01566 8.04624C6.02837 7.94278 6.02018 7.83788 5.99155 7.73752C5.96292 7.63717 5.91442 7.54333 5.8488 7.46138C5.78319 7.37942 5.70176 7.31095 5.60917 7.25987Z" fill="white"/>
</svg>
