<svg width="23" height="23" viewBox="0 0 23 23" fill="none" xmlns="http://www.w3.org/2000/svg">
<path d="M15.1929 1.91699C18.2723 1.91699 20.1167 3.78712 20.125 6.90963V16.091C20.125 19.2135 18.289 21.0837 15.2012 21.0837H12.4639C12.1129 21.0444 11.8471 20.7436 11.8471 20.3855C11.8471 20.0274 12.1129 19.7267 12.4639 19.6874H15.1929C17.5463 19.6874 18.7313 18.4773 18.7313 16.091V6.90963C18.7313 4.52332 17.5463 3.31324 15.1929 3.31324H7.7988C5.44539 3.31324 4.252 4.52332 4.252 6.90963V16.091C4.252 18.4773 5.44539 19.6874 7.7988 19.6874C8.14985 19.7267 8.41556 20.0274 8.41556 20.3855C8.41556 20.7436 8.14985 21.0444 7.7988 21.0837C4.71934 21.0837 2.875 19.2135 2.875 16.091V6.90963C2.875 3.77866 4.71934 1.91699 7.7988 1.91699H15.1929ZM14.9425 14.864C15.3204 14.864 15.6268 15.1747 15.6268 15.5579C15.6268 15.9411 15.3204 16.2518 14.9425 16.2518H8.03247C7.65453 16.2518 7.34815 15.9411 7.34815 15.5579C7.34815 15.1747 7.65453 14.864 8.03247 14.864H14.9425ZM14.9425 10.8022C15.2066 10.7727 15.464 10.8989 15.6052 11.1271C15.7464 11.3553 15.7464 11.6453 15.6052 11.8735C15.464 12.1017 15.2066 12.228 14.9425 12.1984H8.03247C7.68143 12.1592 7.41572 11.8584 7.41572 11.5003C7.41572 11.1422 7.68143 10.8415 8.03247 10.8022H14.9425ZM10.6696 6.74885C11.0207 6.7881 11.2864 7.08887 11.2864 7.44698C11.2864 7.80509 11.0207 8.10585 10.6696 8.1451H8.04082C7.68978 8.10585 7.42407 7.80509 7.42407 7.44698C7.42407 7.08887 7.68978 6.7881 8.04082 6.74885H10.6696Z" fill="white"/>
</svg>
